<svg width="145" height="72" viewBox="0 0 145 72" fill="none" xmlns="http://www.w3.org/2000/svg">
<g clip-path="url(#clip0_304_15325)">
<path d="M72.0576 28.1289C74.207 28.0746 75.9524 28.7201 77.0889 29.999C78.2 31.2024 78.7656 32.6116 78.7656 34.6924V43.8125L78.7646 43.8135H74.7461V34.7002C74.7461 33.7258 74.5042 32.9594 74.0283 32.4248C73.5503 31.8873 72.9066 31.625 72.0605 31.625C71.2143 31.625 70.5714 31.8861 70.0986 32.4238C69.6259 32.9595 69.3867 33.7259 69.3867 34.6982V43.8125H65.3545V34.6992C65.3545 33.7248 65.1126 32.9584 64.6367 32.4238C64.1587 31.8863 63.515 31.624 62.6689 31.624C61.8227 31.6241 61.1797 31.8851 60.707 32.4229C60.2344 32.9595 59.9952 33.7243 59.9951 34.6963V43.8115H55.9766V34.6924C55.9766 32.569 56.5495 31.1426 57.6807 29.9424C58.8171 28.738 60.4953 28.128 62.6689 28.1279C65.1058 28.1279 66.6168 29.3331 67.0215 29.7041L67.4258 30.0449L67.8936 29.6787C69.0343 28.748 70.593 28.1672 72.0576 28.1289ZM28.2275 28.0664C29.766 28.0664 31.1717 28.4214 32.4062 29.1221C33.6397 29.8228 34.619 30.7853 35.3154 31.9844C36.0119 33.1824 36.3643 34.503 36.3643 35.9375C36.3642 37.3719 36.0108 38.7063 35.3154 39.9043C34.619 41.1045 33.6374 42.0653 32.3975 42.7607C31.1587 43.456 29.7312 43.8086 28.2129 43.8086C26.6945 43.8086 25.2996 43.4535 24.0703 42.7529C22.841 42.0533 21.8644 41.0923 21.168 39.8975C20.4717 38.7048 20.1192 37.3633 20.1191 35.9375C20.1191 34.5115 20.4726 33.1814 21.168 31.9844C21.8644 30.7852 22.842 29.8227 24.0703 29.123C25.2996 28.4224 26.6891 28.0664 28.2275 28.0664ZM2.60547 22.125C3.83685 22.1251 4.83203 23.1319 4.83203 24.3789V35.8877C4.83213 37.764 6.34336 39.293 8.19629 39.293L10.4014 39.3047C12.2522 39.3047 13.7656 37.7927 13.7656 35.9365C13.7656 34.0803 12.2541 32.5684 10.3916 32.5684H9.30273C8.07344 32.5683 7.07617 31.5615 7.07617 30.3145C7.07628 29.0675 8.0714 28.0616 9.30273 28.0615H10.3916C14.7064 28.0615 18.2158 31.5908 18.2158 35.9326C18.2156 40.2742 14.7074 43.8037 10.3916 43.8037V43.8057L8.19043 43.7949C3.88729 43.7948 0.378906 40.2438 0.378906 35.8818V24.3779C0.378906 23.1351 1.37401 22.125 2.60547 22.125ZM40.541 23.7324C41.5139 23.7325 42.3027 24.5289 42.3027 25.5107V28.1182C42.3027 28.1277 42.3108 28.1357 42.3203 28.1357H45.3242C46.2981 28.1357 47.0887 28.9332 47.0889 29.916V29.9844C47.0889 30.9673 46.2982 31.7646 45.3242 31.7646H42.3203C42.3108 31.7646 42.3027 31.7726 42.3027 31.7822V37.9629H42.3047C42.3047 40.033 43.3625 40.2724 44.1592 40.2725H47.0732C47.0825 40.2727 47.0898 40.2806 47.0898 40.29V43.7832C47.0897 43.7925 47.0824 43.7996 47.0732 43.7998H43.4365C41.956 43.7998 40.7061 43.3758 39.7227 42.542C38.7226 41.6943 38.2159 40.1002 38.2158 37.8037V25.501C38.2158 24.5329 38.99 23.7458 39.9492 23.7373L40.541 23.7324ZM51.5508 28.1357C52.6788 28.1357 53.5937 29.0589 53.5938 30.1973H53.5947V43.7998H49.5078V30.1973C49.5079 29.058 50.423 28.136 51.5508 28.1357ZM28.2412 31.7539C27.4815 31.7539 26.785 31.9354 26.1709 32.291C25.5557 32.6478 25.0653 33.1496 24.7129 33.7822C24.3583 34.4191 24.1777 35.1346 24.1777 35.9365C24.1778 36.7383 24.3584 37.4652 24.7129 38.0967C25.0653 38.7249 25.5533 39.2228 26.1631 39.5742C26.773 39.9267 27.4719 40.1045 28.2422 40.1045C28.9161 40.1045 29.5351 39.9678 30.0879 39.6982L30.3193 39.5742C30.9291 39.2228 31.4171 38.7249 31.7695 38.0967C32.125 37.4642 32.3047 36.7287 32.3047 35.9365C32.3047 35.1442 32.1241 34.419 31.7695 33.7822C31.4171 33.1496 30.9267 32.6478 30.3115 32.291C29.6974 31.9353 29.001 31.7539 28.2412 31.7539Z" fill="black"/>
<path d="M136.811 43.6973V47.1478C136.811 48.9497 135.359 50.415 133.573 50.415H94.214C92.4286 50.415 90.9766 48.9497 90.9766 47.1478V43.6973C90.9766 43.6398 90.9776 43.5834 90.9808 43.527H91.1401C91.2267 41.8891 92.57 40.5898 94.214 40.5898H133.573C135.216 40.5898 136.559 41.8891 136.647 43.527H136.806C136.809 43.5834 136.811 43.6398 136.811 43.6973Z" fill="white"/>
<path d="M136.968 43.5553C136.968 43.5457 136.967 43.5361 136.967 43.5276C136.946 43.0878 136.841 42.6703 136.67 42.2891C136.834 42.6692 136.93 43.0867 136.941 43.5276H136.649C136.653 43.584 136.654 43.6405 136.654 43.698V47.1484C136.654 48.8651 135.275 50.2559 133.575 50.2559H94.216C92.515 50.2559 91.1369 48.8651 91.1369 47.1484V43.698C91.1369 43.6405 91.1379 43.584 91.1422 43.5276H90.8467C90.8477 43.3391 90.8646 43.1549 90.8963 42.977C90.8583 43.1559 90.834 43.3402 90.8245 43.5276C90.8245 43.5361 90.8235 43.5457 90.8235 43.5553C90.8214 43.6021 90.8203 43.6501 90.8203 43.698V47.1484C90.8203 49.0387 92.343 50.5754 94.216 50.5754H133.575C135.447 50.5754 136.971 49.0387 136.971 47.1484V43.698C136.971 43.6501 136.97 43.6021 136.968 43.5553Z" fill="black"/>
<path d="M136.654 43.6973V47.1478C136.654 48.8645 135.275 50.2553 133.575 50.2553H94.2159C92.5148 50.2553 91.1367 48.8645 91.1367 47.1478V43.6973C91.1367 43.6398 91.1378 43.5834 91.142 43.527C91.2285 41.8891 92.5718 40.5898 94.2159 40.5898H133.575C135.218 40.5898 136.561 41.8891 136.649 43.527C136.653 43.5834 136.654 43.6398 136.654 43.6973Z" fill="white"/>
<path d="M109.555 31.0318C109.413 30.6772 109.213 30.3694 108.951 30.1096C108.689 29.8497 108.384 29.6484 108.037 29.5068C107.689 29.3652 107.308 29.2938 106.894 29.2938C106.481 29.2938 106.096 29.3652 105.741 29.5068C105.385 29.6484 105.078 29.8518 104.821 30.116C104.563 30.3801 104.36 30.6868 104.212 31.0382C104.063 31.3886 103.989 31.7773 103.989 32.2022C103.989 32.6271 104.063 33.0062 104.212 33.3608C104.36 33.7155 104.563 34.0254 104.821 34.2895C105.078 34.5536 105.385 34.7559 105.741 34.8986C106.096 35.0403 106.481 35.1105 106.894 35.1105C107.308 35.1105 107.689 35.0403 108.037 34.8986C108.384 34.7559 108.687 34.5557 108.945 34.2948C109.203 34.0349 109.404 33.7272 109.548 33.3726C109.693 33.0179 109.765 32.6282 109.765 32.2022C109.765 31.7762 109.695 31.3864 109.555 31.0318ZM109.555 31.0318C109.413 30.6772 109.213 30.3694 108.951 30.1096C108.689 29.8497 108.384 29.6484 108.037 29.5068C107.689 29.3652 107.308 29.2938 106.894 29.2938C106.481 29.2938 106.096 29.3652 105.741 29.5068C105.385 29.6484 105.078 29.8518 104.821 30.116C104.563 30.3801 104.36 30.6868 104.212 31.0382C104.063 31.3886 103.989 31.7773 103.989 32.2022C103.989 32.6271 104.063 33.0062 104.212 33.3608C104.36 33.7155 104.563 34.0254 104.821 34.2895C105.078 34.5536 105.385 34.7559 105.741 34.8986C106.096 35.0403 106.481 35.1105 106.894 35.1105C107.308 35.1105 107.689 35.0403 108.037 34.8986C108.384 34.7559 108.687 34.5557 108.945 34.2948C109.203 34.0349 109.404 33.7272 109.548 33.3726C109.693 33.0179 109.765 32.6282 109.765 32.2022C109.765 31.7762 109.695 31.3864 109.555 31.0318ZM109.555 31.0318C109.413 30.6772 109.213 30.3694 108.951 30.1096C108.689 29.8497 108.384 29.6484 108.037 29.5068C107.689 29.3652 107.308 29.2938 106.894 29.2938C106.481 29.2938 106.096 29.3652 105.741 29.5068C105.385 29.6484 105.078 29.8518 104.821 30.116C104.563 30.3801 104.36 30.6868 104.212 31.0382C104.063 31.3886 103.989 31.7773 103.989 32.2022C103.989 32.6271 104.063 33.0062 104.212 33.3608C104.36 33.7155 104.563 34.0254 104.821 34.2895C105.078 34.5536 105.385 34.7559 105.741 34.8986C106.096 35.0403 106.481 35.1105 106.894 35.1105C107.308 35.1105 107.689 35.0403 108.037 34.8986C108.384 34.7559 108.687 34.5557 108.945 34.2948C109.203 34.0349 109.404 33.7272 109.548 33.3726C109.693 33.0179 109.765 32.6282 109.765 32.2022C109.765 31.7762 109.695 31.3864 109.555 31.0318ZM109.555 31.0318C109.413 30.6772 109.213 30.3694 108.951 30.1096C108.689 29.8497 108.384 29.6484 108.037 29.5068C107.689 29.3652 107.308 29.2938 106.894 29.2938C106.481 29.2938 106.096 29.3652 105.741 29.5068C105.385 29.6484 105.078 29.8518 104.821 30.116C104.563 30.3801 104.36 30.6868 104.212 31.0382C104.063 31.3886 103.989 31.7773 103.989 32.2022C103.989 32.6271 104.063 33.0062 104.212 33.3608C104.36 33.7155 104.563 34.0254 104.821 34.2895C105.078 34.5536 105.385 34.7559 105.741 34.8986C106.096 35.0403 106.481 35.1105 106.894 35.1105C107.308 35.1105 107.689 35.0403 108.037 34.8986C108.384 34.7559 108.687 34.5557 108.945 34.2948C109.203 34.0349 109.404 33.7272 109.548 33.3726C109.693 33.0179 109.765 32.6282 109.765 32.2022C109.765 31.7762 109.695 31.3864 109.555 31.0318ZM109.555 31.0318C109.413 30.6772 109.213 30.3694 108.951 30.1096C108.689 29.8497 108.384 29.6484 108.037 29.5068C107.689 29.3652 107.308 29.2938 106.894 29.2938C106.481 29.2938 106.096 29.3652 105.741 29.5068C105.385 29.6484 105.078 29.8518 104.821 30.116C104.563 30.3801 104.36 30.6868 104.212 31.0382C104.063 31.3886 103.989 31.7773 103.989 32.2022C103.989 32.6271 104.063 33.0062 104.212 33.3608C104.36 33.7155 104.563 34.0254 104.821 34.2895C105.078 34.5536 105.385 34.7559 105.741 34.8986C106.096 35.0403 106.481 35.1105 106.894 35.1105C107.308 35.1105 107.689 35.0403 108.037 34.8986C108.384 34.7559 108.687 34.5557 108.945 34.2948C109.203 34.0349 109.404 33.7272 109.548 33.3726C109.693 33.0179 109.765 32.6282 109.765 32.2022C109.765 31.7762 109.695 31.3864 109.555 31.0318ZM109.555 31.0318C109.413 30.6772 109.213 30.3694 108.951 30.1096C108.689 29.8497 108.384 29.6484 108.037 29.5068C107.689 29.3652 107.308 29.2938 106.894 29.2938C106.481 29.2938 106.096 29.3652 105.741 29.5068C105.385 29.6484 105.078 29.8518 104.821 30.116C104.563 30.3801 104.36 30.6868 104.212 31.0382C104.063 31.3886 103.989 31.7773 103.989 32.2022C103.989 32.6271 104.063 33.0062 104.212 33.3608C104.36 33.7155 104.563 34.0254 104.821 34.2895C105.078 34.5536 105.385 34.7559 105.741 34.8986C106.096 35.0403 106.481 35.1105 106.894 35.1105C107.308 35.1105 107.689 35.0403 108.037 34.8986C108.384 34.7559 108.687 34.5557 108.945 34.2948C109.203 34.0349 109.404 33.7272 109.548 33.3726C109.693 33.0179 109.765 32.6282 109.765 32.2022C109.765 31.7762 109.695 31.3864 109.555 31.0318ZM109.555 31.0318C109.413 30.6772 109.213 30.3694 108.951 30.1096C108.689 29.8497 108.384 29.6484 108.037 29.5068C107.689 29.3652 107.308 29.2938 106.894 29.2938C106.481 29.2938 106.096 29.3652 105.741 29.5068C105.385 29.6484 105.078 29.8518 104.821 30.116C104.563 30.3801 104.36 30.6868 104.212 31.0382C104.063 31.3886 103.989 31.7773 103.989 32.2022C103.989 32.6271 104.063 33.0062 104.212 33.3608C104.36 33.7155 104.563 34.0254 104.821 34.2895C105.078 34.5536 105.385 34.7559 105.741 34.8986C106.096 35.0403 106.481 35.1105 106.894 35.1105C107.308 35.1105 107.689 35.0403 108.037 34.8986C108.384 34.7559 108.687 34.5557 108.945 34.2948C109.203 34.0349 109.404 33.7272 109.548 33.3726C109.693 33.0179 109.765 32.6282 109.765 32.2022C109.765 31.7762 109.695 31.3864 109.555 31.0318ZM109.555 31.0318C109.413 30.6772 109.213 30.3694 108.951 30.1096C108.689 29.8497 108.384 29.6484 108.037 29.5068C107.689 29.3652 107.308 29.2938 106.894 29.2938C106.481 29.2938 106.096 29.3652 105.741 29.5068C105.385 29.6484 105.078 29.8518 104.821 30.116C104.563 30.3801 104.36 30.6868 104.212 31.0382C104.063 31.3886 103.989 31.7773 103.989 32.2022C103.989 32.6271 104.063 33.0062 104.212 33.3608C104.36 33.7155 104.563 34.0254 104.821 34.2895C105.078 34.5536 105.385 34.7559 105.741 34.8986C106.096 35.0403 106.481 35.1105 106.894 35.1105C107.308 35.1105 107.689 35.0403 108.037 34.8986C108.384 34.7559 108.687 34.5557 108.945 34.2948C109.203 34.0349 109.404 33.7272 109.548 33.3726C109.693 33.0179 109.765 32.6282 109.765 32.2022C109.765 31.7762 109.695 31.3864 109.555 31.0318ZM109.555 31.0318C109.413 30.6772 109.213 30.3694 108.951 30.1096C108.689 29.8497 108.384 29.6484 108.037 29.5068C107.689 29.3652 107.308 29.2938 106.894 29.2938C106.481 29.2938 106.096 29.3652 105.741 29.5068C105.385 29.6484 105.078 29.8518 104.821 30.116C104.563 30.3801 104.36 30.6868 104.212 31.0382C104.063 31.3886 103.989 31.7773 103.989 32.2022C103.989 32.6271 104.063 33.0062 104.212 33.3608C104.36 33.7155 104.563 34.0254 104.821 34.2895C105.078 34.5536 105.385 34.7559 105.741 34.8986C106.096 35.0403 106.481 35.1105 106.894 35.1105C107.308 35.1105 107.689 35.0403 108.037 34.8986C108.384 34.7559 108.687 34.5557 108.945 34.2948C109.203 34.0349 109.404 33.7272 109.548 33.3726C109.693 33.0179 109.765 32.6282 109.765 32.2022C109.765 31.7762 109.695 31.3864 109.555 31.0318ZM109.555 31.0318C109.413 30.6772 109.213 30.3694 108.951 30.1096C108.689 29.8497 108.384 29.6484 108.037 29.5068C107.689 29.3652 107.308 29.2938 106.894 29.2938C106.481 29.2938 106.096 29.3652 105.741 29.5068C105.385 29.6484 105.078 29.8518 104.821 30.116C104.563 30.3801 104.36 30.6868 104.212 31.0382C104.063 31.3886 103.989 31.7773 103.989 32.2022C103.989 32.6271 104.063 33.0062 104.212 33.3608C104.36 33.7155 104.563 34.0254 104.821 34.2895C105.078 34.5536 105.385 34.7559 105.741 34.8986C106.096 35.0403 106.481 35.1105 106.894 35.1105C107.308 35.1105 107.689 35.0403 108.037 34.8986C108.384 34.7559 108.687 34.5557 108.945 34.2948C109.203 34.0349 109.404 33.7272 109.548 33.3726C109.693 33.0179 109.765 32.6282 109.765 32.2022C109.765 31.7762 109.695 31.3864 109.555 31.0318ZM109.555 31.0318C109.413 30.6772 109.213 30.3694 108.951 30.1096C108.689 29.8497 108.384 29.6484 108.037 29.5068C107.689 29.3652 107.308 29.2938 106.894 29.2938C106.481 29.2938 106.096 29.3652 105.741 29.5068C105.385 29.6484 105.078 29.8518 104.821 30.116C104.563 30.3801 104.36 30.6868 104.212 31.0382C104.063 31.3886 103.989 31.7773 103.989 32.2022C103.989 32.6271 104.063 33.0062 104.212 33.3608C104.36 33.7155 104.563 34.0254 104.821 34.2895C105.078 34.5536 105.385 34.7559 105.741 34.8986C106.096 35.0403 106.481 35.1105 106.894 35.1105C107.308 35.1105 107.689 35.0403 108.037 34.8986C108.384 34.7559 108.687 34.5557 108.945 34.2948C109.203 34.0349 109.404 33.7272 109.548 33.3726C109.693 33.0179 109.765 32.6282 109.765 32.2022C109.765 31.7762 109.695 31.3864 109.555 31.0318ZM109.555 31.0318C109.413 30.6772 109.213 30.3694 108.951 30.1096C108.689 29.8497 108.384 29.6484 108.037 29.5068C107.689 29.3652 107.308 29.2938 106.894 29.2938C106.481 29.2938 106.096 29.3652 105.741 29.5068C105.385 29.6484 105.078 29.8518 104.821 30.116C104.563 30.3801 104.36 30.6868 104.212 31.0382C104.063 31.3886 103.989 31.7773 103.989 32.2022C103.989 32.6271 104.063 33.0062 104.212 33.3608C104.36 33.7155 104.563 34.0254 104.821 34.2895C105.078 34.5536 105.385 34.7559 105.741 34.8986C106.096 35.0403 106.481 35.1105 106.894 35.1105C107.308 35.1105 107.689 35.0403 108.037 34.8986C108.384 34.7559 108.687 34.5557 108.945 34.2948C109.203 34.0349 109.404 33.7272 109.548 33.3726C109.693 33.0179 109.765 32.6282 109.765 32.2022C109.765 31.7762 109.695 31.3864 109.555 31.0318ZM109.555 31.0318C109.413 30.6772 109.213 30.3694 108.951 30.1096C108.689 29.8497 108.384 29.6484 108.037 29.5068C107.689 29.3652 107.308 29.2938 106.894 29.2938C106.481 29.2938 106.096 29.3652 105.741 29.5068C105.385 29.6484 105.078 29.8518 104.821 30.116C104.563 30.3801 104.36 30.6868 104.212 31.0382C104.063 31.3886 103.989 31.7773 103.989 32.2022C103.989 32.6271 104.063 33.0062 104.212 33.3608C104.36 33.7155 104.563 34.0254 104.821 34.2895C105.078 34.5536 105.385 34.7559 105.741 34.8986C106.096 35.0403 106.481 35.1105 106.894 35.1105C107.308 35.1105 107.689 35.0403 108.037 34.8986C108.384 34.7559 108.687 34.5557 108.945 34.2948C109.203 34.0349 109.404 33.7272 109.548 33.3726C109.693 33.0179 109.765 32.6282 109.765 32.2022C109.765 31.7762 109.695 31.3864 109.555 31.0318ZM109.555 31.0318C109.413 30.6772 109.213 30.3694 108.951 30.1096C108.689 29.8497 108.384 29.6484 108.037 29.5068C107.689 29.3652 107.308 29.2938 106.894 29.2938C106.481 29.2938 106.096 29.3652 105.741 29.5068C105.385 29.6484 105.078 29.8518 104.821 30.116C104.563 30.3801 104.36 30.6868 104.212 31.0382C104.063 31.3886 103.989 31.7773 103.989 32.2022C103.989 32.6271 104.063 33.0062 104.212 33.3608C104.36 33.7155 104.563 34.0254 104.821 34.2895C105.078 34.5536 105.385 34.7559 105.741 34.8986C106.096 35.0403 106.481 35.1105 106.894 35.1105C107.308 35.1105 107.689 35.0403 108.037 34.8986C108.384 34.7559 108.687 34.5557 108.945 34.2948C109.203 34.0349 109.404 33.7272 109.548 33.3726C109.693 33.0179 109.765 32.6282 109.765 32.2022C109.765 31.7762 109.695 31.3864 109.555 31.0318ZM109.555 31.0318C109.413 30.6772 109.213 30.3694 108.951 30.1096C108.689 29.8497 108.384 29.6484 108.037 29.5068C107.689 29.3652 107.308 29.2938 106.894 29.2938C106.481 29.2938 106.096 29.3652 105.741 29.5068C105.385 29.6484 105.078 29.8518 104.821 30.116C104.563 30.3801 104.36 30.6868 104.212 31.0382C104.063 31.3886 103.989 31.7773 103.989 32.2022C103.989 32.6271 104.063 33.0062 104.212 33.3608C104.36 33.7155 104.563 34.0254 104.821 34.2895C105.078 34.5536 105.385 34.7559 105.741 34.8986C106.096 35.0403 106.481 35.1105 106.894 35.1105C107.308 35.1105 107.689 35.0403 108.037 34.8986C108.384 34.7559 108.687 34.5557 108.945 34.2948C109.203 34.0349 109.404 33.7272 109.548 33.3726C109.693 33.0179 109.765 32.6282 109.765 32.2022C109.765 31.7762 109.695 31.3864 109.555 31.0318ZM109.555 31.0318C109.413 30.6772 109.213 30.3694 108.951 30.1096C108.689 29.8497 108.384 29.6484 108.037 29.5068C107.689 29.3652 107.308 29.2938 106.894 29.2938C106.481 29.2938 106.096 29.3652 105.741 29.5068C105.385 29.6484 105.078 29.8518 104.821 30.116C104.563 30.3801 104.36 30.6868 104.212 31.0382C104.063 31.3886 103.989 31.7773 103.989 32.2022C103.989 32.6271 104.063 33.0062 104.212 33.3608C104.36 33.7155 104.563 34.0254 104.821 34.2895C105.078 34.5536 105.385 34.7559 105.741 34.8986C106.096 35.0403 106.481 35.1105 106.894 35.1105C107.308 35.1105 107.689 35.0403 108.037 34.8986C108.384 34.7559 108.687 34.5557 108.945 34.2948C109.203 34.0349 109.404 33.7272 109.548 33.3726C109.693 33.0179 109.765 32.6282 109.765 32.2022C109.765 31.7762 109.695 31.3864 109.555 31.0318ZM109.555 31.0318C109.413 30.6772 109.213 30.3694 108.951 30.1096C108.689 29.8497 108.384 29.6484 108.037 29.5068C107.689 29.3652 107.308 29.2938 106.894 29.2938C106.481 29.2938 106.096 29.3652 105.741 29.5068C105.385 29.6484 105.078 29.8518 104.821 30.116C104.563 30.3801 104.36 30.6868 104.212 31.0382C104.063 31.3886 103.989 31.7773 103.989 32.2022C103.989 32.6271 104.063 33.0062 104.212 33.3608C104.36 33.7155 104.563 34.0254 104.821 34.2895C105.078 34.5536 105.385 34.7559 105.741 34.8986C106.096 35.0403 106.481 35.1105 106.894 35.1105C107.308 35.1105 107.689 35.0403 108.037 34.8986C108.384 34.7559 108.687 34.5557 108.945 34.2948C109.203 34.0349 109.404 33.7272 109.548 33.3726C109.693 33.0179 109.765 32.6282 109.765 32.2022C109.765 31.7762 109.695 31.3864 109.555 31.0318ZM109.555 31.0318C109.413 30.6772 109.213 30.3694 108.951 30.1096C108.689 29.8497 108.384 29.6484 108.037 29.5068C107.689 29.3652 107.308 29.2938 106.894 29.2938C106.481 29.2938 106.096 29.3652 105.741 29.5068C105.385 29.6484 105.078 29.8518 104.821 30.116C104.563 30.3801 104.36 30.6868 104.212 31.0382C104.063 31.3886 103.989 31.7773 103.989 32.2022C103.989 32.6271 104.063 33.0062 104.212 33.3608C104.36 33.7155 104.563 34.0254 104.821 34.2895C105.078 34.5536 105.385 34.7559 105.741 34.8986C106.096 35.0403 106.481 35.1105 106.894 35.1105C107.308 35.1105 107.689 35.0403 108.037 34.8986C108.384 34.7559 108.687 34.5557 108.945 34.2948C109.203 34.0349 109.404 33.7272 109.548 33.3726C109.693 33.0179 109.765 32.6282 109.765 32.2022C109.765 31.7762 109.695 31.3864 109.555 31.0318ZM109.555 31.0318C109.413 30.6772 109.213 30.3694 108.951 30.1096C108.689 29.8497 108.384 29.6484 108.037 29.5068C107.689 29.3652 107.308 29.2938 106.894 29.2938C106.481 29.2938 106.096 29.3652 105.741 29.5068C105.385 29.6484 105.078 29.8518 104.821 30.116C104.563 30.3801 104.36 30.6868 104.212 31.0382C104.063 31.3886 103.989 31.7773 103.989 32.2022C103.989 32.6271 104.063 33.0062 104.212 33.3608C104.36 33.7155 104.563 34.0254 104.821 34.2895C105.078 34.5536 105.385 34.7559 105.741 34.8986C106.096 35.0403 106.481 35.1105 106.894 35.1105C107.308 35.1105 107.689 35.0403 108.037 34.8986C108.384 34.7559 108.687 34.5557 108.945 34.2948C109.203 34.0349 109.404 33.7272 109.548 33.3726C109.693 33.0179 109.765 32.6282 109.765 32.2022C109.765 31.7762 109.695 31.3864 109.555 31.0318ZM109.555 31.0318C109.413 30.6772 109.213 30.3694 108.951 30.1096C108.689 29.8497 108.384 29.6484 108.037 29.5068C107.689 29.3652 107.308 29.2938 106.894 29.2938C106.481 29.2938 106.096 29.3652 105.741 29.5068C105.385 29.6484 105.078 29.8518 104.821 30.116C104.563 30.3801 104.36 30.6868 104.212 31.0382C104.063 31.3886 103.989 31.7773 103.989 32.2022C103.989 32.6271 104.063 33.0062 104.212 33.3608C104.36 33.7155 104.563 34.0254 104.821 34.2895C105.078 34.5536 105.385 34.7559 105.741 34.8986C106.096 35.0403 106.481 35.1105 106.894 35.1105C107.308 35.1105 107.689 35.0403 108.037 34.8986C108.384 34.7559 108.687 34.5557 108.945 34.2948C109.203 34.0349 109.404 33.7272 109.548 33.3726C109.693 33.0179 109.765 32.6282 109.765 32.2022C109.765 31.7762 109.695 31.3864 109.555 31.0318ZM109.555 31.0318C109.413 30.6772 109.213 30.3694 108.951 30.1096C108.689 29.8497 108.384 29.6484 108.037 29.5068C107.689 29.3652 107.308 29.2938 106.894 29.2938C106.481 29.2938 106.096 29.3652 105.741 29.5068C105.385 29.6484 105.078 29.8518 104.821 30.116C104.563 30.3801 104.36 30.6868 104.212 31.0382C104.063 31.3886 103.989 31.7773 103.989 32.2022C103.989 32.6271 104.063 33.0062 104.212 33.3608C104.36 33.7155 104.563 34.0254 104.821 34.2895C105.078 34.5536 105.385 34.7559 105.741 34.8986C106.096 35.0403 106.481 35.1105 106.894 35.1105C107.308 35.1105 107.689 35.0403 108.037 34.8986C108.384 34.7559 108.687 34.5557 108.945 34.2948C109.203 34.0349 109.404 33.7272 109.548 33.3726C109.693 33.0179 109.765 32.6282 109.765 32.2022C109.765 31.7762 109.695 31.3864 109.555 31.0318ZM109.555 31.0318C109.413 30.6772 109.213 30.3694 108.951 30.1096C108.689 29.8497 108.384 29.6484 108.037 29.5068C107.689 29.3652 107.308 29.2938 106.894 29.2938C106.481 29.2938 106.096 29.3652 105.741 29.5068C105.385 29.6484 105.078 29.8518 104.821 30.116C104.563 30.3801 104.36 30.6868 104.212 31.0382C104.063 31.3886 103.989 31.7773 103.989 32.2022C103.989 32.6271 104.063 33.0062 104.212 33.3608C104.36 33.7155 104.563 34.0254 104.821 34.2895C105.078 34.5536 105.385 34.7559 105.741 34.8986C106.096 35.0403 106.481 35.1105 106.894 35.1105C107.308 35.1105 107.689 35.0403 108.037 34.8986C108.384 34.7559 108.687 34.5557 108.945 34.2948C109.203 34.0349 109.404 33.7272 109.548 33.3726C109.693 33.0179 109.765 32.6282 109.765 32.2022C109.765 31.7762 109.695 31.3864 109.555 31.0318ZM109.555 31.0318C109.413 30.6772 109.213 30.3694 108.951 30.1096C108.689 29.8497 108.384 29.6484 108.037 29.5068C107.689 29.3652 107.308 29.2938 106.894 29.2938C106.481 29.2938 106.096 29.3652 105.741 29.5068C105.385 29.6484 105.078 29.8518 104.821 30.116C104.563 30.3801 104.36 30.6868 104.212 31.0382C104.063 31.3886 103.989 31.7773 103.989 32.2022C103.989 32.6271 104.063 33.0062 104.212 33.3608C104.36 33.7155 104.563 34.0254 104.821 34.2895C105.078 34.5536 105.385 34.7559 105.741 34.8986C106.096 35.0403 106.481 35.1105 106.894 35.1105C107.308 35.1105 107.689 35.0403 108.037 34.8986C108.384 34.7559 108.687 34.5557 108.945 34.2948C109.203 34.0349 109.404 33.7272 109.548 33.3726C109.693 33.0179 109.765 32.6282 109.765 32.2022C109.765 31.7762 109.695 31.3864 109.555 31.0318ZM109.555 31.0318C109.413 30.6772 109.213 30.3694 108.951 30.1096C108.689 29.8497 108.384 29.6484 108.037 29.5068C107.689 29.3652 107.308 29.2938 106.894 29.2938C106.481 29.2938 106.096 29.3652 105.741 29.5068C105.385 29.6484 105.078 29.8518 104.821 30.116C104.563 30.3801 104.36 30.6868 104.212 31.0382C104.063 31.3886 103.989 31.7773 103.989 32.2022C103.989 32.6271 104.063 33.0062 104.212 33.3608C104.36 33.7155 104.563 34.0254 104.821 34.2895C105.078 34.5536 105.385 34.7559 105.741 34.8986C106.096 35.0403 106.481 35.1105 106.894 35.1105C107.308 35.1105 107.689 35.0403 108.037 34.8986C108.384 34.7559 108.687 34.5557 108.945 34.2948C109.203 34.0349 109.404 33.7272 109.548 33.3726C109.693 33.0179 109.765 32.6282 109.765 32.2022C109.765 31.7762 109.695 31.3864 109.555 31.0318ZM109.555 31.0318C109.413 30.6772 109.213 30.3694 108.951 30.1096C108.689 29.8497 108.384 29.6484 108.037 29.5068C107.689 29.3652 107.308 29.2938 106.894 29.2938C106.481 29.2938 106.096 29.3652 105.741 29.5068C105.385 29.6484 105.078 29.8518 104.821 30.116C104.563 30.3801 104.36 30.6868 104.212 31.0382C104.063 31.3886 103.989 31.7773 103.989 32.2022C103.989 32.6271 104.063 33.0062 104.212 33.3608C104.36 33.7155 104.563 34.0254 104.821 34.2895C105.078 34.5536 105.385 34.7559 105.741 34.8986C106.096 35.0403 106.481 35.1105 106.894 35.1105C107.308 35.1105 107.689 35.0403 108.037 34.8986C108.384 34.7559 108.687 34.5557 108.945 34.2948C109.203 34.0349 109.404 33.7272 109.548 33.3726C109.693 33.0179 109.765 32.6282 109.765 32.2022C109.765 31.7762 109.695 31.3864 109.555 31.0318ZM109.555 31.0318C109.413 30.6772 109.213 30.3694 108.951 30.1096C108.689 29.8497 108.384 29.6484 108.037 29.5068C107.689 29.3652 107.308 29.2938 106.894 29.2938C106.481 29.2938 106.096 29.3652 105.741 29.5068C105.385 29.6484 105.078 29.8518 104.821 30.116C104.563 30.3801 104.36 30.6868 104.212 31.0382C104.063 31.3886 103.989 31.7773 103.989 32.2022C103.989 32.6271 104.063 33.0062 104.212 33.3608C104.36 33.7155 104.563 34.0254 104.821 34.2895C105.078 34.5536 105.385 34.7559 105.741 34.8986C106.096 35.0403 106.481 35.1105 106.894 35.1105C107.308 35.1105 107.689 35.0403 108.037 34.8986C108.384 34.7559 108.687 34.5557 108.945 34.2948C109.203 34.0349 109.404 33.7272 109.548 33.3726C109.693 33.0179 109.765 32.6282 109.765 32.2022C109.765 31.7762 109.695 31.3864 109.555 31.0318ZM109.555 31.0318C109.413 30.6772 109.213 30.3694 108.951 30.1096C108.689 29.8497 108.384 29.6484 108.037 29.5068C107.689 29.3652 107.308 29.2938 106.894 29.2938C106.481 29.2938 106.096 29.3652 105.741 29.5068C105.385 29.6484 105.078 29.8518 104.821 30.116C104.563 30.3801 104.36 30.6868 104.212 31.0382C104.063 31.3886 103.989 31.7773 103.989 32.2022C103.989 32.6271 104.063 33.0062 104.212 33.3608C104.36 33.7155 104.563 34.0254 104.821 34.2895C105.078 34.5536 105.385 34.7559 105.741 34.8986C106.096 35.0403 106.481 35.1105 106.894 35.1105C107.308 35.1105 107.689 35.0403 108.037 34.8986C108.384 34.7559 108.687 34.5557 108.945 34.2948C109.203 34.0349 109.404 33.7272 109.548 33.3726C109.693 33.0179 109.765 32.6282 109.765 32.2022C109.765 31.7762 109.695 31.3864 109.555 31.0318ZM109.555 31.0318C109.413 30.6772 109.213 30.3694 108.951 30.1096C108.689 29.8497 108.384 29.6484 108.037 29.5068C107.689 29.3652 107.308 29.2938 106.894 29.2938C106.481 29.2938 106.096 29.3652 105.741 29.5068C105.385 29.6484 105.078 29.8518 104.821 30.116C104.563 30.3801 104.36 30.6868 104.212 31.0382C104.063 31.3886 103.989 31.7773 103.989 32.2022C103.989 32.6271 104.063 33.0062 104.212 33.3608C104.36 33.7155 104.563 34.0254 104.821 34.2895C105.078 34.5536 105.385 34.7559 105.741 34.8986C106.096 35.0403 106.481 35.1105 106.894 35.1105C107.308 35.1105 107.689 35.0403 108.037 34.8986C108.384 34.7559 108.687 34.5557 108.945 34.2948C109.203 34.0349 109.404 33.7272 109.548 33.3726C109.693 33.0179 109.765 32.6282 109.765 32.2022C109.765 31.7762 109.695 31.3864 109.555 31.0318ZM109.555 31.0318C109.413 30.6772 109.213 30.3694 108.951 30.1096C108.689 29.8497 108.384 29.6484 108.037 29.5068C107.689 29.3652 107.308 29.2938 106.894 29.2938C106.481 29.2938 106.096 29.3652 105.741 29.5068C105.385 29.6484 105.078 29.8518 104.821 30.116C104.563 30.3801 104.36 30.6868 104.212 31.0382C104.063 31.3886 103.989 31.7773 103.989 32.2022C103.989 32.6271 104.063 33.0062 104.212 33.3608C104.36 33.7155 104.563 34.0254 104.821 34.2895C105.078 34.5536 105.385 34.7559 105.741 34.8986C106.096 35.0403 106.481 35.1105 106.894 35.1105C107.308 35.1105 107.689 35.0403 108.037 34.8986C108.384 34.7559 108.687 34.5557 108.945 34.2948C109.203 34.0349 109.404 33.7272 109.548 33.3726C109.693 33.0179 109.765 32.6282 109.765 32.2022C109.765 31.7762 109.695 31.3864 109.555 31.0318ZM109.555 31.0318C109.413 30.6772 109.213 30.3694 108.951 30.1096C108.689 29.8497 108.384 29.6484 108.037 29.5068C107.689 29.3652 107.308 29.2938 106.894 29.2938C106.481 29.2938 106.096 29.3652 105.741 29.5068C105.385 29.6484 105.078 29.8518 104.821 30.116C104.563 30.3801 104.36 30.6868 104.212 31.0382C104.063 31.3886 103.989 31.7773 103.989 32.2022C103.989 32.6271 104.063 33.0062 104.212 33.3608C104.36 33.7155 104.563 34.0254 104.821 34.2895C105.078 34.5536 105.385 34.7559 105.741 34.8986C106.096 35.0403 106.481 35.1105 106.894 35.1105C107.308 35.1105 107.689 35.0403 108.037 34.8986C108.384 34.7559 108.687 34.5557 108.945 34.2948C109.203 34.0349 109.404 33.7272 109.548 33.3726C109.693 33.0179 109.765 32.6282 109.765 32.2022C109.765 31.7762 109.695 31.3864 109.555 31.0318ZM109.555 31.0318C109.413 30.6772 109.213 30.3694 108.951 30.1096C108.689 29.8497 108.384 29.6484 108.037 29.5068C107.689 29.3652 107.308 29.2938 106.894 29.2938C106.481 29.2938 106.096 29.3652 105.741 29.5068C105.385 29.6484 105.078 29.8518 104.821 30.116C104.563 30.3801 104.36 30.6868 104.212 31.0382C104.063 31.3886 103.989 31.7773 103.989 32.2022C103.989 32.6271 104.063 33.0062 104.212 33.3608C104.36 33.7155 104.563 34.0254 104.821 34.2895C105.078 34.5536 105.385 34.7559 105.741 34.8986C106.096 35.0403 106.481 35.1105 106.894 35.1105C107.308 35.1105 107.689 35.0403 108.037 34.8986C108.384 34.7559 108.687 34.5557 108.945 34.2948C109.203 34.0349 109.404 33.7272 109.548 33.3726C109.693 33.0179 109.765 32.6282 109.765 32.2022C109.765 31.7762 109.695 31.3864 109.555 31.0318ZM109.555 31.0318C109.413 30.6772 109.213 30.3694 108.951 30.1096C108.689 29.8497 108.384 29.6484 108.037 29.5068C107.689 29.3652 107.308 29.2938 106.894 29.2938C106.481 29.2938 106.096 29.3652 105.741 29.5068C105.385 29.6484 105.078 29.8518 104.821 30.116C104.563 30.3801 104.36 30.6868 104.212 31.0382C104.063 31.3886 103.989 31.7773 103.989 32.2022C103.989 32.6271 104.063 33.0062 104.212 33.3608C104.36 33.7155 104.563 34.0254 104.821 34.2895C105.078 34.5536 105.385 34.7559 105.741 34.8986C106.096 35.0403 106.481 35.1105 106.894 35.1105C107.308 35.1105 107.689 35.0403 108.037 34.8986C108.384 34.7559 108.687 34.5557 108.945 34.2948C109.203 34.0349 109.404 33.7272 109.548 33.3726C109.693 33.0179 109.765 32.6282 109.765 32.2022C109.765 31.7762 109.695 31.3864 109.555 31.0318ZM109.555 31.0318C109.413 30.6772 109.213 30.3694 108.951 30.1096C108.689 29.8497 108.384 29.6484 108.037 29.5068C107.689 29.3652 107.308 29.2938 106.894 29.2938C106.481 29.2938 106.096 29.3652 105.741 29.5068C105.385 29.6484 105.078 29.8518 104.821 30.116C104.563 30.3801 104.36 30.6868 104.212 31.0382C104.063 31.3886 103.989 31.7773 103.989 32.2022C103.989 32.6271 104.063 33.0062 104.212 33.3608C104.36 33.7155 104.563 34.0254 104.821 34.2895C105.078 34.5536 105.385 34.7559 105.741 34.8986C106.096 35.0403 106.481 35.1105 106.894 35.1105C107.308 35.1105 107.689 35.0403 108.037 34.8986C108.384 34.7559 108.687 34.5557 108.945 34.2948C109.203 34.0349 109.404 33.7272 109.548 33.3726C109.693 33.0179 109.765 32.6282 109.765 32.2022C109.765 31.7762 109.695 31.3864 109.555 31.0318ZM109.555 31.0318C109.413 30.6772 109.213 30.3694 108.951 30.1096C108.689 29.8497 108.384 29.6484 108.037 29.5068C107.689 29.3652 107.308 29.2938 106.894 29.2938C106.481 29.2938 106.096 29.3652 105.741 29.5068C105.385 29.6484 105.078 29.8518 104.821 30.116C104.563 30.3801 104.36 30.6868 104.212 31.0382C104.063 31.3886 103.989 31.7773 103.989 32.2022C103.989 32.6271 104.063 33.0062 104.212 33.3608C104.36 33.7155 104.563 34.0254 104.821 34.2895C105.078 34.5536 105.385 34.7559 105.741 34.8986C106.096 35.0403 106.481 35.1105 106.894 35.1105C107.308 35.1105 107.689 35.0403 108.037 34.8986C108.384 34.7559 108.687 34.5557 108.945 34.2948C109.203 34.0349 109.404 33.7272 109.548 33.3726C109.693 33.0179 109.765 32.6282 109.765 32.2022C109.765 31.7762 109.695 31.3864 109.555 31.0318ZM109.555 31.0318C109.413 30.6772 109.213 30.3694 108.951 30.1096C108.689 29.8497 108.384 29.6484 108.037 29.5068C107.689 29.3652 107.308 29.2938 106.894 29.2938C106.481 29.2938 106.096 29.3652 105.741 29.5068C105.385 29.6484 105.078 29.8518 104.821 30.116C104.563 30.3801 104.36 30.6868 104.212 31.0382C104.063 31.3886 103.989 31.7773 103.989 32.2022C103.989 32.6271 104.063 33.0062 104.212 33.3608C104.36 33.7155 104.563 34.0254 104.821 34.2895C105.078 34.5536 105.385 34.7559 105.741 34.8986C106.096 35.0403 106.481 35.1105 106.894 35.1105C107.308 35.1105 107.689 35.0403 108.037 34.8986C108.384 34.7559 108.687 34.5557 108.945 34.2948C109.203 34.0349 109.404 33.7272 109.548 33.3726C109.693 33.0179 109.765 32.6282 109.765 32.2022C109.765 31.7762 109.695 31.3864 109.555 31.0318ZM109.555 31.0318C109.413 30.6772 109.213 30.3694 108.951 30.1096C108.689 29.8497 108.384 29.6484 108.037 29.5068C107.689 29.3652 107.308 29.2938 106.894 29.2938C106.481 29.2938 106.096 29.3652 105.741 29.5068C105.385 29.6484 105.078 29.8518 104.821 30.116C104.563 30.3801 104.36 30.6868 104.212 31.0382C104.063 31.3886 103.989 31.7773 103.989 32.2022C103.989 32.6271 104.063 33.0062 104.212 33.3608C104.36 33.7155 104.563 34.0254 104.821 34.2895C105.078 34.5536 105.385 34.7559 105.741 34.8986C106.096 35.0403 106.481 35.1105 106.894 35.1105C107.308 35.1105 107.689 35.0403 108.037 34.8986C108.384 34.7559 108.687 34.5557 108.945 34.2948C109.203 34.0349 109.404 33.7272 109.548 33.3726C109.693 33.0179 109.765 32.6282 109.765 32.2022C109.765 31.7762 109.695 31.3864 109.555 31.0318ZM109.555 31.0318C109.413 30.6772 109.213 30.3694 108.951 30.1096C108.689 29.8497 108.384 29.6484 108.037 29.5068C107.689 29.3652 107.308 29.2938 106.894 29.2938C106.481 29.2938 106.096 29.3652 105.741 29.5068C105.385 29.6484 105.078 29.8518 104.821 30.116C104.563 30.3801 104.36 30.6868 104.212 31.0382C104.063 31.3886 103.989 31.7773 103.989 32.2022C103.989 32.6271 104.063 33.0062 104.212 33.3608C104.36 33.7155 104.563 34.0254 104.821 34.2895C105.078 34.5536 105.385 34.7559 105.741 34.8986C106.096 35.0403 106.481 35.1105 106.894 35.1105C107.308 35.1105 107.689 35.0403 108.037 34.8986C108.384 34.7559 108.687 34.5557 108.945 34.2948C109.203 34.0349 109.404 33.7272 109.548 33.3726C109.693 33.0179 109.765 32.6282 109.765 32.2022C109.765 31.7762 109.695 31.3864 109.555 31.0318ZM109.555 31.0318C109.413 30.6772 109.213 30.3694 108.951 30.1096C108.689 29.8497 108.384 29.6484 108.037 29.5068C107.689 29.3652 107.308 29.2938 106.894 29.2938C106.481 29.2938 106.096 29.3652 105.741 29.5068C105.385 29.6484 105.078 29.8518 104.821 30.116C104.563 30.3801 104.36 30.6868 104.212 31.0382C104.063 31.3886 103.989 31.7773 103.989 32.2022C103.989 32.6271 104.063 33.0062 104.212 33.3608C104.36 33.7155 104.563 34.0254 104.821 34.2895C105.078 34.5536 105.385 34.7559 105.741 34.8986C106.096 35.0403 106.481 35.1105 106.894 35.1105C107.308 35.1105 107.689 35.0403 108.037 34.8986C108.384 34.7559 108.687 34.5557 108.945 34.2948C109.203 34.0349 109.404 33.7272 109.548 33.3726C109.693 33.0179 109.765 32.6282 109.765 32.2022C109.765 31.7762 109.695 31.3864 109.555 31.0318ZM134.652 22.0352H93.1362C87.7735 22.0352 83.4102 26.9318 83.4102 32.9508C83.4102 38.0753 86.5727 42.3862 90.8221 43.5545C90.8295 43.5566 90.8379 43.5587 90.8453 43.5609V43.5268C90.8464 43.3383 90.8633 43.1541 90.8949 42.9762C91.1524 41.48 92.4102 40.3841 93.954 40.2798C93.9825 40.2766 94.011 40.2755 94.0406 40.2745C94.049 40.2745 94.0574 40.2745 94.0659 40.2745C94.1049 40.2723 94.145 40.2713 94.1851 40.2713H133.602C133.642 40.2713 133.683 40.2713 133.724 40.2745C133.731 40.2745 133.739 40.2745 133.748 40.2745C133.768 40.2745 133.788 40.2745 133.808 40.2776C133.823 40.2776 133.836 40.2776 133.851 40.2819C135.088 40.3756 136.138 41.136 136.634 42.2137C136.646 42.2382 136.657 42.2627 136.669 42.2883C136.832 42.6684 136.928 43.0859 136.94 43.5268C136.941 43.5385 136.941 43.5502 136.941 43.5619C136.949 43.5598 136.958 43.5577 136.966 43.5545C141.216 42.3873 144.378 38.0753 144.378 32.9508C144.378 26.9318 140.015 22.0352 134.652 22.0352ZM129.788 28.0638L132.211 32.0925L134.626 28.0638H136.125L132.904 33.4333V36.3405H131.393V33.4162L128.171 28.0638H129.788ZM121.844 28.0638H127.831V29.3652H123.368V31.5046H127.327V32.7698H123.368V35.0403H127.995V36.3405H121.844V28.0638ZM112.635 28.0638H113.889L118.411 33.6782V28.0638H119.911V36.3405H118.657L114.147 30.7283V36.3405H112.635V28.0638ZM102.794 30.5057C103.012 29.9892 103.321 29.5398 103.719 29.1575C104.118 28.7752 104.587 28.4781 105.126 28.2651C105.664 28.0521 106.254 27.9456 106.894 27.9456C107.535 27.9456 108.113 28.05 108.652 28.2587C109.191 28.4685 109.658 28.7635 110.052 29.1458C110.446 29.5281 110.753 29.9796 110.972 30.4993C111.19 31.0201 111.3 31.5877 111.3 32.2022C111.3 32.8166 111.19 33.3832 110.972 33.8986C110.753 34.4151 110.446 34.8667 110.052 35.2532C109.658 35.6388 109.191 35.9369 108.652 36.1457C108.113 36.3544 107.527 36.4588 106.894 36.4588C106.261 36.4588 105.674 36.3523 105.131 36.1393C104.589 35.9274 104.118 35.627 103.719 35.2415C103.321 34.855 103.012 34.4034 102.794 33.8869C102.575 33.3715 102.466 32.8092 102.466 32.2022C102.466 31.5952 102.575 31.0222 102.794 30.5057ZM92.1443 28.0638H93.3979L96.6522 33.5483L99.8538 28.0638H101.107L101.131 36.3405H99.666V30.8444L96.9825 35.4066H96.2914L93.5974 30.9296V36.3405H92.1443V28.0638ZM104.821 34.2895C105.078 34.5536 105.385 34.7559 105.741 34.8986C106.096 35.0403 106.481 35.1105 106.894 35.1105C107.308 35.1105 107.689 35.0403 108.037 34.8986C108.384 34.7559 108.687 34.5557 108.945 34.2948C109.203 34.0349 109.404 33.7272 109.548 33.3726C109.693 33.0179 109.765 32.6282 109.765 32.2022C109.765 31.7762 109.695 31.3864 109.555 31.0318C109.413 30.6772 109.213 30.3694 108.951 30.1096C108.689 29.8497 108.384 29.6484 108.037 29.5068C107.689 29.3652 107.308 29.2938 106.894 29.2938C106.481 29.2938 106.096 29.3652 105.741 29.5068C105.385 29.6484 105.078 29.8518 104.821 30.116C104.563 30.3801 104.36 30.6868 104.212 31.0382C104.063 31.3886 103.989 31.7773 103.989 32.2022C103.989 32.6271 104.063 33.0062 104.212 33.3608C104.36 33.7155 104.563 34.0254 104.821 34.2895ZM109.555 31.0318C109.413 30.6772 109.213 30.3694 108.951 30.1096C108.689 29.8497 108.384 29.6484 108.037 29.5068C107.689 29.3652 107.308 29.2938 106.894 29.2938C106.481 29.2938 106.096 29.3652 105.741 29.5068C105.385 29.6484 105.078 29.8518 104.821 30.116C104.563 30.3801 104.36 30.6868 104.212 31.0382C104.063 31.3886 103.989 31.7773 103.989 32.2022C103.989 32.6271 104.063 33.0062 104.212 33.3608C104.36 33.7155 104.563 34.0254 104.821 34.2895C105.078 34.5536 105.385 34.7559 105.741 34.8986C106.096 35.0403 106.481 35.1105 106.894 35.1105C107.308 35.1105 107.689 35.0403 108.037 34.8986C108.384 34.7559 108.687 34.5557 108.945 34.2948C109.203 34.0349 109.404 33.7272 109.548 33.3726C109.693 33.0179 109.765 32.6282 109.765 32.2022C109.765 31.7762 109.695 31.3864 109.555 31.0318ZM109.555 31.0318C109.413 30.6772 109.213 30.3694 108.951 30.1096C108.689 29.8497 108.384 29.6484 108.037 29.5068C107.689 29.3652 107.308 29.2938 106.894 29.2938C106.481 29.2938 106.096 29.3652 105.741 29.5068C105.385 29.6484 105.078 29.8518 104.821 30.116C104.563 30.3801 104.36 30.6868 104.212 31.0382C104.063 31.3886 103.989 31.7773 103.989 32.2022C103.989 32.6271 104.063 33.0062 104.212 33.3608C104.36 33.7155 104.563 34.0254 104.821 34.2895C105.078 34.5536 105.385 34.7559 105.741 34.8986C106.096 35.0403 106.481 35.1105 106.894 35.1105C107.308 35.1105 107.689 35.0403 108.037 34.8986C108.384 34.7559 108.687 34.5557 108.945 34.2948C109.203 34.0349 109.404 33.7272 109.548 33.3726C109.693 33.0179 109.765 32.6282 109.765 32.2022C109.765 31.7762 109.695 31.3864 109.555 31.0318ZM109.555 31.0318C109.413 30.6772 109.213 30.3694 108.951 30.1096C108.689 29.8497 108.384 29.6484 108.037 29.5068C107.689 29.3652 107.308 29.2938 106.894 29.2938C106.481 29.2938 106.096 29.3652 105.741 29.5068C105.385 29.6484 105.078 29.8518 104.821 30.116C104.563 30.3801 104.36 30.6868 104.212 31.0382C104.063 31.3886 103.989 31.7773 103.989 32.2022C103.989 32.6271 104.063 33.0062 104.212 33.3608C104.36 33.7155 104.563 34.0254 104.821 34.2895C105.078 34.5536 105.385 34.7559 105.741 34.8986C106.096 35.0403 106.481 35.1105 106.894 35.1105C107.308 35.1105 107.689 35.0403 108.037 34.8986C108.384 34.7559 108.687 34.5557 108.945 34.2948C109.203 34.0349 109.404 33.7272 109.548 33.3726C109.693 33.0179 109.765 32.6282 109.765 32.2022C109.765 31.7762 109.695 31.3864 109.555 31.0318ZM109.555 31.0318C109.413 30.6772 109.213 30.3694 108.951 30.1096C108.689 29.8497 108.384 29.6484 108.037 29.5068C107.689 29.3652 107.308 29.2938 106.894 29.2938C106.481 29.2938 106.096 29.3652 105.741 29.5068C105.385 29.6484 105.078 29.8518 104.821 30.116C104.563 30.3801 104.36 30.6868 104.212 31.0382C104.063 31.3886 103.989 31.7773 103.989 32.2022C103.989 32.6271 104.063 33.0062 104.212 33.3608C104.36 33.7155 104.563 34.0254 104.821 34.2895C105.078 34.5536 105.385 34.7559 105.741 34.8986C106.096 35.0403 106.481 35.1105 106.894 35.1105C107.308 35.1105 107.689 35.0403 108.037 34.8986C108.384 34.7559 108.687 34.5557 108.945 34.2948C109.203 34.0349 109.404 33.7272 109.548 33.3726C109.693 33.0179 109.765 32.6282 109.765 32.2022C109.765 31.7762 109.695 31.3864 109.555 31.0318ZM109.555 31.0318C109.413 30.6772 109.213 30.3694 108.951 30.1096C108.689 29.8497 108.384 29.6484 108.037 29.5068C107.689 29.3652 107.308 29.2938 106.894 29.2938C106.481 29.2938 106.096 29.3652 105.741 29.5068C105.385 29.6484 105.078 29.8518 104.821 30.116C104.563 30.3801 104.36 30.6868 104.212 31.0382C104.063 31.3886 103.989 31.7773 103.989 32.2022C103.989 32.6271 104.063 33.0062 104.212 33.3608C104.36 33.7155 104.563 34.0254 104.821 34.2895C105.078 34.5536 105.385 34.7559 105.741 34.8986C106.096 35.0403 106.481 35.1105 106.894 35.1105C107.308 35.1105 107.689 35.0403 108.037 34.8986C108.384 34.7559 108.687 34.5557 108.945 34.2948C109.203 34.0349 109.404 33.7272 109.548 33.3726C109.693 33.0179 109.765 32.6282 109.765 32.2022C109.765 31.7762 109.695 31.3864 109.555 31.0318ZM109.555 31.0318C109.413 30.6772 109.213 30.3694 108.951 30.1096C108.689 29.8497 108.384 29.6484 108.037 29.5068C107.689 29.3652 107.308 29.2938 106.894 29.2938C106.481 29.2938 106.096 29.3652 105.741 29.5068C105.385 29.6484 105.078 29.8518 104.821 30.116C104.563 30.3801 104.36 30.6868 104.212 31.0382C104.063 31.3886 103.989 31.7773 103.989 32.2022C103.989 32.6271 104.063 33.0062 104.212 33.3608C104.36 33.7155 104.563 34.0254 104.821 34.2895C105.078 34.5536 105.385 34.7559 105.741 34.8986C106.096 35.0403 106.481 35.1105 106.894 35.1105C107.308 35.1105 107.689 35.0403 108.037 34.8986C108.384 34.7559 108.687 34.5557 108.945 34.2948C109.203 34.0349 109.404 33.7272 109.548 33.3726C109.693 33.0179 109.765 32.6282 109.765 32.2022C109.765 31.7762 109.695 31.3864 109.555 31.0318ZM109.555 31.0318C109.413 30.6772 109.213 30.3694 108.951 30.1096C108.689 29.8497 108.384 29.6484 108.037 29.5068C107.689 29.3652 107.308 29.2938 106.894 29.2938C106.481 29.2938 106.096 29.3652 105.741 29.5068C105.385 29.6484 105.078 29.8518 104.821 30.116C104.563 30.3801 104.36 30.6868 104.212 31.0382C104.063 31.3886 103.989 31.7773 103.989 32.2022C103.989 32.6271 104.063 33.0062 104.212 33.3608C104.36 33.7155 104.563 34.0254 104.821 34.2895C105.078 34.5536 105.385 34.7559 105.741 34.8986C106.096 35.0403 106.481 35.1105 106.894 35.1105C107.308 35.1105 107.689 35.0403 108.037 34.8986C108.384 34.7559 108.687 34.5557 108.945 34.2948C109.203 34.0349 109.404 33.7272 109.548 33.3726C109.693 33.0179 109.765 32.6282 109.765 32.2022C109.765 31.7762 109.695 31.3864 109.555 31.0318ZM109.555 31.0318C109.413 30.6772 109.213 30.3694 108.951 30.1096C108.689 29.8497 108.384 29.6484 108.037 29.5068C107.689 29.3652 107.308 29.2938 106.894 29.2938C106.481 29.2938 106.096 29.3652 105.741 29.5068C105.385 29.6484 105.078 29.8518 104.821 30.116C104.563 30.3801 104.36 30.6868 104.212 31.0382C104.063 31.3886 103.989 31.7773 103.989 32.2022C103.989 32.6271 104.063 33.0062 104.212 33.3608C104.36 33.7155 104.563 34.0254 104.821 34.2895C105.078 34.5536 105.385 34.7559 105.741 34.8986C106.096 35.0403 106.481 35.1105 106.894 35.1105C107.308 35.1105 107.689 35.0403 108.037 34.8986C108.384 34.7559 108.687 34.5557 108.945 34.2948C109.203 34.0349 109.404 33.7272 109.548 33.3726C109.693 33.0179 109.765 32.6282 109.765 32.2022C109.765 31.7762 109.695 31.3864 109.555 31.0318ZM109.555 31.0318C109.413 30.6772 109.213 30.3694 108.951 30.1096C108.689 29.8497 108.384 29.6484 108.037 29.5068C107.689 29.3652 107.308 29.2938 106.894 29.2938C106.481 29.2938 106.096 29.3652 105.741 29.5068C105.385 29.6484 105.078 29.8518 104.821 30.116C104.563 30.3801 104.36 30.6868 104.212 31.0382C104.063 31.3886 103.989 31.7773 103.989 32.2022C103.989 32.6271 104.063 33.0062 104.212 33.3608C104.36 33.7155 104.563 34.0254 104.821 34.2895C105.078 34.5536 105.385 34.7559 105.741 34.8986C106.096 35.0403 106.481 35.1105 106.894 35.1105C107.308 35.1105 107.689 35.0403 108.037 34.8986C108.384 34.7559 108.687 34.5557 108.945 34.2948C109.203 34.0349 109.404 33.7272 109.548 33.3726C109.693 33.0179 109.765 32.6282 109.765 32.2022C109.765 31.7762 109.695 31.3864 109.555 31.0318ZM109.555 31.0318C109.413 30.6772 109.213 30.3694 108.951 30.1096C108.689 29.8497 108.384 29.6484 108.037 29.5068C107.689 29.3652 107.308 29.2938 106.894 29.2938C106.481 29.2938 106.096 29.3652 105.741 29.5068C105.385 29.6484 105.078 29.8518 104.821 30.116C104.563 30.3801 104.36 30.6868 104.212 31.0382C104.063 31.3886 103.989 31.7773 103.989 32.2022C103.989 32.6271 104.063 33.0062 104.212 33.3608C104.36 33.7155 104.563 34.0254 104.821 34.2895C105.078 34.5536 105.385 34.7559 105.741 34.8986C106.096 35.0403 106.481 35.1105 106.894 35.1105C107.308 35.1105 107.689 35.0403 108.037 34.8986C108.384 34.7559 108.687 34.5557 108.945 34.2948C109.203 34.0349 109.404 33.7272 109.548 33.3726C109.693 33.0179 109.765 32.6282 109.765 32.2022C109.765 31.7762 109.695 31.3864 109.555 31.0318ZM109.555 31.0318C109.413 30.6772 109.213 30.3694 108.951 30.1096C108.689 29.8497 108.384 29.6484 108.037 29.5068C107.689 29.3652 107.308 29.2938 106.894 29.2938C106.481 29.2938 106.096 29.3652 105.741 29.5068C105.385 29.6484 105.078 29.8518 104.821 30.116C104.563 30.3801 104.36 30.6868 104.212 31.0382C104.063 31.3886 103.989 31.7773 103.989 32.2022C103.989 32.6271 104.063 33.0062 104.212 33.3608C104.36 33.7155 104.563 34.0254 104.821 34.2895C105.078 34.5536 105.385 34.7559 105.741 34.8986C106.096 35.0403 106.481 35.1105 106.894 35.1105C107.308 35.1105 107.689 35.0403 108.037 34.8986C108.384 34.7559 108.687 34.5557 108.945 34.2948C109.203 34.0349 109.404 33.7272 109.548 33.3726C109.693 33.0179 109.765 32.6282 109.765 32.2022C109.765 31.7762 109.695 31.3864 109.555 31.0318ZM109.555 31.0318C109.413 30.6772 109.213 30.3694 108.951 30.1096C108.689 29.8497 108.384 29.6484 108.037 29.5068C107.689 29.3652 107.308 29.2938 106.894 29.2938C106.481 29.2938 106.096 29.3652 105.741 29.5068C105.385 29.6484 105.078 29.8518 104.821 30.116C104.563 30.3801 104.36 30.6868 104.212 31.0382C104.063 31.3886 103.989 31.7773 103.989 32.2022C103.989 32.6271 104.063 33.0062 104.212 33.3608C104.36 33.7155 104.563 34.0254 104.821 34.2895C105.078 34.5536 105.385 34.7559 105.741 34.8986C106.096 35.0403 106.481 35.1105 106.894 35.1105C107.308 35.1105 107.689 35.0403 108.037 34.8986C108.384 34.7559 108.687 34.5557 108.945 34.2948C109.203 34.0349 109.404 33.7272 109.548 33.3726C109.693 33.0179 109.765 32.6282 109.765 32.2022C109.765 31.7762 109.695 31.3864 109.555 31.0318ZM109.555 31.0318C109.413 30.6772 109.213 30.3694 108.951 30.1096C108.689 29.8497 108.384 29.6484 108.037 29.5068C107.689 29.3652 107.308 29.2938 106.894 29.2938C106.481 29.2938 106.096 29.3652 105.741 29.5068C105.385 29.6484 105.078 29.8518 104.821 30.116C104.563 30.3801 104.36 30.6868 104.212 31.0382C104.063 31.3886 103.989 31.7773 103.989 32.2022C103.989 32.6271 104.063 33.0062 104.212 33.3608C104.36 33.7155 104.563 34.0254 104.821 34.2895C105.078 34.5536 105.385 34.7559 105.741 34.8986C106.096 35.0403 106.481 35.1105 106.894 35.1105C107.308 35.1105 107.689 35.0403 108.037 34.8986C108.384 34.7559 108.687 34.5557 108.945 34.2948C109.203 34.0349 109.404 33.7272 109.548 33.3726C109.693 33.0179 109.765 32.6282 109.765 32.2022C109.765 31.7762 109.695 31.3864 109.555 31.0318ZM109.555 31.0318C109.413 30.6772 109.213 30.3694 108.951 30.1096C108.689 29.8497 108.384 29.6484 108.037 29.5068C107.689 29.3652 107.308 29.2938 106.894 29.2938C106.481 29.2938 106.096 29.3652 105.741 29.5068C105.385 29.6484 105.078 29.8518 104.821 30.116C104.563 30.3801 104.36 30.6868 104.212 31.0382C104.063 31.3886 103.989 31.7773 103.989 32.2022C103.989 32.6271 104.063 33.0062 104.212 33.3608C104.36 33.7155 104.563 34.0254 104.821 34.2895C105.078 34.5536 105.385 34.7559 105.741 34.8986C106.096 35.0403 106.481 35.1105 106.894 35.1105C107.308 35.1105 107.689 35.0403 108.037 34.8986C108.384 34.7559 108.687 34.5557 108.945 34.2948C109.203 34.0349 109.404 33.7272 109.548 33.3726C109.693 33.0179 109.765 32.6282 109.765 32.2022C109.765 31.7762 109.695 31.3864 109.555 31.0318ZM109.555 31.0318C109.413 30.6772 109.213 30.3694 108.951 30.1096C108.689 29.8497 108.384 29.6484 108.037 29.5068C107.689 29.3652 107.308 29.2938 106.894 29.2938C106.481 29.2938 106.096 29.3652 105.741 29.5068C105.385 29.6484 105.078 29.8518 104.821 30.116C104.563 30.3801 104.36 30.6868 104.212 31.0382C104.063 31.3886 103.989 31.7773 103.989 32.2022C103.989 32.6271 104.063 33.0062 104.212 33.3608C104.36 33.7155 104.563 34.0254 104.821 34.2895C105.078 34.5536 105.385 34.7559 105.741 34.8986C106.096 35.0403 106.481 35.1105 106.894 35.1105C107.308 35.1105 107.689 35.0403 108.037 34.8986C108.384 34.7559 108.687 34.5557 108.945 34.2948C109.203 34.0349 109.404 33.7272 109.548 33.3726C109.693 33.0179 109.765 32.6282 109.765 32.2022C109.765 31.7762 109.695 31.3864 109.555 31.0318ZM109.555 31.0318C109.413 30.6772 109.213 30.3694 108.951 30.1096C108.689 29.8497 108.384 29.6484 108.037 29.5068C107.689 29.3652 107.308 29.2938 106.894 29.2938C106.481 29.2938 106.096 29.3652 105.741 29.5068C105.385 29.6484 105.078 29.8518 104.821 30.116C104.563 30.3801 104.36 30.6868 104.212 31.0382C104.063 31.3886 103.989 31.7773 103.989 32.2022C103.989 32.6271 104.063 33.0062 104.212 33.3608C104.36 33.7155 104.563 34.0254 104.821 34.2895C105.078 34.5536 105.385 34.7559 105.741 34.8986C106.096 35.0403 106.481 35.1105 106.894 35.1105C107.308 35.1105 107.689 35.0403 108.037 34.8986C108.384 34.7559 108.687 34.5557 108.945 34.2948C109.203 34.0349 109.404 33.7272 109.548 33.3726C109.693 33.0179 109.765 32.6282 109.765 32.2022C109.765 31.7762 109.695 31.3864 109.555 31.0318ZM109.555 31.0318C109.413 30.6772 109.213 30.3694 108.951 30.1096C108.689 29.8497 108.384 29.6484 108.037 29.5068C107.689 29.3652 107.308 29.2938 106.894 29.2938C106.481 29.2938 106.096 29.3652 105.741 29.5068C105.385 29.6484 105.078 29.8518 104.821 30.116C104.563 30.3801 104.36 30.6868 104.212 31.0382C104.063 31.3886 103.989 31.7773 103.989 32.2022C103.989 32.6271 104.063 33.0062 104.212 33.3608C104.36 33.7155 104.563 34.0254 104.821 34.2895C105.078 34.5536 105.385 34.7559 105.741 34.8986C106.096 35.0403 106.481 35.1105 106.894 35.1105C107.308 35.1105 107.689 35.0403 108.037 34.8986C108.384 34.7559 108.687 34.5557 108.945 34.2948C109.203 34.0349 109.404 33.7272 109.548 33.3726C109.693 33.0179 109.765 32.6282 109.765 32.2022C109.765 31.7762 109.695 31.3864 109.555 31.0318ZM109.555 31.0318C109.413 30.6772 109.213 30.3694 108.951 30.1096C108.689 29.8497 108.384 29.6484 108.037 29.5068C107.689 29.3652 107.308 29.2938 106.894 29.2938C106.481 29.2938 106.096 29.3652 105.741 29.5068C105.385 29.6484 105.078 29.8518 104.821 30.116C104.563 30.3801 104.36 30.6868 104.212 31.0382C104.063 31.3886 103.989 31.7773 103.989 32.2022C103.989 32.6271 104.063 33.0062 104.212 33.3608C104.36 33.7155 104.563 34.0254 104.821 34.2895C105.078 34.5536 105.385 34.7559 105.741 34.8986C106.096 35.0403 106.481 35.1105 106.894 35.1105C107.308 35.1105 107.689 35.0403 108.037 34.8986C108.384 34.7559 108.687 34.5557 108.945 34.2948C109.203 34.0349 109.404 33.7272 109.548 33.3726C109.693 33.0179 109.765 32.6282 109.765 32.2022C109.765 31.7762 109.695 31.3864 109.555 31.0318ZM109.555 31.0318C109.413 30.6772 109.213 30.3694 108.951 30.1096C108.689 29.8497 108.384 29.6484 108.037 29.5068C107.689 29.3652 107.308 29.2938 106.894 29.2938C106.481 29.2938 106.096 29.3652 105.741 29.5068C105.385 29.6484 105.078 29.8518 104.821 30.116C104.563 30.3801 104.36 30.6868 104.212 31.0382C104.063 31.3886 103.989 31.7773 103.989 32.2022C103.989 32.6271 104.063 33.0062 104.212 33.3608C104.36 33.7155 104.563 34.0254 104.821 34.2895C105.078 34.5536 105.385 34.7559 105.741 34.8986C106.096 35.0403 106.481 35.1105 106.894 35.1105C107.308 35.1105 107.689 35.0403 108.037 34.8986C108.384 34.7559 108.687 34.5557 108.945 34.2948C109.203 34.0349 109.404 33.7272 109.548 33.3726C109.693 33.0179 109.765 32.6282 109.765 32.2022C109.765 31.7762 109.695 31.3864 109.555 31.0318ZM109.555 31.0318C109.413 30.6772 109.213 30.3694 108.951 30.1096C108.689 29.8497 108.384 29.6484 108.037 29.5068C107.689 29.3652 107.308 29.2938 106.894 29.2938C106.481 29.2938 106.096 29.3652 105.741 29.5068C105.385 29.6484 105.078 29.8518 104.821 30.116C104.563 30.3801 104.36 30.6868 104.212 31.0382C104.063 31.3886 103.989 31.7773 103.989 32.2022C103.989 32.6271 104.063 33.0062 104.212 33.3608C104.36 33.7155 104.563 34.0254 104.821 34.2895C105.078 34.5536 105.385 34.7559 105.741 34.8986C106.096 35.0403 106.481 35.1105 106.894 35.1105C107.308 35.1105 107.689 35.0403 108.037 34.8986C108.384 34.7559 108.687 34.5557 108.945 34.2948C109.203 34.0349 109.404 33.7272 109.548 33.3726C109.693 33.0179 109.765 32.6282 109.765 32.2022C109.765 31.7762 109.695 31.3864 109.555 31.0318ZM109.555 31.0318C109.413 30.6772 109.213 30.3694 108.951 30.1096C108.689 29.8497 108.384 29.6484 108.037 29.5068C107.689 29.3652 107.308 29.2938 106.894 29.2938C106.481 29.2938 106.096 29.3652 105.741 29.5068C105.385 29.6484 105.078 29.8518 104.821 30.116C104.563 30.3801 104.36 30.6868 104.212 31.0382C104.063 31.3886 103.989 31.7773 103.989 32.2022C103.989 32.6271 104.063 33.0062 104.212 33.3608C104.36 33.7155 104.563 34.0254 104.821 34.2895C105.078 34.5536 105.385 34.7559 105.741 34.8986C106.096 35.0403 106.481 35.1105 106.894 35.1105C107.308 35.1105 107.689 35.0403 108.037 34.8986C108.384 34.7559 108.687 34.5557 108.945 34.2948C109.203 34.0349 109.404 33.7272 109.548 33.3726C109.693 33.0179 109.765 32.6282 109.765 32.2022C109.765 31.7762 109.695 31.3864 109.555 31.0318ZM109.555 31.0318C109.413 30.6772 109.213 30.3694 108.951 30.1096C108.689 29.8497 108.384 29.6484 108.037 29.5068C107.689 29.3652 107.308 29.2938 106.894 29.2938C106.481 29.2938 106.096 29.3652 105.741 29.5068C105.385 29.6484 105.078 29.8518 104.821 30.116C104.563 30.3801 104.36 30.6868 104.212 31.0382C104.063 31.3886 103.989 31.7773 103.989 32.2022C103.989 32.6271 104.063 33.0062 104.212 33.3608C104.36 33.7155 104.563 34.0254 104.821 34.2895C105.078 34.5536 105.385 34.7559 105.741 34.8986C106.096 35.0403 106.481 35.1105 106.894 35.1105C107.308 35.1105 107.689 35.0403 108.037 34.8986C108.384 34.7559 108.687 34.5557 108.945 34.2948C109.203 34.0349 109.404 33.7272 109.548 33.3726C109.693 33.0179 109.765 32.6282 109.765 32.2022C109.765 31.7762 109.695 31.3864 109.555 31.0318ZM109.555 31.0318C109.413 30.6772 109.213 30.3694 108.951 30.1096C108.689 29.8497 108.384 29.6484 108.037 29.5068C107.689 29.3652 107.308 29.2938 106.894 29.2938C106.481 29.2938 106.096 29.3652 105.741 29.5068C105.385 29.6484 105.078 29.8518 104.821 30.116C104.563 30.3801 104.36 30.6868 104.212 31.0382C104.063 31.3886 103.989 31.7773 103.989 32.2022C103.989 32.6271 104.063 33.0062 104.212 33.3608C104.36 33.7155 104.563 34.0254 104.821 34.2895C105.078 34.5536 105.385 34.7559 105.741 34.8986C106.096 35.0403 106.481 35.1105 106.894 35.1105C107.308 35.1105 107.689 35.0403 108.037 34.8986C108.384 34.7559 108.687 34.5557 108.945 34.2948C109.203 34.0349 109.404 33.7272 109.548 33.3726C109.693 33.0179 109.765 32.6282 109.765 32.2022C109.765 31.7762 109.695 31.3864 109.555 31.0318ZM109.555 31.0318C109.413 30.6772 109.213 30.3694 108.951 30.1096C108.689 29.8497 108.384 29.6484 108.037 29.5068C107.689 29.3652 107.308 29.2938 106.894 29.2938C106.481 29.2938 106.096 29.3652 105.741 29.5068C105.385 29.6484 105.078 29.8518 104.821 30.116C104.563 30.3801 104.36 30.6868 104.212 31.0382C104.063 31.3886 103.989 31.7773 103.989 32.2022C103.989 32.6271 104.063 33.0062 104.212 33.3608C104.36 33.7155 104.563 34.0254 104.821 34.2895C105.078 34.5536 105.385 34.7559 105.741 34.8986C106.096 35.0403 106.481 35.1105 106.894 35.1105C107.308 35.1105 107.689 35.0403 108.037 34.8986C108.384 34.7559 108.687 34.5557 108.945 34.2948C109.203 34.0349 109.404 33.7272 109.548 33.3726C109.693 33.0179 109.765 32.6282 109.765 32.2022C109.765 31.7762 109.695 31.3864 109.555 31.0318ZM109.555 31.0318C109.413 30.6772 109.213 30.3694 108.951 30.1096C108.689 29.8497 108.384 29.6484 108.037 29.5068C107.689 29.3652 107.308 29.2938 106.894 29.2938C106.481 29.2938 106.096 29.3652 105.741 29.5068C105.385 29.6484 105.078 29.8518 104.821 30.116C104.563 30.3801 104.36 30.6868 104.212 31.0382C104.063 31.3886 103.989 31.7773 103.989 32.2022C103.989 32.6271 104.063 33.0062 104.212 33.3608C104.36 33.7155 104.563 34.0254 104.821 34.2895C105.078 34.5536 105.385 34.7559 105.741 34.8986C106.096 35.0403 106.481 35.1105 106.894 35.1105C107.308 35.1105 107.689 35.0403 108.037 34.8986C108.384 34.7559 108.687 34.5557 108.945 34.2948C109.203 34.0349 109.404 33.7272 109.548 33.3726C109.693 33.0179 109.765 32.6282 109.765 32.2022C109.765 31.7762 109.695 31.3864 109.555 31.0318ZM109.555 31.0318C109.413 30.6772 109.213 30.3694 108.951 30.1096C108.689 29.8497 108.384 29.6484 108.037 29.5068C107.689 29.3652 107.308 29.2938 106.894 29.2938C106.481 29.2938 106.096 29.3652 105.741 29.5068C105.385 29.6484 105.078 29.8518 104.821 30.116C104.563 30.3801 104.36 30.6868 104.212 31.0382C104.063 31.3886 103.989 31.7773 103.989 32.2022C103.989 32.6271 104.063 33.0062 104.212 33.3608C104.36 33.7155 104.563 34.0254 104.821 34.2895C105.078 34.5536 105.385 34.7559 105.741 34.8986C106.096 35.0403 106.481 35.1105 106.894 35.1105C107.308 35.1105 107.689 35.0403 108.037 34.8986C108.384 34.7559 108.687 34.5557 108.945 34.2948C109.203 34.0349 109.404 33.7272 109.548 33.3726C109.693 33.0179 109.765 32.6282 109.765 32.2022C109.765 31.7762 109.695 31.3864 109.555 31.0318ZM109.555 31.0318C109.413 30.6772 109.213 30.3694 108.951 30.1096C108.689 29.8497 108.384 29.6484 108.037 29.5068C107.689 29.3652 107.308 29.2938 106.894 29.2938C106.481 29.2938 106.096 29.3652 105.741 29.5068C105.385 29.6484 105.078 29.8518 104.821 30.116C104.563 30.3801 104.36 30.6868 104.212 31.0382C104.063 31.3886 103.989 31.7773 103.989 32.2022C103.989 32.6271 104.063 33.0062 104.212 33.3608C104.36 33.7155 104.563 34.0254 104.821 34.2895C105.078 34.5536 105.385 34.7559 105.741 34.8986C106.096 35.0403 106.481 35.1105 106.894 35.1105C107.308 35.1105 107.689 35.0403 108.037 34.8986C108.384 34.7559 108.687 34.5557 108.945 34.2948C109.203 34.0349 109.404 33.7272 109.548 33.3726C109.693 33.0179 109.765 32.6282 109.765 32.2022C109.765 31.7762 109.695 31.3864 109.555 31.0318ZM109.555 31.0318C109.413 30.6772 109.213 30.3694 108.951 30.1096C108.689 29.8497 108.384 29.6484 108.037 29.5068C107.689 29.3652 107.308 29.2938 106.894 29.2938C106.481 29.2938 106.096 29.3652 105.741 29.5068C105.385 29.6484 105.078 29.8518 104.821 30.116C104.563 30.3801 104.36 30.6868 104.212 31.0382C104.063 31.3886 103.989 31.7773 103.989 32.2022C103.989 32.6271 104.063 33.0062 104.212 33.3608C104.36 33.7155 104.563 34.0254 104.821 34.2895C105.078 34.5536 105.385 34.7559 105.741 34.8986C106.096 35.0403 106.481 35.1105 106.894 35.1105C107.308 35.1105 107.689 35.0403 108.037 34.8986C108.384 34.7559 108.687 34.5557 108.945 34.2948C109.203 34.0349 109.404 33.7272 109.548 33.3726C109.693 33.0179 109.765 32.6282 109.765 32.2022C109.765 31.7762 109.695 31.3864 109.555 31.0318ZM109.555 31.0318C109.413 30.6772 109.213 30.3694 108.951 30.1096C108.689 29.8497 108.384 29.6484 108.037 29.5068C107.689 29.3652 107.308 29.2938 106.894 29.2938C106.481 29.2938 106.096 29.3652 105.741 29.5068C105.385 29.6484 105.078 29.8518 104.821 30.116C104.563 30.3801 104.36 30.6868 104.212 31.0382C104.063 31.3886 103.989 31.7773 103.989 32.2022C103.989 32.6271 104.063 33.0062 104.212 33.3608C104.36 33.7155 104.563 34.0254 104.821 34.2895C105.078 34.5536 105.385 34.7559 105.741 34.8986C106.096 35.0403 106.481 35.1105 106.894 35.1105C107.308 35.1105 107.689 35.0403 108.037 34.8986C108.384 34.7559 108.687 34.5557 108.945 34.2948C109.203 34.0349 109.404 33.7272 109.548 33.3726C109.693 33.0179 109.765 32.6282 109.765 32.2022C109.765 31.7762 109.695 31.3864 109.555 31.0318ZM109.555 31.0318C109.413 30.6772 109.213 30.3694 108.951 30.1096C108.689 29.8497 108.384 29.6484 108.037 29.5068C107.689 29.3652 107.308 29.2938 106.894 29.2938C106.481 29.2938 106.096 29.3652 105.741 29.5068C105.385 29.6484 105.078 29.8518 104.821 30.116C104.563 30.3801 104.36 30.6868 104.212 31.0382C104.063 31.3886 103.989 31.7773 103.989 32.2022C103.989 32.6271 104.063 33.0062 104.212 33.3608C104.36 33.7155 104.563 34.0254 104.821 34.2895C105.078 34.5536 105.385 34.7559 105.741 34.8986C106.096 35.0403 106.481 35.1105 106.894 35.1105C107.308 35.1105 107.689 35.0403 108.037 34.8986C108.384 34.7559 108.687 34.5557 108.945 34.2948C109.203 34.0349 109.404 33.7272 109.548 33.3726C109.693 33.0179 109.765 32.6282 109.765 32.2022C109.765 31.7762 109.695 31.3864 109.555 31.0318ZM109.555 31.0318C109.413 30.6772 109.213 30.3694 108.951 30.1096C108.689 29.8497 108.384 29.6484 108.037 29.5068C107.689 29.3652 107.308 29.2938 106.894 29.2938C106.481 29.2938 106.096 29.3652 105.741 29.5068C105.385 29.6484 105.078 29.8518 104.821 30.116C104.563 30.3801 104.36 30.6868 104.212 31.0382C104.063 31.3886 103.989 31.7773 103.989 32.2022C103.989 32.6271 104.063 33.0062 104.212 33.3608C104.36 33.7155 104.563 34.0254 104.821 34.2895C105.078 34.5536 105.385 34.7559 105.741 34.8986C106.096 35.0403 106.481 35.1105 106.894 35.1105C107.308 35.1105 107.689 35.0403 108.037 34.8986C108.384 34.7559 108.687 34.5557 108.945 34.2948C109.203 34.0349 109.404 33.7272 109.548 33.3726C109.693 33.0179 109.765 32.6282 109.765 32.2022C109.765 31.7762 109.695 31.3864 109.555 31.0318ZM109.555 31.0318C109.413 30.6772 109.213 30.3694 108.951 30.1096C108.689 29.8497 108.384 29.6484 108.037 29.5068C107.689 29.3652 107.308 29.2938 106.894 29.2938C106.481 29.2938 106.096 29.3652 105.741 29.5068C105.385 29.6484 105.078 29.8518 104.821 30.116C104.563 30.3801 104.36 30.6868 104.212 31.0382C104.063 31.3886 103.989 31.7773 103.989 32.2022C103.989 32.6271 104.063 33.0062 104.212 33.3608C104.36 33.7155 104.563 34.0254 104.821 34.2895C105.078 34.5536 105.385 34.7559 105.741 34.8986C106.096 35.0403 106.481 35.1105 106.894 35.1105C107.308 35.1105 107.689 35.0403 108.037 34.8986C108.384 34.7559 108.687 34.5557 108.945 34.2948C109.203 34.0349 109.404 33.7272 109.548 33.3726C109.693 33.0179 109.765 32.6282 109.765 32.2022C109.765 31.7762 109.695 31.3864 109.555 31.0318ZM109.555 31.0318C109.413 30.6772 109.213 30.3694 108.951 30.1096C108.689 29.8497 108.384 29.6484 108.037 29.5068C107.689 29.3652 107.308 29.2938 106.894 29.2938C106.481 29.2938 106.096 29.3652 105.741 29.5068C105.385 29.6484 105.078 29.8518 104.821 30.116C104.563 30.3801 104.36 30.6868 104.212 31.0382C104.063 31.3886 103.989 31.7773 103.989 32.2022C103.989 32.6271 104.063 33.0062 104.212 33.3608C104.36 33.7155 104.563 34.0254 104.821 34.2895C105.078 34.5536 105.385 34.7559 105.741 34.8986C106.096 35.0403 106.481 35.1105 106.894 35.1105C107.308 35.1105 107.689 35.0403 108.037 34.8986C108.384 34.7559 108.687 34.5557 108.945 34.2948C109.203 34.0349 109.404 33.7272 109.548 33.3726C109.693 33.0179 109.765 32.6282 109.765 32.2022C109.765 31.7762 109.695 31.3864 109.555 31.0318ZM109.555 31.0318C109.413 30.6772 109.213 30.3694 108.951 30.1096C108.689 29.8497 108.384 29.6484 108.037 29.5068C107.689 29.3652 107.308 29.2938 106.894 29.2938C106.481 29.2938 106.096 29.3652 105.741 29.5068C105.385 29.6484 105.078 29.8518 104.821 30.116C104.563 30.3801 104.36 30.6868 104.212 31.0382C104.063 31.3886 103.989 31.7773 103.989 32.2022C103.989 32.6271 104.063 33.0062 104.212 33.3608C104.36 33.7155 104.563 34.0254 104.821 34.2895C105.078 34.5536 105.385 34.7559 105.741 34.8986C106.096 35.0403 106.481 35.1105 106.894 35.1105C107.308 35.1105 107.689 35.0403 108.037 34.8986C108.384 34.7559 108.687 34.5557 108.945 34.2948C109.203 34.0349 109.404 33.7272 109.548 33.3726C109.693 33.0179 109.765 32.6282 109.765 32.2022C109.765 31.7762 109.695 31.3864 109.555 31.0318ZM109.555 31.0318C109.413 30.6772 109.213 30.3694 108.951 30.1096C108.689 29.8497 108.384 29.6484 108.037 29.5068C107.689 29.3652 107.308 29.2938 106.894 29.2938C106.481 29.2938 106.096 29.3652 105.741 29.5068C105.385 29.6484 105.078 29.8518 104.821 30.116C104.563 30.3801 104.36 30.6868 104.212 31.0382C104.063 31.3886 103.989 31.7773 103.989 32.2022C103.989 32.6271 104.063 33.0062 104.212 33.3608C104.36 33.7155 104.563 34.0254 104.821 34.2895C105.078 34.5536 105.385 34.7559 105.741 34.8986C106.096 35.0403 106.481 35.1105 106.894 35.1105C107.308 35.1105 107.689 35.0403 108.037 34.8986C108.384 34.7559 108.687 34.5557 108.945 34.2948C109.203 34.0349 109.404 33.7272 109.548 33.3726C109.693 33.0179 109.765 32.6282 109.765 32.2022C109.765 31.7762 109.695 31.3864 109.555 31.0318ZM109.555 31.0318C109.413 30.6772 109.213 30.3694 108.951 30.1096C108.689 29.8497 108.384 29.6484 108.037 29.5068C107.689 29.3652 107.308 29.2938 106.894 29.2938C106.481 29.2938 106.096 29.3652 105.741 29.5068C105.385 29.6484 105.078 29.8518 104.821 30.116C104.563 30.3801 104.36 30.6868 104.212 31.0382C104.063 31.3886 103.989 31.7773 103.989 32.2022C103.989 32.6271 104.063 33.0062 104.212 33.3608C104.36 33.7155 104.563 34.0254 104.821 34.2895C105.078 34.5536 105.385 34.7559 105.741 34.8986C106.096 35.0403 106.481 35.1105 106.894 35.1105C107.308 35.1105 107.689 35.0403 108.037 34.8986C108.384 34.7559 108.687 34.5557 108.945 34.2948C109.203 34.0349 109.404 33.7272 109.548 33.3726C109.693 33.0179 109.765 32.6282 109.765 32.2022C109.765 31.7762 109.695 31.3864 109.555 31.0318Z" fill="url(#paint0_linear_304_15325)"/>
<path d="M106.895 27.9453C107.528 27.9453 108.113 28.0501 108.652 28.2588C109.19 28.4686 109.658 28.7632 110.052 29.1455C110.446 29.5278 110.753 29.9794 110.972 30.499C111.19 31.0198 111.3 31.5866 111.3 32.2021C111.3 32.8176 111.19 33.383 110.972 33.8984C110.753 34.4149 110.446 34.8664 110.052 35.2529C109.658 35.6384 109.191 35.9368 108.652 36.1455C108.113 36.3542 107.527 36.459 106.895 36.459C106.262 36.459 105.674 36.3517 105.131 36.1387C104.589 35.9268 104.118 35.6266 103.719 35.2412C103.321 34.8547 103.012 34.4031 102.794 33.8867C102.576 33.3713 102.466 32.8166 102.466 32.2021C102.466 31.5877 102.576 31.0223 102.794 30.5059C103.012 29.9894 103.321 29.5395 103.719 29.1572C104.118 28.7749 104.587 28.4776 105.126 28.2646C105.664 28.0517 106.261 27.9453 106.895 27.9453ZM96.6523 33.5479L99.8535 28.0635H101.107L101.131 36.3408H99.666V30.8447L96.9824 35.4062H96.291L93.5977 30.9297V36.3408H92.1445V28.0635H93.3984L96.6523 33.5479ZM118.411 33.6777V28.0635H119.911V36.3408H118.657L114.147 30.7285V36.3408H112.635V28.0635H113.89L118.411 33.6777ZM127.831 29.3652H123.367V31.5049H127.327V32.7695H123.367V35.04H127.995V36.3408H121.844V28.0635H127.831V29.3652ZM132.212 32.0928L134.626 28.0635H136.125L132.903 33.4336V36.3408H131.393V33.416L128.171 28.0635H129.788L132.212 32.0928ZM106.895 29.2939C106.481 29.2939 106.096 29.3652 105.741 29.5068C105.386 29.6485 105.079 29.8521 104.821 30.1162C104.564 30.3803 104.36 30.6867 104.212 31.0381C104.063 31.3884 103.989 31.7836 103.989 32.2021C103.989 32.6205 104.063 33.0058 104.212 33.3604C104.36 33.715 104.564 34.025 104.821 34.2891C105.079 34.5531 105.386 34.7557 105.741 34.8984C106.096 35.04 106.481 35.1104 106.895 35.1104C107.308 35.1103 107.689 35.04 108.037 34.8984C108.384 34.7558 108.687 34.5557 108.944 34.2949C109.203 34.0351 109.403 33.7267 109.548 33.3721C109.692 33.0175 109.765 32.627 109.765 32.2021C109.765 31.7772 109.695 31.3859 109.555 31.0312C109.413 30.6768 109.213 30.3691 108.951 30.1094C108.689 29.8495 108.384 29.6485 108.037 29.5068C107.689 29.3652 107.308 29.294 106.895 29.2939Z" fill="white"/>
<path d="M103.007 45.6387C103.007 46.1636 103.121 46.5505 103.346 46.7891C103.572 47.0265 103.896 47.1475 104.31 47.1475C104.723 47.1474 105.056 47.0265 105.28 46.7891C105.506 46.5494 105.621 46.1626 105.621 45.6387V42.8877H106.36V45.667C106.36 46.3717 106.176 46.9158 105.814 47.2842C105.451 47.6527 104.943 47.8398 104.303 47.8398C103.662 47.8398 103.16 47.6526 102.795 47.2842C102.43 46.9158 102.245 46.3717 102.245 45.667V42.8877H103.007V45.6387ZM109.062 42.834C109.343 42.834 109.623 42.871 109.897 42.9443C110.173 43.0189 110.416 43.1282 110.618 43.2666L110.645 43.2852L110.389 43.9102L110.349 43.8838C110.147 43.7485 109.932 43.6495 109.712 43.5898C109.491 43.5292 109.271 43.4981 109.062 43.498C108.8 43.498 108.582 43.5326 108.415 43.5986C108.252 43.6636 108.131 43.7509 108.055 43.8594C107.98 43.9669 107.942 44.0896 107.942 44.2217C107.942 44.3802 107.992 44.5071 108.09 44.5986C108.19 44.6945 108.327 44.7725 108.491 44.8311C108.656 44.8896 108.839 44.9412 109.051 44.9912C109.272 45.0444 109.475 45.098 109.669 45.1533C109.88 45.214 110.073 45.2947 110.244 45.3916C110.418 45.4895 110.561 45.624 110.669 45.79C110.778 45.9561 110.834 46.1711 110.834 46.4297C110.834 46.6885 110.765 46.9147 110.63 47.1309C110.494 47.3449 110.283 47.5186 110.001 47.6475C109.725 47.7751 109.369 47.8398 108.946 47.8398C108.581 47.8398 108.226 47.7828 107.89 47.6699C107.554 47.556 107.286 47.4057 107.092 47.2236L107.07 47.2031L107.356 46.5928L107.397 46.627C107.576 46.7845 107.806 46.9173 108.08 47.0195C108.357 47.1238 108.649 47.1758 108.946 47.1758C109.218 47.1758 109.441 47.1438 109.607 47.0811C109.772 47.0204 109.895 46.9355 109.971 46.8301C110.048 46.7247 110.087 46.6047 110.087 46.4717C110.087 46.3173 110.038 46.1973 109.938 46.1025C109.837 46.0068 109.702 45.9268 109.536 45.8672C109.366 45.8054 109.178 45.7508 108.979 45.7061C108.779 45.6613 108.57 45.6068 108.358 45.543C108.148 45.4801 107.955 45.3996 107.785 45.3027C107.61 45.2048 107.467 45.0687 107.359 44.9004C107.251 44.7311 107.195 44.512 107.195 44.249C107.195 43.986 107.262 43.759 107.395 43.5439C107.527 43.33 107.735 43.1553 108.012 43.0254C108.286 42.8987 108.64 42.834 109.062 42.834ZM124.859 42.834C125.14 42.834 125.42 42.871 125.694 42.9443C125.97 43.0189 126.212 43.1282 126.415 43.2666L126.441 43.2852L126.187 43.9102L126.146 43.8838C125.946 43.7485 125.731 43.6495 125.51 43.5898C125.287 43.5292 125.068 43.4981 124.859 43.498C124.597 43.498 124.379 43.5326 124.212 43.5986C124.049 43.6636 123.927 43.7519 123.853 43.8594C123.778 43.9659 123.74 44.0886 123.74 44.2217C123.74 44.3823 123.788 44.506 123.887 44.5986C123.989 44.6955 124.126 44.7735 124.289 44.8311C124.454 44.8896 124.636 44.9412 124.849 44.9912C125.071 45.0444 125.274 45.098 125.466 45.1533C125.676 45.214 125.87 45.2936 126.041 45.3916C126.215 45.4895 126.358 45.624 126.467 45.79C126.575 45.955 126.631 46.17 126.631 46.4297C126.631 46.6895 126.562 46.9168 126.427 47.1309C126.291 47.3449 126.08 47.5186 125.8 47.6475C125.521 47.7751 125.166 47.8398 124.743 47.8398C124.378 47.8398 124.023 47.7828 123.688 47.6699C123.351 47.556 123.082 47.4057 122.889 47.2236L122.868 47.2031L123.156 46.5928L123.195 46.627C123.372 46.7834 123.602 46.9163 123.878 47.0195C124.155 47.1238 124.446 47.1758 124.743 47.1758C125.015 47.1758 125.238 47.1438 125.404 47.0811C125.568 47.0204 125.69 46.9355 125.769 46.8301C125.844 46.7247 125.884 46.6047 125.884 46.4717C125.884 46.3173 125.835 46.1963 125.734 46.1025C125.633 46.0057 125.498 45.9268 125.334 45.8672C125.164 45.8054 124.976 45.7508 124.775 45.7061C124.576 45.6613 124.367 45.6068 124.155 45.543C123.945 45.4801 123.752 45.3996 123.582 45.3027C123.407 45.2048 123.264 45.0687 123.156 44.9004C123.048 44.7311 122.992 44.512 122.992 44.249C122.992 43.986 123.059 43.758 123.192 43.5439C123.324 43.33 123.532 43.1564 123.809 43.0254C124.083 42.8987 124.437 42.834 124.859 42.834ZM128.929 42.834C129.21 42.834 129.491 42.8709 129.765 42.9443C130.04 43.0189 130.283 43.1282 130.485 43.2666L130.512 43.2852L130.257 43.9102L130.217 43.8838C130.016 43.7485 129.802 43.6495 129.58 43.5898C129.358 43.5291 129.139 43.498 128.929 43.498C128.666 43.4981 128.449 43.5326 128.282 43.5986C128.119 43.6636 127.997 43.7518 127.922 43.8594C127.847 43.9669 127.811 44.0897 127.811 44.2217C127.811 44.3834 127.858 44.506 127.958 44.5986C128.059 44.6955 128.195 44.7736 128.359 44.8311C128.524 44.8895 128.706 44.9412 128.918 44.9912C129.14 45.0445 129.343 45.0979 129.537 45.1533C129.746 45.214 129.939 45.2937 130.111 45.3916C130.287 45.4906 130.431 45.6251 130.537 45.79C130.646 45.955 130.701 46.17 130.701 46.4297C130.701 46.6895 130.632 46.9168 130.497 47.1309C130.361 47.3449 130.151 47.5186 129.87 47.6475C129.592 47.7752 129.236 47.8398 128.812 47.8398C128.448 47.8398 128.093 47.7827 127.758 47.6699C127.422 47.556 127.154 47.4057 126.96 47.2236L126.938 47.2031L127.225 46.5928L127.265 46.627C127.441 46.7835 127.671 46.9162 127.947 47.0195C128.225 47.1238 128.515 47.1757 128.812 47.1758C129.085 47.1758 129.308 47.1439 129.475 47.0811C129.638 47.0214 129.761 46.9355 129.839 46.8301C129.915 46.7248 129.953 46.6046 129.953 46.4717C129.953 46.3173 129.905 46.1973 129.805 46.1025C129.703 46.0056 129.568 45.9268 129.402 45.8672C129.234 45.8055 129.046 45.7508 128.846 45.7061C128.646 45.6614 128.438 45.6068 128.226 45.543C128.018 45.4812 127.824 45.4006 127.652 45.3027C127.476 45.2037 127.333 45.0676 127.226 44.9004C127.117 44.7322 127.063 44.5129 127.063 44.249C127.063 43.985 127.13 43.7569 127.263 43.5439C127.397 43.3289 127.604 43.1553 127.879 43.0254C128.154 42.8987 128.508 42.834 128.929 42.834ZM99.4688 42.8877C100.025 42.8877 100.46 43.0028 100.762 43.2295C100.876 43.3158 100.968 43.4156 101.041 43.5264C101.16 43.7095 101.221 43.9257 101.221 44.1738C101.221 44.4421 101.159 44.6712 101.039 44.8564C100.936 45.016 100.799 45.1444 100.634 45.2412C100.683 45.2571 100.728 45.2749 100.768 45.293C100.983 45.3931 101.157 45.5408 101.281 45.7314C101.409 45.922 101.473 46.1622 101.473 46.4443C101.473 46.869 101.313 47.2023 100.996 47.4365C100.685 47.6676 100.216 47.7851 99.6055 47.7852H97.2891V42.8877H99.4688ZM112.347 47.7852H111.586V42.8877H112.347V47.7852ZM116.958 46.4033V42.8877H117.721V47.7852H117.102L114.297 44.2695V47.7852H113.536V42.8877H114.153L116.958 46.4033ZM122.355 43.5664H119.669V44.9668H122.062V45.6318H119.669V47.1064H122.451V47.7852H118.908V42.8877H122.355V43.5664ZM98.0498 47.1475H99.5781C99.946 47.1474 100.23 47.0853 100.423 46.9619C100.612 46.8395 100.705 46.6517 100.705 46.3887C100.705 46.1256 100.61 45.9309 100.423 45.8105C100.229 45.6871 99.9441 45.6241 99.5781 45.624H98.0498V47.1475ZM98.0498 44.9873H99.4082C99.7445 44.9873 100.007 44.9242 100.189 44.8008C100.362 44.6858 100.451 44.5188 100.459 44.29V44.2852C100.46 44.2757 100.46 44.2663 100.46 44.2559C100.46 44.012 100.371 43.8333 100.189 43.7119C100.187 43.7099 100.185 43.7072 100.183 43.707C100.006 43.591 99.7579 43.5306 99.4424 43.5264H98.0498V44.9873Z" fill="black"/>
<path d="M2.59806 26.6139C3.82424 26.6139 4.81721 25.6086 4.81721 24.3679C4.81721 23.1273 3.82424 22.123 2.59806 22.123C1.37188 22.123 0.378906 23.1284 0.378906 24.369C0.378906 25.6097 1.37188 26.615 2.59806 26.615V26.6139Z" fill="#3C8404"/>
<path d="M9.30118 32.5525C10.5274 32.5525 11.5203 31.5472 11.5203 30.3065C11.5203 29.0659 10.5274 28.0605 9.30118 28.0605C8.075 28.0605 7.08203 29.0659 7.08203 30.3065C7.08203 31.5472 8.075 32.5525 9.30118 32.5525Z" fill="#3C8404"/>
<path d="M51.5512 25.901C52.7774 25.901 53.7703 24.8957 53.7703 23.6551C53.7703 22.4144 52.7774 21.4102 51.5512 21.4102C50.325 21.4102 49.332 22.4155 49.332 23.6561C49.332 24.8968 50.325 25.9021 51.5512 25.9021V25.901Z" fill="#3C8404"/>
</g>
<defs>
<linearGradient id="paint0_linear_304_15325" x1="83.4102" y1="32.7985" x2="144.378" y2="32.7985" gradientUnits="userSpaceOnUse">
<stop/>
<stop offset="0.17" stop-color="#010400"/>
<stop offset="0.34" stop-color="#071000"/>
<stop offset="0.52" stop-color="#102501"/>
<stop offset="0.7" stop-color="#1E4202"/>
<stop offset="0.88" stop-color="#2F6703"/>
<stop offset="1" stop-color="#3C8404"/>
</linearGradient>
<clipPath id="clip0_304_15325">
<rect width="144" height="72" fill="white" transform="translate(0.378906)"/>
</clipPath>
</defs>
</svg>
