<svg width="144" height="72" viewBox="0 0 144 72" fill="none" xmlns="http://www.w3.org/2000/svg">
<path d="M71.6787 28.1289C73.8281 28.0746 75.5735 28.7201 76.71 29.999C77.8211 31.2024 78.3867 32.6116 78.3867 34.6924V43.8125L78.3857 43.8135H74.3672V34.7002C74.3672 33.7258 74.1253 32.9594 73.6494 32.4248C73.1714 31.8873 72.5277 31.625 71.6816 31.625C70.8354 31.625 70.1924 31.8861 69.7197 32.4238C69.247 32.9595 69.0078 33.7259 69.0078 34.6982V43.8125H64.9756V34.6992C64.9756 33.7248 64.7337 32.9584 64.2578 32.4238C63.7798 31.8863 63.1361 31.624 62.29 31.624C61.4438 31.6241 60.8008 31.8851 60.3281 32.4229C59.8555 32.9595 59.6163 33.7243 59.6162 34.6963V43.8115H55.5977V34.6924C55.5977 32.569 56.1706 31.1426 57.3018 29.9424C58.4382 28.738 60.1164 28.128 62.29 28.1279C64.7269 28.1279 66.2379 29.3331 66.6426 29.7041L67.0469 30.0449L67.5146 29.6787C68.6554 28.748 70.2141 28.1672 71.6787 28.1289ZM27.8486 28.0664C29.3871 28.0664 30.7927 28.4214 32.0273 29.1221C33.2608 29.8228 34.2401 30.7853 34.9365 31.9844C35.633 33.1824 35.9854 34.503 35.9854 35.9375C35.9853 37.3719 35.6319 38.7063 34.9365 39.9043C34.2401 41.1045 33.2585 42.0653 32.0186 42.7607C30.7798 43.456 29.3523 43.8086 27.834 43.8086C26.3156 43.8086 24.9207 43.4535 23.6914 42.7529C22.4621 42.0533 21.4855 41.0923 20.7891 39.8975C20.0928 38.7048 19.7402 37.3633 19.7402 35.9375C19.7402 34.5115 20.0937 33.1814 20.7891 31.9844C21.4855 30.7852 22.4631 29.8227 23.6914 29.123C24.9207 28.4224 26.3102 28.0664 27.8486 28.0664ZM2.22656 22.125C3.45794 22.1251 4.45312 23.1319 4.45312 24.3789V35.8877C4.45322 37.764 5.96446 39.293 7.81738 39.293L10.0225 39.3047C11.8733 39.3047 13.3867 37.7927 13.3867 35.9365C13.3867 34.0803 11.8752 32.5684 10.0127 32.5684H8.92383C7.69454 32.5683 6.69727 31.5615 6.69727 30.3145C6.69738 29.0675 7.6925 28.0616 8.92383 28.0615H10.0127C14.3275 28.0615 17.8369 31.5908 17.8369 35.9326C17.8367 40.2742 14.3285 43.8037 10.0127 43.8037V43.8057L7.81152 43.7949C3.50839 43.7948 0 40.2438 0 35.8818V24.3779C0 23.1351 0.995108 22.125 2.22656 22.125ZM40.1621 23.7324C41.135 23.7325 41.9238 24.5289 41.9238 25.5107V28.1182C41.9238 28.1277 41.9319 28.1357 41.9414 28.1357H44.9453C45.9192 28.1357 46.7098 28.9332 46.71 29.916V29.9844C46.71 30.9673 45.9193 31.7646 44.9453 31.7646H41.9414C41.9319 31.7646 41.9238 31.7726 41.9238 31.7822V37.9629H41.9258C41.9258 40.033 42.9836 40.2724 43.7803 40.2725H46.6943C46.7036 40.2727 46.7109 40.2806 46.7109 40.29V43.7832C46.7108 43.7925 46.7035 43.7996 46.6943 43.7998H43.0576C41.5771 43.7998 40.3272 43.3758 39.3438 42.542C38.3437 41.6943 37.837 40.1002 37.8369 37.8037V25.501C37.8369 24.5329 38.6111 23.7458 39.5703 23.7373L40.1621 23.7324ZM51.1719 28.1357C52.2999 28.1357 53.2148 29.0589 53.2148 30.1973H53.2158V43.7998H49.1289V30.1973C49.129 29.058 50.0441 28.136 51.1719 28.1357ZM27.8623 31.7539C27.1026 31.7539 26.4061 31.9354 25.792 32.291C25.1768 32.6478 24.6864 33.1496 24.334 33.7822C23.9794 34.4191 23.7988 35.1346 23.7988 35.9365C23.7989 36.7383 23.9795 37.4652 24.334 38.0967C24.6864 38.7249 25.1744 39.2228 25.7842 39.5742C26.3941 39.9267 27.093 40.1045 27.8633 40.1045C28.5372 40.1045 29.1562 39.9678 29.709 39.6982L29.9404 39.5742C30.5502 39.2228 31.0382 38.7249 31.3906 38.0967C31.7461 37.4642 31.9258 36.7287 31.9258 35.9365C31.9258 35.1442 31.7452 34.419 31.3906 33.7822C31.0382 33.1496 30.5478 32.6478 29.9326 32.291C29.3185 31.9353 28.622 31.7539 27.8623 31.7539Z" fill="black"/>
<path d="M136.433 43.6973V47.1478C136.433 48.9497 134.981 50.415 133.195 50.415H93.8363C92.0509 50.415 90.5989 48.9497 90.5989 47.1478V43.6973C90.5989 43.6398 90.5999 43.5834 90.6031 43.527H90.7624C90.849 41.8891 92.1923 40.5898 93.8363 40.5898H133.195C134.838 40.5898 136.182 41.8891 136.269 43.527H136.429C136.432 43.5834 136.433 43.6398 136.433 43.6973Z" fill="white"/>
<path d="M136.588 43.5553C136.588 43.5457 136.587 43.5361 136.587 43.5276C136.566 43.0878 136.461 42.6703 136.29 42.2891C136.454 42.6692 136.55 43.0867 136.562 43.5276H136.269C136.274 43.584 136.275 43.6405 136.275 43.698V47.1484C136.275 48.8651 134.895 50.2559 133.195 50.2559H93.8364C92.1354 50.2559 90.7572 48.8651 90.7572 47.1484V43.698C90.7572 43.6405 90.7583 43.584 90.7625 43.5276H90.4671C90.4681 43.3391 90.485 43.1549 90.5166 42.977C90.4787 43.1559 90.4544 43.3402 90.4449 43.5276C90.4449 43.5361 90.4438 43.5457 90.4438 43.5553C90.4417 43.6021 90.4407 43.6501 90.4407 43.698V47.1484C90.4407 49.0387 91.9634 50.5754 93.8364 50.5754H133.195C135.067 50.5754 136.591 49.0387 136.591 47.1484V43.698C136.591 43.6501 136.59 43.6021 136.588 43.5553Z" fill="black"/>
<path d="M136.275 43.6973V47.1478C136.275 48.8645 134.896 50.2553 133.196 50.2553H93.8365C92.1355 50.2553 90.7573 48.8645 90.7573 47.1478V43.6973C90.7573 43.6398 90.7584 43.5834 90.7626 43.527C90.8491 41.8891 92.1924 40.5898 93.8365 40.5898H133.196C134.839 40.5898 136.182 41.8891 136.269 43.527C136.274 43.5834 136.275 43.6398 136.275 43.6973Z" fill="white"/>
<path d="M109.176 31.0318C109.035 30.6772 108.834 30.3694 108.573 30.1096C108.311 29.8497 108.006 29.6484 107.659 29.5068C107.311 29.3652 106.93 29.2938 106.516 29.2938C106.102 29.2938 105.717 29.3652 105.363 29.5068C105.007 29.6484 104.7 29.8518 104.443 30.116C104.185 30.3801 103.981 30.6868 103.834 31.0382C103.685 31.3886 103.611 31.7773 103.611 32.2022C103.611 32.6271 103.685 33.0062 103.834 33.3608C103.981 33.7155 104.185 34.0254 104.443 34.2895C104.7 34.5536 105.007 34.7559 105.363 34.8986C105.717 35.0403 106.102 35.1105 106.516 35.1105C106.93 35.1105 107.311 35.0403 107.659 34.8986C108.006 34.7559 108.309 34.5557 108.566 34.2948C108.825 34.0349 109.025 33.7272 109.17 33.3726C109.315 33.0179 109.386 32.6282 109.386 32.2022C109.386 31.7762 109.317 31.3864 109.176 31.0318ZM109.176 31.0318C109.035 30.6772 108.834 30.3694 108.573 30.1096C108.311 29.8497 108.006 29.6484 107.659 29.5068C107.311 29.3652 106.93 29.2938 106.516 29.2938C106.102 29.2938 105.717 29.3652 105.363 29.5068C105.007 29.6484 104.7 29.8518 104.443 30.116C104.185 30.3801 103.981 30.6868 103.834 31.0382C103.685 31.3886 103.611 31.7773 103.611 32.2022C103.611 32.6271 103.685 33.0062 103.834 33.3608C103.981 33.7155 104.185 34.0254 104.443 34.2895C104.7 34.5536 105.007 34.7559 105.363 34.8986C105.717 35.0403 106.102 35.1105 106.516 35.1105C106.93 35.1105 107.311 35.0403 107.659 34.8986C108.006 34.7559 108.309 34.5557 108.566 34.2948C108.825 34.0349 109.025 33.7272 109.17 33.3726C109.315 33.0179 109.386 32.6282 109.386 32.2022C109.386 31.7762 109.317 31.3864 109.176 31.0318ZM109.176 31.0318C109.035 30.6772 108.834 30.3694 108.573 30.1096C108.311 29.8497 108.006 29.6484 107.659 29.5068C107.311 29.3652 106.93 29.2938 106.516 29.2938C106.102 29.2938 105.717 29.3652 105.363 29.5068C105.007 29.6484 104.7 29.8518 104.443 30.116C104.185 30.3801 103.981 30.6868 103.834 31.0382C103.685 31.3886 103.611 31.7773 103.611 32.2022C103.611 32.6271 103.685 33.0062 103.834 33.3608C103.981 33.7155 104.185 34.0254 104.443 34.2895C104.7 34.5536 105.007 34.7559 105.363 34.8986C105.717 35.0403 106.102 35.1105 106.516 35.1105C106.93 35.1105 107.311 35.0403 107.659 34.8986C108.006 34.7559 108.309 34.5557 108.566 34.2948C108.825 34.0349 109.025 33.7272 109.17 33.3726C109.315 33.0179 109.386 32.6282 109.386 32.2022C109.386 31.7762 109.317 31.3864 109.176 31.0318ZM109.176 31.0318C109.035 30.6772 108.834 30.3694 108.573 30.1096C108.311 29.8497 108.006 29.6484 107.659 29.5068C107.311 29.3652 106.93 29.2938 106.516 29.2938C106.102 29.2938 105.717 29.3652 105.363 29.5068C105.007 29.6484 104.7 29.8518 104.443 30.116C104.185 30.3801 103.981 30.6868 103.834 31.0382C103.685 31.3886 103.611 31.7773 103.611 32.2022C103.611 32.6271 103.685 33.0062 103.834 33.3608C103.981 33.7155 104.185 34.0254 104.443 34.2895C104.7 34.5536 105.007 34.7559 105.363 34.8986C105.717 35.0403 106.102 35.1105 106.516 35.1105C106.93 35.1105 107.311 35.0403 107.659 34.8986C108.006 34.7559 108.309 34.5557 108.566 34.2948C108.825 34.0349 109.025 33.7272 109.17 33.3726C109.315 33.0179 109.386 32.6282 109.386 32.2022C109.386 31.7762 109.317 31.3864 109.176 31.0318ZM109.176 31.0318C109.035 30.6772 108.834 30.3694 108.573 30.1096C108.311 29.8497 108.006 29.6484 107.659 29.5068C107.311 29.3652 106.93 29.2938 106.516 29.2938C106.102 29.2938 105.717 29.3652 105.363 29.5068C105.007 29.6484 104.7 29.8518 104.443 30.116C104.185 30.3801 103.981 30.6868 103.834 31.0382C103.685 31.3886 103.611 31.7773 103.611 32.2022C103.611 32.6271 103.685 33.0062 103.834 33.3608C103.981 33.7155 104.185 34.0254 104.443 34.2895C104.7 34.5536 105.007 34.7559 105.363 34.8986C105.717 35.0403 106.102 35.1105 106.516 35.1105C106.93 35.1105 107.311 35.0403 107.659 34.8986C108.006 34.7559 108.309 34.5557 108.566 34.2948C108.825 34.0349 109.025 33.7272 109.17 33.3726C109.315 33.0179 109.386 32.6282 109.386 32.2022C109.386 31.7762 109.317 31.3864 109.176 31.0318ZM109.176 31.0318C109.035 30.6772 108.834 30.3694 108.573 30.1096C108.311 29.8497 108.006 29.6484 107.659 29.5068C107.311 29.3652 106.93 29.2938 106.516 29.2938C106.102 29.2938 105.717 29.3652 105.363 29.5068C105.007 29.6484 104.7 29.8518 104.443 30.116C104.185 30.3801 103.981 30.6868 103.834 31.0382C103.685 31.3886 103.611 31.7773 103.611 32.2022C103.611 32.6271 103.685 33.0062 103.834 33.3608C103.981 33.7155 104.185 34.0254 104.443 34.2895C104.7 34.5536 105.007 34.7559 105.363 34.8986C105.717 35.0403 106.102 35.1105 106.516 35.1105C106.93 35.1105 107.311 35.0403 107.659 34.8986C108.006 34.7559 108.309 34.5557 108.566 34.2948C108.825 34.0349 109.025 33.7272 109.17 33.3726C109.315 33.0179 109.386 32.6282 109.386 32.2022C109.386 31.7762 109.317 31.3864 109.176 31.0318ZM109.176 31.0318C109.035 30.6772 108.834 30.3694 108.573 30.1096C108.311 29.8497 108.006 29.6484 107.659 29.5068C107.311 29.3652 106.93 29.2938 106.516 29.2938C106.102 29.2938 105.717 29.3652 105.363 29.5068C105.007 29.6484 104.7 29.8518 104.443 30.116C104.185 30.3801 103.981 30.6868 103.834 31.0382C103.685 31.3886 103.611 31.7773 103.611 32.2022C103.611 32.6271 103.685 33.0062 103.834 33.3608C103.981 33.7155 104.185 34.0254 104.443 34.2895C104.7 34.5536 105.007 34.7559 105.363 34.8986C105.717 35.0403 106.102 35.1105 106.516 35.1105C106.93 35.1105 107.311 35.0403 107.659 34.8986C108.006 34.7559 108.309 34.5557 108.566 34.2948C108.825 34.0349 109.025 33.7272 109.17 33.3726C109.315 33.0179 109.386 32.6282 109.386 32.2022C109.386 31.7762 109.317 31.3864 109.176 31.0318ZM109.176 31.0318C109.035 30.6772 108.834 30.3694 108.573 30.1096C108.311 29.8497 108.006 29.6484 107.659 29.5068C107.311 29.3652 106.93 29.2938 106.516 29.2938C106.102 29.2938 105.717 29.3652 105.363 29.5068C105.007 29.6484 104.7 29.8518 104.443 30.116C104.185 30.3801 103.981 30.6868 103.834 31.0382C103.685 31.3886 103.611 31.7773 103.611 32.2022C103.611 32.6271 103.685 33.0062 103.834 33.3608C103.981 33.7155 104.185 34.0254 104.443 34.2895C104.7 34.5536 105.007 34.7559 105.363 34.8986C105.717 35.0403 106.102 35.1105 106.516 35.1105C106.93 35.1105 107.311 35.0403 107.659 34.8986C108.006 34.7559 108.309 34.5557 108.566 34.2948C108.825 34.0349 109.025 33.7272 109.17 33.3726C109.315 33.0179 109.386 32.6282 109.386 32.2022C109.386 31.7762 109.317 31.3864 109.176 31.0318ZM109.176 31.0318C109.035 30.6772 108.834 30.3694 108.573 30.1096C108.311 29.8497 108.006 29.6484 107.659 29.5068C107.311 29.3652 106.93 29.2938 106.516 29.2938C106.102 29.2938 105.717 29.3652 105.363 29.5068C105.007 29.6484 104.7 29.8518 104.443 30.116C104.185 30.3801 103.981 30.6868 103.834 31.0382C103.685 31.3886 103.611 31.7773 103.611 32.2022C103.611 32.6271 103.685 33.0062 103.834 33.3608C103.981 33.7155 104.185 34.0254 104.443 34.2895C104.7 34.5536 105.007 34.7559 105.363 34.8986C105.717 35.0403 106.102 35.1105 106.516 35.1105C106.93 35.1105 107.311 35.0403 107.659 34.8986C108.006 34.7559 108.309 34.5557 108.566 34.2948C108.825 34.0349 109.025 33.7272 109.17 33.3726C109.315 33.0179 109.386 32.6282 109.386 32.2022C109.386 31.7762 109.317 31.3864 109.176 31.0318ZM109.176 31.0318C109.035 30.6772 108.834 30.3694 108.573 30.1096C108.311 29.8497 108.006 29.6484 107.659 29.5068C107.311 29.3652 106.93 29.2938 106.516 29.2938C106.102 29.2938 105.717 29.3652 105.363 29.5068C105.007 29.6484 104.7 29.8518 104.443 30.116C104.185 30.3801 103.981 30.6868 103.834 31.0382C103.685 31.3886 103.611 31.7773 103.611 32.2022C103.611 32.6271 103.685 33.0062 103.834 33.3608C103.981 33.7155 104.185 34.0254 104.443 34.2895C104.7 34.5536 105.007 34.7559 105.363 34.8986C105.717 35.0403 106.102 35.1105 106.516 35.1105C106.93 35.1105 107.311 35.0403 107.659 34.8986C108.006 34.7559 108.309 34.5557 108.566 34.2948C108.825 34.0349 109.025 33.7272 109.17 33.3726C109.315 33.0179 109.386 32.6282 109.386 32.2022C109.386 31.7762 109.317 31.3864 109.176 31.0318ZM109.176 31.0318C109.035 30.6772 108.834 30.3694 108.573 30.1096C108.311 29.8497 108.006 29.6484 107.659 29.5068C107.311 29.3652 106.93 29.2938 106.516 29.2938C106.102 29.2938 105.717 29.3652 105.363 29.5068C105.007 29.6484 104.7 29.8518 104.443 30.116C104.185 30.3801 103.981 30.6868 103.834 31.0382C103.685 31.3886 103.611 31.7773 103.611 32.2022C103.611 32.6271 103.685 33.0062 103.834 33.3608C103.981 33.7155 104.185 34.0254 104.443 34.2895C104.7 34.5536 105.007 34.7559 105.363 34.8986C105.717 35.0403 106.102 35.1105 106.516 35.1105C106.93 35.1105 107.311 35.0403 107.659 34.8986C108.006 34.7559 108.309 34.5557 108.566 34.2948C108.825 34.0349 109.025 33.7272 109.17 33.3726C109.315 33.0179 109.386 32.6282 109.386 32.2022C109.386 31.7762 109.317 31.3864 109.176 31.0318ZM109.176 31.0318C109.035 30.6772 108.834 30.3694 108.573 30.1096C108.311 29.8497 108.006 29.6484 107.659 29.5068C107.311 29.3652 106.93 29.2938 106.516 29.2938C106.102 29.2938 105.717 29.3652 105.363 29.5068C105.007 29.6484 104.7 29.8518 104.443 30.116C104.185 30.3801 103.981 30.6868 103.834 31.0382C103.685 31.3886 103.611 31.7773 103.611 32.2022C103.611 32.6271 103.685 33.0062 103.834 33.3608C103.981 33.7155 104.185 34.0254 104.443 34.2895C104.7 34.5536 105.007 34.7559 105.363 34.8986C105.717 35.0403 106.102 35.1105 106.516 35.1105C106.93 35.1105 107.311 35.0403 107.659 34.8986C108.006 34.7559 108.309 34.5557 108.566 34.2948C108.825 34.0349 109.025 33.7272 109.17 33.3726C109.315 33.0179 109.386 32.6282 109.386 32.2022C109.386 31.7762 109.317 31.3864 109.176 31.0318ZM109.176 31.0318C109.035 30.6772 108.834 30.3694 108.573 30.1096C108.311 29.8497 108.006 29.6484 107.659 29.5068C107.311 29.3652 106.93 29.2938 106.516 29.2938C106.102 29.2938 105.717 29.3652 105.363 29.5068C105.007 29.6484 104.7 29.8518 104.443 30.116C104.185 30.3801 103.981 30.6868 103.834 31.0382C103.685 31.3886 103.611 31.7773 103.611 32.2022C103.611 32.6271 103.685 33.0062 103.834 33.3608C103.981 33.7155 104.185 34.0254 104.443 34.2895C104.7 34.5536 105.007 34.7559 105.363 34.8986C105.717 35.0403 106.102 35.1105 106.516 35.1105C106.93 35.1105 107.311 35.0403 107.659 34.8986C108.006 34.7559 108.309 34.5557 108.566 34.2948C108.825 34.0349 109.025 33.7272 109.17 33.3726C109.315 33.0179 109.386 32.6282 109.386 32.2022C109.386 31.7762 109.317 31.3864 109.176 31.0318ZM109.176 31.0318C109.035 30.6772 108.834 30.3694 108.573 30.1096C108.311 29.8497 108.006 29.6484 107.659 29.5068C107.311 29.3652 106.93 29.2938 106.516 29.2938C106.102 29.2938 105.717 29.3652 105.363 29.5068C105.007 29.6484 104.7 29.8518 104.443 30.116C104.185 30.3801 103.981 30.6868 103.834 31.0382C103.685 31.3886 103.611 31.7773 103.611 32.2022C103.611 32.6271 103.685 33.0062 103.834 33.3608C103.981 33.7155 104.185 34.0254 104.443 34.2895C104.7 34.5536 105.007 34.7559 105.363 34.8986C105.717 35.0403 106.102 35.1105 106.516 35.1105C106.93 35.1105 107.311 35.0403 107.659 34.8986C108.006 34.7559 108.309 34.5557 108.566 34.2948C108.825 34.0349 109.025 33.7272 109.17 33.3726C109.315 33.0179 109.386 32.6282 109.386 32.2022C109.386 31.7762 109.317 31.3864 109.176 31.0318ZM109.176 31.0318C109.035 30.6772 108.834 30.3694 108.573 30.1096C108.311 29.8497 108.006 29.6484 107.659 29.5068C107.311 29.3652 106.93 29.2938 106.516 29.2938C106.102 29.2938 105.717 29.3652 105.363 29.5068C105.007 29.6484 104.7 29.8518 104.443 30.116C104.185 30.3801 103.981 30.6868 103.834 31.0382C103.685 31.3886 103.611 31.7773 103.611 32.2022C103.611 32.6271 103.685 33.0062 103.834 33.3608C103.981 33.7155 104.185 34.0254 104.443 34.2895C104.7 34.5536 105.007 34.7559 105.363 34.8986C105.717 35.0403 106.102 35.1105 106.516 35.1105C106.93 35.1105 107.311 35.0403 107.659 34.8986C108.006 34.7559 108.309 34.5557 108.566 34.2948C108.825 34.0349 109.025 33.7272 109.17 33.3726C109.315 33.0179 109.386 32.6282 109.386 32.2022C109.386 31.7762 109.317 31.3864 109.176 31.0318ZM109.176 31.0318C109.035 30.6772 108.834 30.3694 108.573 30.1096C108.311 29.8497 108.006 29.6484 107.659 29.5068C107.311 29.3652 106.93 29.2938 106.516 29.2938C106.102 29.2938 105.717 29.3652 105.363 29.5068C105.007 29.6484 104.7 29.8518 104.443 30.116C104.185 30.3801 103.981 30.6868 103.834 31.0382C103.685 31.3886 103.611 31.7773 103.611 32.2022C103.611 32.6271 103.685 33.0062 103.834 33.3608C103.981 33.7155 104.185 34.0254 104.443 34.2895C104.7 34.5536 105.007 34.7559 105.363 34.8986C105.717 35.0403 106.102 35.1105 106.516 35.1105C106.93 35.1105 107.311 35.0403 107.659 34.8986C108.006 34.7559 108.309 34.5557 108.566 34.2948C108.825 34.0349 109.025 33.7272 109.17 33.3726C109.315 33.0179 109.386 32.6282 109.386 32.2022C109.386 31.7762 109.317 31.3864 109.176 31.0318ZM109.176 31.0318C109.035 30.6772 108.834 30.3694 108.573 30.1096C108.311 29.8497 108.006 29.6484 107.659 29.5068C107.311 29.3652 106.93 29.2938 106.516 29.2938C106.102 29.2938 105.717 29.3652 105.363 29.5068C105.007 29.6484 104.7 29.8518 104.443 30.116C104.185 30.3801 103.981 30.6868 103.834 31.0382C103.685 31.3886 103.611 31.7773 103.611 32.2022C103.611 32.6271 103.685 33.0062 103.834 33.3608C103.981 33.7155 104.185 34.0254 104.443 34.2895C104.7 34.5536 105.007 34.7559 105.363 34.8986C105.717 35.0403 106.102 35.1105 106.516 35.1105C106.93 35.1105 107.311 35.0403 107.659 34.8986C108.006 34.7559 108.309 34.5557 108.566 34.2948C108.825 34.0349 109.025 33.7272 109.17 33.3726C109.315 33.0179 109.386 32.6282 109.386 32.2022C109.386 31.7762 109.317 31.3864 109.176 31.0318ZM109.176 31.0318C109.035 30.6772 108.834 30.3694 108.573 30.1096C108.311 29.8497 108.006 29.6484 107.659 29.5068C107.311 29.3652 106.93 29.2938 106.516 29.2938C106.102 29.2938 105.717 29.3652 105.363 29.5068C105.007 29.6484 104.7 29.8518 104.443 30.116C104.185 30.3801 103.981 30.6868 103.834 31.0382C103.685 31.3886 103.611 31.7773 103.611 32.2022C103.611 32.6271 103.685 33.0062 103.834 33.3608C103.981 33.7155 104.185 34.0254 104.443 34.2895C104.7 34.5536 105.007 34.7559 105.363 34.8986C105.717 35.0403 106.102 35.1105 106.516 35.1105C106.93 35.1105 107.311 35.0403 107.659 34.8986C108.006 34.7559 108.309 34.5557 108.566 34.2948C108.825 34.0349 109.025 33.7272 109.17 33.3726C109.315 33.0179 109.386 32.6282 109.386 32.2022C109.386 31.7762 109.317 31.3864 109.176 31.0318ZM109.176 31.0318C109.035 30.6772 108.834 30.3694 108.573 30.1096C108.311 29.8497 108.006 29.6484 107.659 29.5068C107.311 29.3652 106.93 29.2938 106.516 29.2938C106.102 29.2938 105.717 29.3652 105.363 29.5068C105.007 29.6484 104.7 29.8518 104.443 30.116C104.185 30.3801 103.981 30.6868 103.834 31.0382C103.685 31.3886 103.611 31.7773 103.611 32.2022C103.611 32.6271 103.685 33.0062 103.834 33.3608C103.981 33.7155 104.185 34.0254 104.443 34.2895C104.7 34.5536 105.007 34.7559 105.363 34.8986C105.717 35.0403 106.102 35.1105 106.516 35.1105C106.93 35.1105 107.311 35.0403 107.659 34.8986C108.006 34.7559 108.309 34.5557 108.566 34.2948C108.825 34.0349 109.025 33.7272 109.17 33.3726C109.315 33.0179 109.386 32.6282 109.386 32.2022C109.386 31.7762 109.317 31.3864 109.176 31.0318ZM109.176 31.0318C109.035 30.6772 108.834 30.3694 108.573 30.1096C108.311 29.8497 108.006 29.6484 107.659 29.5068C107.311 29.3652 106.93 29.2938 106.516 29.2938C106.102 29.2938 105.717 29.3652 105.363 29.5068C105.007 29.6484 104.7 29.8518 104.443 30.116C104.185 30.3801 103.981 30.6868 103.834 31.0382C103.685 31.3886 103.611 31.7773 103.611 32.2022C103.611 32.6271 103.685 33.0062 103.834 33.3608C103.981 33.7155 104.185 34.0254 104.443 34.2895C104.7 34.5536 105.007 34.7559 105.363 34.8986C105.717 35.0403 106.102 35.1105 106.516 35.1105C106.93 35.1105 107.311 35.0403 107.659 34.8986C108.006 34.7559 108.309 34.5557 108.566 34.2948C108.825 34.0349 109.025 33.7272 109.17 33.3726C109.315 33.0179 109.386 32.6282 109.386 32.2022C109.386 31.7762 109.317 31.3864 109.176 31.0318ZM109.176 31.0318C109.035 30.6772 108.834 30.3694 108.573 30.1096C108.311 29.8497 108.006 29.6484 107.659 29.5068C107.311 29.3652 106.93 29.2938 106.516 29.2938C106.102 29.2938 105.717 29.3652 105.363 29.5068C105.007 29.6484 104.7 29.8518 104.443 30.116C104.185 30.3801 103.981 30.6868 103.834 31.0382C103.685 31.3886 103.611 31.7773 103.611 32.2022C103.611 32.6271 103.685 33.0062 103.834 33.3608C103.981 33.7155 104.185 34.0254 104.443 34.2895C104.7 34.5536 105.007 34.7559 105.363 34.8986C105.717 35.0403 106.102 35.1105 106.516 35.1105C106.93 35.1105 107.311 35.0403 107.659 34.8986C108.006 34.7559 108.309 34.5557 108.566 34.2948C108.825 34.0349 109.025 33.7272 109.17 33.3726C109.315 33.0179 109.386 32.6282 109.386 32.2022C109.386 31.7762 109.317 31.3864 109.176 31.0318ZM109.176 31.0318C109.035 30.6772 108.834 30.3694 108.573 30.1096C108.311 29.8497 108.006 29.6484 107.659 29.5068C107.311 29.3652 106.93 29.2938 106.516 29.2938C106.102 29.2938 105.717 29.3652 105.363 29.5068C105.007 29.6484 104.7 29.8518 104.443 30.116C104.185 30.3801 103.981 30.6868 103.834 31.0382C103.685 31.3886 103.611 31.7773 103.611 32.2022C103.611 32.6271 103.685 33.0062 103.834 33.3608C103.981 33.7155 104.185 34.0254 104.443 34.2895C104.7 34.5536 105.007 34.7559 105.363 34.8986C105.717 35.0403 106.102 35.1105 106.516 35.1105C106.93 35.1105 107.311 35.0403 107.659 34.8986C108.006 34.7559 108.309 34.5557 108.566 34.2948C108.825 34.0349 109.025 33.7272 109.17 33.3726C109.315 33.0179 109.386 32.6282 109.386 32.2022C109.386 31.7762 109.317 31.3864 109.176 31.0318ZM109.176 31.0318C109.035 30.6772 108.834 30.3694 108.573 30.1096C108.311 29.8497 108.006 29.6484 107.659 29.5068C107.311 29.3652 106.93 29.2938 106.516 29.2938C106.102 29.2938 105.717 29.3652 105.363 29.5068C105.007 29.6484 104.7 29.8518 104.443 30.116C104.185 30.3801 103.981 30.6868 103.834 31.0382C103.685 31.3886 103.611 31.7773 103.611 32.2022C103.611 32.6271 103.685 33.0062 103.834 33.3608C103.981 33.7155 104.185 34.0254 104.443 34.2895C104.7 34.5536 105.007 34.7559 105.363 34.8986C105.717 35.0403 106.102 35.1105 106.516 35.1105C106.93 35.1105 107.311 35.0403 107.659 34.8986C108.006 34.7559 108.309 34.5557 108.566 34.2948C108.825 34.0349 109.025 33.7272 109.17 33.3726C109.315 33.0179 109.386 32.6282 109.386 32.2022C109.386 31.7762 109.317 31.3864 109.176 31.0318ZM109.176 31.0318C109.035 30.6772 108.834 30.3694 108.573 30.1096C108.311 29.8497 108.006 29.6484 107.659 29.5068C107.311 29.3652 106.93 29.2938 106.516 29.2938C106.102 29.2938 105.717 29.3652 105.363 29.5068C105.007 29.6484 104.7 29.8518 104.443 30.116C104.185 30.3801 103.981 30.6868 103.834 31.0382C103.685 31.3886 103.611 31.7773 103.611 32.2022C103.611 32.6271 103.685 33.0062 103.834 33.3608C103.981 33.7155 104.185 34.0254 104.443 34.2895C104.7 34.5536 105.007 34.7559 105.363 34.8986C105.717 35.0403 106.102 35.1105 106.516 35.1105C106.93 35.1105 107.311 35.0403 107.659 34.8986C108.006 34.7559 108.309 34.5557 108.566 34.2948C108.825 34.0349 109.025 33.7272 109.17 33.3726C109.315 33.0179 109.386 32.6282 109.386 32.2022C109.386 31.7762 109.317 31.3864 109.176 31.0318ZM109.176 31.0318C109.035 30.6772 108.834 30.3694 108.573 30.1096C108.311 29.8497 108.006 29.6484 107.659 29.5068C107.311 29.3652 106.93 29.2938 106.516 29.2938C106.102 29.2938 105.717 29.3652 105.363 29.5068C105.007 29.6484 104.7 29.8518 104.443 30.116C104.185 30.3801 103.981 30.6868 103.834 31.0382C103.685 31.3886 103.611 31.7773 103.611 32.2022C103.611 32.6271 103.685 33.0062 103.834 33.3608C103.981 33.7155 104.185 34.0254 104.443 34.2895C104.7 34.5536 105.007 34.7559 105.363 34.8986C105.717 35.0403 106.102 35.1105 106.516 35.1105C106.93 35.1105 107.311 35.0403 107.659 34.8986C108.006 34.7559 108.309 34.5557 108.566 34.2948C108.825 34.0349 109.025 33.7272 109.17 33.3726C109.315 33.0179 109.386 32.6282 109.386 32.2022C109.386 31.7762 109.317 31.3864 109.176 31.0318ZM109.176 31.0318C109.035 30.6772 108.834 30.3694 108.573 30.1096C108.311 29.8497 108.006 29.6484 107.659 29.5068C107.311 29.3652 106.93 29.2938 106.516 29.2938C106.102 29.2938 105.717 29.3652 105.363 29.5068C105.007 29.6484 104.7 29.8518 104.443 30.116C104.185 30.3801 103.981 30.6868 103.834 31.0382C103.685 31.3886 103.611 31.7773 103.611 32.2022C103.611 32.6271 103.685 33.0062 103.834 33.3608C103.981 33.7155 104.185 34.0254 104.443 34.2895C104.7 34.5536 105.007 34.7559 105.363 34.8986C105.717 35.0403 106.102 35.1105 106.516 35.1105C106.93 35.1105 107.311 35.0403 107.659 34.8986C108.006 34.7559 108.309 34.5557 108.566 34.2948C108.825 34.0349 109.025 33.7272 109.17 33.3726C109.315 33.0179 109.386 32.6282 109.386 32.2022C109.386 31.7762 109.317 31.3864 109.176 31.0318ZM109.176 31.0318C109.035 30.6772 108.834 30.3694 108.573 30.1096C108.311 29.8497 108.006 29.6484 107.659 29.5068C107.311 29.3652 106.93 29.2938 106.516 29.2938C106.102 29.2938 105.717 29.3652 105.363 29.5068C105.007 29.6484 104.7 29.8518 104.443 30.116C104.185 30.3801 103.981 30.6868 103.834 31.0382C103.685 31.3886 103.611 31.7773 103.611 32.2022C103.611 32.6271 103.685 33.0062 103.834 33.3608C103.981 33.7155 104.185 34.0254 104.443 34.2895C104.7 34.5536 105.007 34.7559 105.363 34.8986C105.717 35.0403 106.102 35.1105 106.516 35.1105C106.93 35.1105 107.311 35.0403 107.659 34.8986C108.006 34.7559 108.309 34.5557 108.566 34.2948C108.825 34.0349 109.025 33.7272 109.17 33.3726C109.315 33.0179 109.386 32.6282 109.386 32.2022C109.386 31.7762 109.317 31.3864 109.176 31.0318ZM109.176 31.0318C109.035 30.6772 108.834 30.3694 108.573 30.1096C108.311 29.8497 108.006 29.6484 107.659 29.5068C107.311 29.3652 106.93 29.2938 106.516 29.2938C106.102 29.2938 105.717 29.3652 105.363 29.5068C105.007 29.6484 104.7 29.8518 104.443 30.116C104.185 30.3801 103.981 30.6868 103.834 31.0382C103.685 31.3886 103.611 31.7773 103.611 32.2022C103.611 32.6271 103.685 33.0062 103.834 33.3608C103.981 33.7155 104.185 34.0254 104.443 34.2895C104.7 34.5536 105.007 34.7559 105.363 34.8986C105.717 35.0403 106.102 35.1105 106.516 35.1105C106.93 35.1105 107.311 35.0403 107.659 34.8986C108.006 34.7559 108.309 34.5557 108.566 34.2948C108.825 34.0349 109.025 33.7272 109.17 33.3726C109.315 33.0179 109.386 32.6282 109.386 32.2022C109.386 31.7762 109.317 31.3864 109.176 31.0318ZM109.176 31.0318C109.035 30.6772 108.834 30.3694 108.573 30.1096C108.311 29.8497 108.006 29.6484 107.659 29.5068C107.311 29.3652 106.93 29.2938 106.516 29.2938C106.102 29.2938 105.717 29.3652 105.363 29.5068C105.007 29.6484 104.7 29.8518 104.443 30.116C104.185 30.3801 103.981 30.6868 103.834 31.0382C103.685 31.3886 103.611 31.7773 103.611 32.2022C103.611 32.6271 103.685 33.0062 103.834 33.3608C103.981 33.7155 104.185 34.0254 104.443 34.2895C104.7 34.5536 105.007 34.7559 105.363 34.8986C105.717 35.0403 106.102 35.1105 106.516 35.1105C106.93 35.1105 107.311 35.0403 107.659 34.8986C108.006 34.7559 108.309 34.5557 108.566 34.2948C108.825 34.0349 109.025 33.7272 109.17 33.3726C109.315 33.0179 109.386 32.6282 109.386 32.2022C109.386 31.7762 109.317 31.3864 109.176 31.0318ZM109.176 31.0318C109.035 30.6772 108.834 30.3694 108.573 30.1096C108.311 29.8497 108.006 29.6484 107.659 29.5068C107.311 29.3652 106.93 29.2938 106.516 29.2938C106.102 29.2938 105.717 29.3652 105.363 29.5068C105.007 29.6484 104.7 29.8518 104.443 30.116C104.185 30.3801 103.981 30.6868 103.834 31.0382C103.685 31.3886 103.611 31.7773 103.611 32.2022C103.611 32.6271 103.685 33.0062 103.834 33.3608C103.981 33.7155 104.185 34.0254 104.443 34.2895C104.7 34.5536 105.007 34.7559 105.363 34.8986C105.717 35.0403 106.102 35.1105 106.516 35.1105C106.93 35.1105 107.311 35.0403 107.659 34.8986C108.006 34.7559 108.309 34.5557 108.566 34.2948C108.825 34.0349 109.025 33.7272 109.17 33.3726C109.315 33.0179 109.386 32.6282 109.386 32.2022C109.386 31.7762 109.317 31.3864 109.176 31.0318ZM109.176 31.0318C109.035 30.6772 108.834 30.3694 108.573 30.1096C108.311 29.8497 108.006 29.6484 107.659 29.5068C107.311 29.3652 106.93 29.2938 106.516 29.2938C106.102 29.2938 105.717 29.3652 105.363 29.5068C105.007 29.6484 104.7 29.8518 104.443 30.116C104.185 30.3801 103.981 30.6868 103.834 31.0382C103.685 31.3886 103.611 31.7773 103.611 32.2022C103.611 32.6271 103.685 33.0062 103.834 33.3608C103.981 33.7155 104.185 34.0254 104.443 34.2895C104.7 34.5536 105.007 34.7559 105.363 34.8986C105.717 35.0403 106.102 35.1105 106.516 35.1105C106.93 35.1105 107.311 35.0403 107.659 34.8986C108.006 34.7559 108.309 34.5557 108.566 34.2948C108.825 34.0349 109.025 33.7272 109.17 33.3726C109.315 33.0179 109.386 32.6282 109.386 32.2022C109.386 31.7762 109.317 31.3864 109.176 31.0318ZM109.176 31.0318C109.035 30.6772 108.834 30.3694 108.573 30.1096C108.311 29.8497 108.006 29.6484 107.659 29.5068C107.311 29.3652 106.93 29.2938 106.516 29.2938C106.102 29.2938 105.717 29.3652 105.363 29.5068C105.007 29.6484 104.7 29.8518 104.443 30.116C104.185 30.3801 103.981 30.6868 103.834 31.0382C103.685 31.3886 103.611 31.7773 103.611 32.2022C103.611 32.6271 103.685 33.0062 103.834 33.3608C103.981 33.7155 104.185 34.0254 104.443 34.2895C104.7 34.5536 105.007 34.7559 105.363 34.8986C105.717 35.0403 106.102 35.1105 106.516 35.1105C106.93 35.1105 107.311 35.0403 107.659 34.8986C108.006 34.7559 108.309 34.5557 108.566 34.2948C108.825 34.0349 109.025 33.7272 109.17 33.3726C109.315 33.0179 109.386 32.6282 109.386 32.2022C109.386 31.7762 109.317 31.3864 109.176 31.0318ZM109.176 31.0318C109.035 30.6772 108.834 30.3694 108.573 30.1096C108.311 29.8497 108.006 29.6484 107.659 29.5068C107.311 29.3652 106.93 29.2938 106.516 29.2938C106.102 29.2938 105.717 29.3652 105.363 29.5068C105.007 29.6484 104.7 29.8518 104.443 30.116C104.185 30.3801 103.981 30.6868 103.834 31.0382C103.685 31.3886 103.611 31.7773 103.611 32.2022C103.611 32.6271 103.685 33.0062 103.834 33.3608C103.981 33.7155 104.185 34.0254 104.443 34.2895C104.7 34.5536 105.007 34.7559 105.363 34.8986C105.717 35.0403 106.102 35.1105 106.516 35.1105C106.93 35.1105 107.311 35.0403 107.659 34.8986C108.006 34.7559 108.309 34.5557 108.566 34.2948C108.825 34.0349 109.025 33.7272 109.17 33.3726C109.315 33.0179 109.386 32.6282 109.386 32.2022C109.386 31.7762 109.317 31.3864 109.176 31.0318ZM109.176 31.0318C109.035 30.6772 108.834 30.3694 108.573 30.1096C108.311 29.8497 108.006 29.6484 107.659 29.5068C107.311 29.3652 106.93 29.2938 106.516 29.2938C106.102 29.2938 105.717 29.3652 105.363 29.5068C105.007 29.6484 104.7 29.8518 104.443 30.116C104.185 30.3801 103.981 30.6868 103.834 31.0382C103.685 31.3886 103.611 31.7773 103.611 32.2022C103.611 32.6271 103.685 33.0062 103.834 33.3608C103.981 33.7155 104.185 34.0254 104.443 34.2895C104.7 34.5536 105.007 34.7559 105.363 34.8986C105.717 35.0403 106.102 35.1105 106.516 35.1105C106.93 35.1105 107.311 35.0403 107.659 34.8986C108.006 34.7559 108.309 34.5557 108.566 34.2948C108.825 34.0349 109.025 33.7272 109.17 33.3726C109.315 33.0179 109.386 32.6282 109.386 32.2022C109.386 31.7762 109.317 31.3864 109.176 31.0318ZM109.176 31.0318C109.035 30.6772 108.834 30.3694 108.573 30.1096C108.311 29.8497 108.006 29.6484 107.659 29.5068C107.311 29.3652 106.93 29.2938 106.516 29.2938C106.102 29.2938 105.717 29.3652 105.363 29.5068C105.007 29.6484 104.7 29.8518 104.443 30.116C104.185 30.3801 103.981 30.6868 103.834 31.0382C103.685 31.3886 103.611 31.7773 103.611 32.2022C103.611 32.6271 103.685 33.0062 103.834 33.3608C103.981 33.7155 104.185 34.0254 104.443 34.2895C104.7 34.5536 105.007 34.7559 105.363 34.8986C105.717 35.0403 106.102 35.1105 106.516 35.1105C106.93 35.1105 107.311 35.0403 107.659 34.8986C108.006 34.7559 108.309 34.5557 108.566 34.2948C108.825 34.0349 109.025 33.7272 109.17 33.3726C109.315 33.0179 109.386 32.6282 109.386 32.2022C109.386 31.7762 109.317 31.3864 109.176 31.0318ZM109.176 31.0318C109.035 30.6772 108.834 30.3694 108.573 30.1096C108.311 29.8497 108.006 29.6484 107.659 29.5068C107.311 29.3652 106.93 29.2938 106.516 29.2938C106.102 29.2938 105.717 29.3652 105.363 29.5068C105.007 29.6484 104.7 29.8518 104.443 30.116C104.185 30.3801 103.981 30.6868 103.834 31.0382C103.685 31.3886 103.611 31.7773 103.611 32.2022C103.611 32.6271 103.685 33.0062 103.834 33.3608C103.981 33.7155 104.185 34.0254 104.443 34.2895C104.7 34.5536 105.007 34.7559 105.363 34.8986C105.717 35.0403 106.102 35.1105 106.516 35.1105C106.93 35.1105 107.311 35.0403 107.659 34.8986C108.006 34.7559 108.309 34.5557 108.566 34.2948C108.825 34.0349 109.025 33.7272 109.17 33.3726C109.315 33.0179 109.386 32.6282 109.386 32.2022C109.386 31.7762 109.317 31.3864 109.176 31.0318ZM109.176 31.0318C109.035 30.6772 108.834 30.3694 108.573 30.1096C108.311 29.8497 108.006 29.6484 107.659 29.5068C107.311 29.3652 106.93 29.2938 106.516 29.2938C106.102 29.2938 105.717 29.3652 105.363 29.5068C105.007 29.6484 104.7 29.8518 104.443 30.116C104.185 30.3801 103.981 30.6868 103.834 31.0382C103.685 31.3886 103.611 31.7773 103.611 32.2022C103.611 32.6271 103.685 33.0062 103.834 33.3608C103.981 33.7155 104.185 34.0254 104.443 34.2895C104.7 34.5536 105.007 34.7559 105.363 34.8986C105.717 35.0403 106.102 35.1105 106.516 35.1105C106.93 35.1105 107.311 35.0403 107.659 34.8986C108.006 34.7559 108.309 34.5557 108.566 34.2948C108.825 34.0349 109.025 33.7272 109.17 33.3726C109.315 33.0179 109.386 32.6282 109.386 32.2022C109.386 31.7762 109.317 31.3864 109.176 31.0318ZM109.176 31.0318C109.035 30.6772 108.834 30.3694 108.573 30.1096C108.311 29.8497 108.006 29.6484 107.659 29.5068C107.311 29.3652 106.93 29.2938 106.516 29.2938C106.102 29.2938 105.717 29.3652 105.363 29.5068C105.007 29.6484 104.7 29.8518 104.443 30.116C104.185 30.3801 103.981 30.6868 103.834 31.0382C103.685 31.3886 103.611 31.7773 103.611 32.2022C103.611 32.6271 103.685 33.0062 103.834 33.3608C103.981 33.7155 104.185 34.0254 104.443 34.2895C104.7 34.5536 105.007 34.7559 105.363 34.8986C105.717 35.0403 106.102 35.1105 106.516 35.1105C106.93 35.1105 107.311 35.0403 107.659 34.8986C108.006 34.7559 108.309 34.5557 108.566 34.2948C108.825 34.0349 109.025 33.7272 109.17 33.3726C109.315 33.0179 109.386 32.6282 109.386 32.2022C109.386 31.7762 109.317 31.3864 109.176 31.0318ZM134.274 22.0352H92.7581C87.3954 22.0352 83.032 26.9318 83.032 32.9508C83.032 38.0753 86.1945 42.3862 90.4439 43.5545C90.4513 43.5566 90.4598 43.5587 90.4671 43.5609V43.5268C90.4682 43.3383 90.4851 43.1541 90.5167 42.9762C90.7742 41.48 92.0321 40.3841 93.5759 40.2798C93.6043 40.2766 93.6328 40.2755 93.6624 40.2745C93.6708 40.2745 93.6793 40.2745 93.6877 40.2745C93.7268 40.2723 93.7668 40.2713 93.8069 40.2713H133.224C133.264 40.2713 133.305 40.2713 133.345 40.2745C133.353 40.2745 133.361 40.2745 133.37 40.2745C133.39 40.2745 133.41 40.2745 133.43 40.2776C133.445 40.2776 133.458 40.2776 133.473 40.2819C134.71 40.3756 135.76 41.136 136.256 42.2137C136.267 42.2382 136.279 42.2627 136.291 42.2883C136.454 42.6684 136.55 43.0859 136.562 43.5268C136.563 43.5385 136.563 43.5502 136.563 43.5619C136.571 43.5598 136.58 43.5577 136.588 43.5545C140.838 42.3873 144 38.0753 144 32.9508C144 26.9318 139.637 22.0352 134.274 22.0352ZM129.409 28.0638L131.833 32.0925L134.248 28.0638H135.747L132.525 33.4333V36.3405H131.014V33.4162L127.793 28.0638H129.409ZM121.466 28.0638H127.453V29.3652H122.989V31.5046H126.949V32.7698H122.989V35.0403H127.617V36.3405H121.466V28.0638ZM112.257 28.0638H113.511L118.033 33.6782V28.0638H119.532V36.3405H118.279L113.769 30.7283V36.3405H112.257V28.0638ZM102.416 30.5057C102.634 29.9892 102.943 29.5398 103.341 29.1575C103.74 28.7752 104.208 28.4781 104.748 28.2651C105.286 28.0521 105.876 27.9456 106.516 27.9456C107.157 27.9456 107.735 28.05 108.274 28.2587C108.812 28.4685 109.28 28.7635 109.673 29.1458C110.068 29.5281 110.375 29.9796 110.594 30.4993C110.812 31.0201 110.922 31.5877 110.922 32.2022C110.922 32.8166 110.812 33.3832 110.594 33.8986C110.375 34.4151 110.068 34.8667 109.673 35.2532C109.28 35.6388 108.812 35.9369 108.274 36.1457C107.735 36.3544 107.149 36.4588 106.516 36.4588C105.883 36.4588 105.296 36.3523 104.753 36.1393C104.21 35.9274 103.74 35.627 103.341 35.2415C102.943 34.855 102.634 34.4034 102.416 33.8869C102.197 33.3715 102.087 32.8092 102.087 32.2022C102.087 31.5952 102.197 31.0222 102.416 30.5057ZM91.7661 28.0638H93.0197L96.2741 33.5483L99.4756 28.0638H100.729L100.752 36.3405H99.2878V30.8444L96.6044 35.4066H95.9132L93.2192 30.9296V36.3405H91.7661V28.0638ZM104.443 34.2895C104.7 34.5536 105.007 34.7559 105.363 34.8986C105.717 35.0403 106.102 35.1105 106.516 35.1105C106.93 35.1105 107.311 35.0403 107.659 34.8986C108.006 34.7559 108.309 34.5557 108.566 34.2948C108.825 34.0349 109.025 33.7272 109.17 33.3726C109.315 33.0179 109.386 32.6282 109.386 32.2022C109.386 31.7762 109.317 31.3864 109.176 31.0318C109.035 30.6772 108.834 30.3694 108.573 30.1096C108.311 29.8497 108.006 29.6484 107.659 29.5068C107.311 29.3652 106.93 29.2938 106.516 29.2938C106.102 29.2938 105.717 29.3652 105.363 29.5068C105.007 29.6484 104.7 29.8518 104.443 30.116C104.185 30.3801 103.981 30.6868 103.834 31.0382C103.685 31.3886 103.611 31.7773 103.611 32.2022C103.611 32.6271 103.685 33.0062 103.834 33.3608C103.981 33.7155 104.185 34.0254 104.443 34.2895ZM109.176 31.0318C109.035 30.6772 108.834 30.3694 108.573 30.1096C108.311 29.8497 108.006 29.6484 107.659 29.5068C107.311 29.3652 106.93 29.2938 106.516 29.2938C106.102 29.2938 105.717 29.3652 105.363 29.5068C105.007 29.6484 104.7 29.8518 104.443 30.116C104.185 30.3801 103.981 30.6868 103.834 31.0382C103.685 31.3886 103.611 31.7773 103.611 32.2022C103.611 32.6271 103.685 33.0062 103.834 33.3608C103.981 33.7155 104.185 34.0254 104.443 34.2895C104.7 34.5536 105.007 34.7559 105.363 34.8986C105.717 35.0403 106.102 35.1105 106.516 35.1105C106.93 35.1105 107.311 35.0403 107.659 34.8986C108.006 34.7559 108.309 34.5557 108.566 34.2948C108.825 34.0349 109.025 33.7272 109.17 33.3726C109.315 33.0179 109.386 32.6282 109.386 32.2022C109.386 31.7762 109.317 31.3864 109.176 31.0318ZM109.176 31.0318C109.035 30.6772 108.834 30.3694 108.573 30.1096C108.311 29.8497 108.006 29.6484 107.659 29.5068C107.311 29.3652 106.93 29.2938 106.516 29.2938C106.102 29.2938 105.717 29.3652 105.363 29.5068C105.007 29.6484 104.7 29.8518 104.443 30.116C104.185 30.3801 103.981 30.6868 103.834 31.0382C103.685 31.3886 103.611 31.7773 103.611 32.2022C103.611 32.6271 103.685 33.0062 103.834 33.3608C103.981 33.7155 104.185 34.0254 104.443 34.2895C104.7 34.5536 105.007 34.7559 105.363 34.8986C105.717 35.0403 106.102 35.1105 106.516 35.1105C106.93 35.1105 107.311 35.0403 107.659 34.8986C108.006 34.7559 108.309 34.5557 108.566 34.2948C108.825 34.0349 109.025 33.7272 109.17 33.3726C109.315 33.0179 109.386 32.6282 109.386 32.2022C109.386 31.7762 109.317 31.3864 109.176 31.0318ZM109.176 31.0318C109.035 30.6772 108.834 30.3694 108.573 30.1096C108.311 29.8497 108.006 29.6484 107.659 29.5068C107.311 29.3652 106.93 29.2938 106.516 29.2938C106.102 29.2938 105.717 29.3652 105.363 29.5068C105.007 29.6484 104.7 29.8518 104.443 30.116C104.185 30.3801 103.981 30.6868 103.834 31.0382C103.685 31.3886 103.611 31.7773 103.611 32.2022C103.611 32.6271 103.685 33.0062 103.834 33.3608C103.981 33.7155 104.185 34.0254 104.443 34.2895C104.7 34.5536 105.007 34.7559 105.363 34.8986C105.717 35.0403 106.102 35.1105 106.516 35.1105C106.93 35.1105 107.311 35.0403 107.659 34.8986C108.006 34.7559 108.309 34.5557 108.566 34.2948C108.825 34.0349 109.025 33.7272 109.17 33.3726C109.315 33.0179 109.386 32.6282 109.386 32.2022C109.386 31.7762 109.317 31.3864 109.176 31.0318ZM109.176 31.0318C109.035 30.6772 108.834 30.3694 108.573 30.1096C108.311 29.8497 108.006 29.6484 107.659 29.5068C107.311 29.3652 106.93 29.2938 106.516 29.2938C106.102 29.2938 105.717 29.3652 105.363 29.5068C105.007 29.6484 104.7 29.8518 104.443 30.116C104.185 30.3801 103.981 30.6868 103.834 31.0382C103.685 31.3886 103.611 31.7773 103.611 32.2022C103.611 32.6271 103.685 33.0062 103.834 33.3608C103.981 33.7155 104.185 34.0254 104.443 34.2895C104.7 34.5536 105.007 34.7559 105.363 34.8986C105.717 35.0403 106.102 35.1105 106.516 35.1105C106.93 35.1105 107.311 35.0403 107.659 34.8986C108.006 34.7559 108.309 34.5557 108.566 34.2948C108.825 34.0349 109.025 33.7272 109.17 33.3726C109.315 33.0179 109.386 32.6282 109.386 32.2022C109.386 31.7762 109.317 31.3864 109.176 31.0318ZM109.176 31.0318C109.035 30.6772 108.834 30.3694 108.573 30.1096C108.311 29.8497 108.006 29.6484 107.659 29.5068C107.311 29.3652 106.93 29.2938 106.516 29.2938C106.102 29.2938 105.717 29.3652 105.363 29.5068C105.007 29.6484 104.7 29.8518 104.443 30.116C104.185 30.3801 103.981 30.6868 103.834 31.0382C103.685 31.3886 103.611 31.7773 103.611 32.2022C103.611 32.6271 103.685 33.0062 103.834 33.3608C103.981 33.7155 104.185 34.0254 104.443 34.2895C104.7 34.5536 105.007 34.7559 105.363 34.8986C105.717 35.0403 106.102 35.1105 106.516 35.1105C106.93 35.1105 107.311 35.0403 107.659 34.8986C108.006 34.7559 108.309 34.5557 108.566 34.2948C108.825 34.0349 109.025 33.7272 109.17 33.3726C109.315 33.0179 109.386 32.6282 109.386 32.2022C109.386 31.7762 109.317 31.3864 109.176 31.0318ZM109.176 31.0318C109.035 30.6772 108.834 30.3694 108.573 30.1096C108.311 29.8497 108.006 29.6484 107.659 29.5068C107.311 29.3652 106.93 29.2938 106.516 29.2938C106.102 29.2938 105.717 29.3652 105.363 29.5068C105.007 29.6484 104.7 29.8518 104.443 30.116C104.185 30.3801 103.981 30.6868 103.834 31.0382C103.685 31.3886 103.611 31.7773 103.611 32.2022C103.611 32.6271 103.685 33.0062 103.834 33.3608C103.981 33.7155 104.185 34.0254 104.443 34.2895C104.7 34.5536 105.007 34.7559 105.363 34.8986C105.717 35.0403 106.102 35.1105 106.516 35.1105C106.93 35.1105 107.311 35.0403 107.659 34.8986C108.006 34.7559 108.309 34.5557 108.566 34.2948C108.825 34.0349 109.025 33.7272 109.17 33.3726C109.315 33.0179 109.386 32.6282 109.386 32.2022C109.386 31.7762 109.317 31.3864 109.176 31.0318ZM109.176 31.0318C109.035 30.6772 108.834 30.3694 108.573 30.1096C108.311 29.8497 108.006 29.6484 107.659 29.5068C107.311 29.3652 106.93 29.2938 106.516 29.2938C106.102 29.2938 105.717 29.3652 105.363 29.5068C105.007 29.6484 104.7 29.8518 104.443 30.116C104.185 30.3801 103.981 30.6868 103.834 31.0382C103.685 31.3886 103.611 31.7773 103.611 32.2022C103.611 32.6271 103.685 33.0062 103.834 33.3608C103.981 33.7155 104.185 34.0254 104.443 34.2895C104.7 34.5536 105.007 34.7559 105.363 34.8986C105.717 35.0403 106.102 35.1105 106.516 35.1105C106.93 35.1105 107.311 35.0403 107.659 34.8986C108.006 34.7559 108.309 34.5557 108.566 34.2948C108.825 34.0349 109.025 33.7272 109.17 33.3726C109.315 33.0179 109.386 32.6282 109.386 32.2022C109.386 31.7762 109.317 31.3864 109.176 31.0318ZM109.176 31.0318C109.035 30.6772 108.834 30.3694 108.573 30.1096C108.311 29.8497 108.006 29.6484 107.659 29.5068C107.311 29.3652 106.93 29.2938 106.516 29.2938C106.102 29.2938 105.717 29.3652 105.363 29.5068C105.007 29.6484 104.7 29.8518 104.443 30.116C104.185 30.3801 103.981 30.6868 103.834 31.0382C103.685 31.3886 103.611 31.7773 103.611 32.2022C103.611 32.6271 103.685 33.0062 103.834 33.3608C103.981 33.7155 104.185 34.0254 104.443 34.2895C104.7 34.5536 105.007 34.7559 105.363 34.8986C105.717 35.0403 106.102 35.1105 106.516 35.1105C106.93 35.1105 107.311 35.0403 107.659 34.8986C108.006 34.7559 108.309 34.5557 108.566 34.2948C108.825 34.0349 109.025 33.7272 109.17 33.3726C109.315 33.0179 109.386 32.6282 109.386 32.2022C109.386 31.7762 109.317 31.3864 109.176 31.0318ZM109.176 31.0318C109.035 30.6772 108.834 30.3694 108.573 30.1096C108.311 29.8497 108.006 29.6484 107.659 29.5068C107.311 29.3652 106.93 29.2938 106.516 29.2938C106.102 29.2938 105.717 29.3652 105.363 29.5068C105.007 29.6484 104.7 29.8518 104.443 30.116C104.185 30.3801 103.981 30.6868 103.834 31.0382C103.685 31.3886 103.611 31.7773 103.611 32.2022C103.611 32.6271 103.685 33.0062 103.834 33.3608C103.981 33.7155 104.185 34.0254 104.443 34.2895C104.7 34.5536 105.007 34.7559 105.363 34.8986C105.717 35.0403 106.102 35.1105 106.516 35.1105C106.93 35.1105 107.311 35.0403 107.659 34.8986C108.006 34.7559 108.309 34.5557 108.566 34.2948C108.825 34.0349 109.025 33.7272 109.17 33.3726C109.315 33.0179 109.386 32.6282 109.386 32.2022C109.386 31.7762 109.317 31.3864 109.176 31.0318ZM109.176 31.0318C109.035 30.6772 108.834 30.3694 108.573 30.1096C108.311 29.8497 108.006 29.6484 107.659 29.5068C107.311 29.3652 106.93 29.2938 106.516 29.2938C106.102 29.2938 105.717 29.3652 105.363 29.5068C105.007 29.6484 104.7 29.8518 104.443 30.116C104.185 30.3801 103.981 30.6868 103.834 31.0382C103.685 31.3886 103.611 31.7773 103.611 32.2022C103.611 32.6271 103.685 33.0062 103.834 33.3608C103.981 33.7155 104.185 34.0254 104.443 34.2895C104.7 34.5536 105.007 34.7559 105.363 34.8986C105.717 35.0403 106.102 35.1105 106.516 35.1105C106.93 35.1105 107.311 35.0403 107.659 34.8986C108.006 34.7559 108.309 34.5557 108.566 34.2948C108.825 34.0349 109.025 33.7272 109.17 33.3726C109.315 33.0179 109.386 32.6282 109.386 32.2022C109.386 31.7762 109.317 31.3864 109.176 31.0318ZM109.176 31.0318C109.035 30.6772 108.834 30.3694 108.573 30.1096C108.311 29.8497 108.006 29.6484 107.659 29.5068C107.311 29.3652 106.93 29.2938 106.516 29.2938C106.102 29.2938 105.717 29.3652 105.363 29.5068C105.007 29.6484 104.7 29.8518 104.443 30.116C104.185 30.3801 103.981 30.6868 103.834 31.0382C103.685 31.3886 103.611 31.7773 103.611 32.2022C103.611 32.6271 103.685 33.0062 103.834 33.3608C103.981 33.7155 104.185 34.0254 104.443 34.2895C104.7 34.5536 105.007 34.7559 105.363 34.8986C105.717 35.0403 106.102 35.1105 106.516 35.1105C106.93 35.1105 107.311 35.0403 107.659 34.8986C108.006 34.7559 108.309 34.5557 108.566 34.2948C108.825 34.0349 109.025 33.7272 109.17 33.3726C109.315 33.0179 109.386 32.6282 109.386 32.2022C109.386 31.7762 109.317 31.3864 109.176 31.0318ZM109.176 31.0318C109.035 30.6772 108.834 30.3694 108.573 30.1096C108.311 29.8497 108.006 29.6484 107.659 29.5068C107.311 29.3652 106.93 29.2938 106.516 29.2938C106.102 29.2938 105.717 29.3652 105.363 29.5068C105.007 29.6484 104.7 29.8518 104.443 30.116C104.185 30.3801 103.981 30.6868 103.834 31.0382C103.685 31.3886 103.611 31.7773 103.611 32.2022C103.611 32.6271 103.685 33.0062 103.834 33.3608C103.981 33.7155 104.185 34.0254 104.443 34.2895C104.7 34.5536 105.007 34.7559 105.363 34.8986C105.717 35.0403 106.102 35.1105 106.516 35.1105C106.93 35.1105 107.311 35.0403 107.659 34.8986C108.006 34.7559 108.309 34.5557 108.566 34.2948C108.825 34.0349 109.025 33.7272 109.17 33.3726C109.315 33.0179 109.386 32.6282 109.386 32.2022C109.386 31.7762 109.317 31.3864 109.176 31.0318ZM109.176 31.0318C109.035 30.6772 108.834 30.3694 108.573 30.1096C108.311 29.8497 108.006 29.6484 107.659 29.5068C107.311 29.3652 106.93 29.2938 106.516 29.2938C106.102 29.2938 105.717 29.3652 105.363 29.5068C105.007 29.6484 104.7 29.8518 104.443 30.116C104.185 30.3801 103.981 30.6868 103.834 31.0382C103.685 31.3886 103.611 31.7773 103.611 32.2022C103.611 32.6271 103.685 33.0062 103.834 33.3608C103.981 33.7155 104.185 34.0254 104.443 34.2895C104.7 34.5536 105.007 34.7559 105.363 34.8986C105.717 35.0403 106.102 35.1105 106.516 35.1105C106.93 35.1105 107.311 35.0403 107.659 34.8986C108.006 34.7559 108.309 34.5557 108.566 34.2948C108.825 34.0349 109.025 33.7272 109.17 33.3726C109.315 33.0179 109.386 32.6282 109.386 32.2022C109.386 31.7762 109.317 31.3864 109.176 31.0318ZM109.176 31.0318C109.035 30.6772 108.834 30.3694 108.573 30.1096C108.311 29.8497 108.006 29.6484 107.659 29.5068C107.311 29.3652 106.93 29.2938 106.516 29.2938C106.102 29.2938 105.717 29.3652 105.363 29.5068C105.007 29.6484 104.7 29.8518 104.443 30.116C104.185 30.3801 103.981 30.6868 103.834 31.0382C103.685 31.3886 103.611 31.7773 103.611 32.2022C103.611 32.6271 103.685 33.0062 103.834 33.3608C103.981 33.7155 104.185 34.0254 104.443 34.2895C104.7 34.5536 105.007 34.7559 105.363 34.8986C105.717 35.0403 106.102 35.1105 106.516 35.1105C106.93 35.1105 107.311 35.0403 107.659 34.8986C108.006 34.7559 108.309 34.5557 108.566 34.2948C108.825 34.0349 109.025 33.7272 109.17 33.3726C109.315 33.0179 109.386 32.6282 109.386 32.2022C109.386 31.7762 109.317 31.3864 109.176 31.0318ZM109.176 31.0318C109.035 30.6772 108.834 30.3694 108.573 30.1096C108.311 29.8497 108.006 29.6484 107.659 29.5068C107.311 29.3652 106.93 29.2938 106.516 29.2938C106.102 29.2938 105.717 29.3652 105.363 29.5068C105.007 29.6484 104.7 29.8518 104.443 30.116C104.185 30.3801 103.981 30.6868 103.834 31.0382C103.685 31.3886 103.611 31.7773 103.611 32.2022C103.611 32.6271 103.685 33.0062 103.834 33.3608C103.981 33.7155 104.185 34.0254 104.443 34.2895C104.7 34.5536 105.007 34.7559 105.363 34.8986C105.717 35.0403 106.102 35.1105 106.516 35.1105C106.93 35.1105 107.311 35.0403 107.659 34.8986C108.006 34.7559 108.309 34.5557 108.566 34.2948C108.825 34.0349 109.025 33.7272 109.17 33.3726C109.315 33.0179 109.386 32.6282 109.386 32.2022C109.386 31.7762 109.317 31.3864 109.176 31.0318ZM109.176 31.0318C109.035 30.6772 108.834 30.3694 108.573 30.1096C108.311 29.8497 108.006 29.6484 107.659 29.5068C107.311 29.3652 106.93 29.2938 106.516 29.2938C106.102 29.2938 105.717 29.3652 105.363 29.5068C105.007 29.6484 104.7 29.8518 104.443 30.116C104.185 30.3801 103.981 30.6868 103.834 31.0382C103.685 31.3886 103.611 31.7773 103.611 32.2022C103.611 32.6271 103.685 33.0062 103.834 33.3608C103.981 33.7155 104.185 34.0254 104.443 34.2895C104.7 34.5536 105.007 34.7559 105.363 34.8986C105.717 35.0403 106.102 35.1105 106.516 35.1105C106.93 35.1105 107.311 35.0403 107.659 34.8986C108.006 34.7559 108.309 34.5557 108.566 34.2948C108.825 34.0349 109.025 33.7272 109.17 33.3726C109.315 33.0179 109.386 32.6282 109.386 32.2022C109.386 31.7762 109.317 31.3864 109.176 31.0318ZM109.176 31.0318C109.035 30.6772 108.834 30.3694 108.573 30.1096C108.311 29.8497 108.006 29.6484 107.659 29.5068C107.311 29.3652 106.93 29.2938 106.516 29.2938C106.102 29.2938 105.717 29.3652 105.363 29.5068C105.007 29.6484 104.7 29.8518 104.443 30.116C104.185 30.3801 103.981 30.6868 103.834 31.0382C103.685 31.3886 103.611 31.7773 103.611 32.2022C103.611 32.6271 103.685 33.0062 103.834 33.3608C103.981 33.7155 104.185 34.0254 104.443 34.2895C104.7 34.5536 105.007 34.7559 105.363 34.8986C105.717 35.0403 106.102 35.1105 106.516 35.1105C106.93 35.1105 107.311 35.0403 107.659 34.8986C108.006 34.7559 108.309 34.5557 108.566 34.2948C108.825 34.0349 109.025 33.7272 109.17 33.3726C109.315 33.0179 109.386 32.6282 109.386 32.2022C109.386 31.7762 109.317 31.3864 109.176 31.0318ZM109.176 31.0318C109.035 30.6772 108.834 30.3694 108.573 30.1096C108.311 29.8497 108.006 29.6484 107.659 29.5068C107.311 29.3652 106.93 29.2938 106.516 29.2938C106.102 29.2938 105.717 29.3652 105.363 29.5068C105.007 29.6484 104.7 29.8518 104.443 30.116C104.185 30.3801 103.981 30.6868 103.834 31.0382C103.685 31.3886 103.611 31.7773 103.611 32.2022C103.611 32.6271 103.685 33.0062 103.834 33.3608C103.981 33.7155 104.185 34.0254 104.443 34.2895C104.7 34.5536 105.007 34.7559 105.363 34.8986C105.717 35.0403 106.102 35.1105 106.516 35.1105C106.93 35.1105 107.311 35.0403 107.659 34.8986C108.006 34.7559 108.309 34.5557 108.566 34.2948C108.825 34.0349 109.025 33.7272 109.17 33.3726C109.315 33.0179 109.386 32.6282 109.386 32.2022C109.386 31.7762 109.317 31.3864 109.176 31.0318ZM109.176 31.0318C109.035 30.6772 108.834 30.3694 108.573 30.1096C108.311 29.8497 108.006 29.6484 107.659 29.5068C107.311 29.3652 106.93 29.2938 106.516 29.2938C106.102 29.2938 105.717 29.3652 105.363 29.5068C105.007 29.6484 104.7 29.8518 104.443 30.116C104.185 30.3801 103.981 30.6868 103.834 31.0382C103.685 31.3886 103.611 31.7773 103.611 32.2022C103.611 32.6271 103.685 33.0062 103.834 33.3608C103.981 33.7155 104.185 34.0254 104.443 34.2895C104.7 34.5536 105.007 34.7559 105.363 34.8986C105.717 35.0403 106.102 35.1105 106.516 35.1105C106.93 35.1105 107.311 35.0403 107.659 34.8986C108.006 34.7559 108.309 34.5557 108.566 34.2948C108.825 34.0349 109.025 33.7272 109.17 33.3726C109.315 33.0179 109.386 32.6282 109.386 32.2022C109.386 31.7762 109.317 31.3864 109.176 31.0318ZM109.176 31.0318C109.035 30.6772 108.834 30.3694 108.573 30.1096C108.311 29.8497 108.006 29.6484 107.659 29.5068C107.311 29.3652 106.93 29.2938 106.516 29.2938C106.102 29.2938 105.717 29.3652 105.363 29.5068C105.007 29.6484 104.7 29.8518 104.443 30.116C104.185 30.3801 103.981 30.6868 103.834 31.0382C103.685 31.3886 103.611 31.7773 103.611 32.2022C103.611 32.6271 103.685 33.0062 103.834 33.3608C103.981 33.7155 104.185 34.0254 104.443 34.2895C104.7 34.5536 105.007 34.7559 105.363 34.8986C105.717 35.0403 106.102 35.1105 106.516 35.1105C106.93 35.1105 107.311 35.0403 107.659 34.8986C108.006 34.7559 108.309 34.5557 108.566 34.2948C108.825 34.0349 109.025 33.7272 109.17 33.3726C109.315 33.0179 109.386 32.6282 109.386 32.2022C109.386 31.7762 109.317 31.3864 109.176 31.0318ZM109.176 31.0318C109.035 30.6772 108.834 30.3694 108.573 30.1096C108.311 29.8497 108.006 29.6484 107.659 29.5068C107.311 29.3652 106.93 29.2938 106.516 29.2938C106.102 29.2938 105.717 29.3652 105.363 29.5068C105.007 29.6484 104.7 29.8518 104.443 30.116C104.185 30.3801 103.981 30.6868 103.834 31.0382C103.685 31.3886 103.611 31.7773 103.611 32.2022C103.611 32.6271 103.685 33.0062 103.834 33.3608C103.981 33.7155 104.185 34.0254 104.443 34.2895C104.7 34.5536 105.007 34.7559 105.363 34.8986C105.717 35.0403 106.102 35.1105 106.516 35.1105C106.93 35.1105 107.311 35.0403 107.659 34.8986C108.006 34.7559 108.309 34.5557 108.566 34.2948C108.825 34.0349 109.025 33.7272 109.17 33.3726C109.315 33.0179 109.386 32.6282 109.386 32.2022C109.386 31.7762 109.317 31.3864 109.176 31.0318ZM109.176 31.0318C109.035 30.6772 108.834 30.3694 108.573 30.1096C108.311 29.8497 108.006 29.6484 107.659 29.5068C107.311 29.3652 106.93 29.2938 106.516 29.2938C106.102 29.2938 105.717 29.3652 105.363 29.5068C105.007 29.6484 104.7 29.8518 104.443 30.116C104.185 30.3801 103.981 30.6868 103.834 31.0382C103.685 31.3886 103.611 31.7773 103.611 32.2022C103.611 32.6271 103.685 33.0062 103.834 33.3608C103.981 33.7155 104.185 34.0254 104.443 34.2895C104.7 34.5536 105.007 34.7559 105.363 34.8986C105.717 35.0403 106.102 35.1105 106.516 35.1105C106.93 35.1105 107.311 35.0403 107.659 34.8986C108.006 34.7559 108.309 34.5557 108.566 34.2948C108.825 34.0349 109.025 33.7272 109.17 33.3726C109.315 33.0179 109.386 32.6282 109.386 32.2022C109.386 31.7762 109.317 31.3864 109.176 31.0318ZM109.176 31.0318C109.035 30.6772 108.834 30.3694 108.573 30.1096C108.311 29.8497 108.006 29.6484 107.659 29.5068C107.311 29.3652 106.93 29.2938 106.516 29.2938C106.102 29.2938 105.717 29.3652 105.363 29.5068C105.007 29.6484 104.7 29.8518 104.443 30.116C104.185 30.3801 103.981 30.6868 103.834 31.0382C103.685 31.3886 103.611 31.7773 103.611 32.2022C103.611 32.6271 103.685 33.0062 103.834 33.3608C103.981 33.7155 104.185 34.0254 104.443 34.2895C104.7 34.5536 105.007 34.7559 105.363 34.8986C105.717 35.0403 106.102 35.1105 106.516 35.1105C106.93 35.1105 107.311 35.0403 107.659 34.8986C108.006 34.7559 108.309 34.5557 108.566 34.2948C108.825 34.0349 109.025 33.7272 109.17 33.3726C109.315 33.0179 109.386 32.6282 109.386 32.2022C109.386 31.7762 109.317 31.3864 109.176 31.0318ZM109.176 31.0318C109.035 30.6772 108.834 30.3694 108.573 30.1096C108.311 29.8497 108.006 29.6484 107.659 29.5068C107.311 29.3652 106.93 29.2938 106.516 29.2938C106.102 29.2938 105.717 29.3652 105.363 29.5068C105.007 29.6484 104.7 29.8518 104.443 30.116C104.185 30.3801 103.981 30.6868 103.834 31.0382C103.685 31.3886 103.611 31.7773 103.611 32.2022C103.611 32.6271 103.685 33.0062 103.834 33.3608C103.981 33.7155 104.185 34.0254 104.443 34.2895C104.7 34.5536 105.007 34.7559 105.363 34.8986C105.717 35.0403 106.102 35.1105 106.516 35.1105C106.93 35.1105 107.311 35.0403 107.659 34.8986C108.006 34.7559 108.309 34.5557 108.566 34.2948C108.825 34.0349 109.025 33.7272 109.17 33.3726C109.315 33.0179 109.386 32.6282 109.386 32.2022C109.386 31.7762 109.317 31.3864 109.176 31.0318ZM109.176 31.0318C109.035 30.6772 108.834 30.3694 108.573 30.1096C108.311 29.8497 108.006 29.6484 107.659 29.5068C107.311 29.3652 106.93 29.2938 106.516 29.2938C106.102 29.2938 105.717 29.3652 105.363 29.5068C105.007 29.6484 104.7 29.8518 104.443 30.116C104.185 30.3801 103.981 30.6868 103.834 31.0382C103.685 31.3886 103.611 31.7773 103.611 32.2022C103.611 32.6271 103.685 33.0062 103.834 33.3608C103.981 33.7155 104.185 34.0254 104.443 34.2895C104.7 34.5536 105.007 34.7559 105.363 34.8986C105.717 35.0403 106.102 35.1105 106.516 35.1105C106.93 35.1105 107.311 35.0403 107.659 34.8986C108.006 34.7559 108.309 34.5557 108.566 34.2948C108.825 34.0349 109.025 33.7272 109.17 33.3726C109.315 33.0179 109.386 32.6282 109.386 32.2022C109.386 31.7762 109.317 31.3864 109.176 31.0318ZM109.176 31.0318C109.035 30.6772 108.834 30.3694 108.573 30.1096C108.311 29.8497 108.006 29.6484 107.659 29.5068C107.311 29.3652 106.93 29.2938 106.516 29.2938C106.102 29.2938 105.717 29.3652 105.363 29.5068C105.007 29.6484 104.7 29.8518 104.443 30.116C104.185 30.3801 103.981 30.6868 103.834 31.0382C103.685 31.3886 103.611 31.7773 103.611 32.2022C103.611 32.6271 103.685 33.0062 103.834 33.3608C103.981 33.7155 104.185 34.0254 104.443 34.2895C104.7 34.5536 105.007 34.7559 105.363 34.8986C105.717 35.0403 106.102 35.1105 106.516 35.1105C106.93 35.1105 107.311 35.0403 107.659 34.8986C108.006 34.7559 108.309 34.5557 108.566 34.2948C108.825 34.0349 109.025 33.7272 109.17 33.3726C109.315 33.0179 109.386 32.6282 109.386 32.2022C109.386 31.7762 109.317 31.3864 109.176 31.0318ZM109.176 31.0318C109.035 30.6772 108.834 30.3694 108.573 30.1096C108.311 29.8497 108.006 29.6484 107.659 29.5068C107.311 29.3652 106.93 29.2938 106.516 29.2938C106.102 29.2938 105.717 29.3652 105.363 29.5068C105.007 29.6484 104.7 29.8518 104.443 30.116C104.185 30.3801 103.981 30.6868 103.834 31.0382C103.685 31.3886 103.611 31.7773 103.611 32.2022C103.611 32.6271 103.685 33.0062 103.834 33.3608C103.981 33.7155 104.185 34.0254 104.443 34.2895C104.7 34.5536 105.007 34.7559 105.363 34.8986C105.717 35.0403 106.102 35.1105 106.516 35.1105C106.93 35.1105 107.311 35.0403 107.659 34.8986C108.006 34.7559 108.309 34.5557 108.566 34.2948C108.825 34.0349 109.025 33.7272 109.17 33.3726C109.315 33.0179 109.386 32.6282 109.386 32.2022C109.386 31.7762 109.317 31.3864 109.176 31.0318ZM109.176 31.0318C109.035 30.6772 108.834 30.3694 108.573 30.1096C108.311 29.8497 108.006 29.6484 107.659 29.5068C107.311 29.3652 106.93 29.2938 106.516 29.2938C106.102 29.2938 105.717 29.3652 105.363 29.5068C105.007 29.6484 104.7 29.8518 104.443 30.116C104.185 30.3801 103.981 30.6868 103.834 31.0382C103.685 31.3886 103.611 31.7773 103.611 32.2022C103.611 32.6271 103.685 33.0062 103.834 33.3608C103.981 33.7155 104.185 34.0254 104.443 34.2895C104.7 34.5536 105.007 34.7559 105.363 34.8986C105.717 35.0403 106.102 35.1105 106.516 35.1105C106.93 35.1105 107.311 35.0403 107.659 34.8986C108.006 34.7559 108.309 34.5557 108.566 34.2948C108.825 34.0349 109.025 33.7272 109.17 33.3726C109.315 33.0179 109.386 32.6282 109.386 32.2022C109.386 31.7762 109.317 31.3864 109.176 31.0318ZM109.176 31.0318C109.035 30.6772 108.834 30.3694 108.573 30.1096C108.311 29.8497 108.006 29.6484 107.659 29.5068C107.311 29.3652 106.93 29.2938 106.516 29.2938C106.102 29.2938 105.717 29.3652 105.363 29.5068C105.007 29.6484 104.7 29.8518 104.443 30.116C104.185 30.3801 103.981 30.6868 103.834 31.0382C103.685 31.3886 103.611 31.7773 103.611 32.2022C103.611 32.6271 103.685 33.0062 103.834 33.3608C103.981 33.7155 104.185 34.0254 104.443 34.2895C104.7 34.5536 105.007 34.7559 105.363 34.8986C105.717 35.0403 106.102 35.1105 106.516 35.1105C106.93 35.1105 107.311 35.0403 107.659 34.8986C108.006 34.7559 108.309 34.5557 108.566 34.2948C108.825 34.0349 109.025 33.7272 109.17 33.3726C109.315 33.0179 109.386 32.6282 109.386 32.2022C109.386 31.7762 109.317 31.3864 109.176 31.0318ZM109.176 31.0318C109.035 30.6772 108.834 30.3694 108.573 30.1096C108.311 29.8497 108.006 29.6484 107.659 29.5068C107.311 29.3652 106.93 29.2938 106.516 29.2938C106.102 29.2938 105.717 29.3652 105.363 29.5068C105.007 29.6484 104.7 29.8518 104.443 30.116C104.185 30.3801 103.981 30.6868 103.834 31.0382C103.685 31.3886 103.611 31.7773 103.611 32.2022C103.611 32.6271 103.685 33.0062 103.834 33.3608C103.981 33.7155 104.185 34.0254 104.443 34.2895C104.7 34.5536 105.007 34.7559 105.363 34.8986C105.717 35.0403 106.102 35.1105 106.516 35.1105C106.93 35.1105 107.311 35.0403 107.659 34.8986C108.006 34.7559 108.309 34.5557 108.566 34.2948C108.825 34.0349 109.025 33.7272 109.17 33.3726C109.315 33.0179 109.386 32.6282 109.386 32.2022C109.386 31.7762 109.317 31.3864 109.176 31.0318ZM109.176 31.0318C109.035 30.6772 108.834 30.3694 108.573 30.1096C108.311 29.8497 108.006 29.6484 107.659 29.5068C107.311 29.3652 106.93 29.2938 106.516 29.2938C106.102 29.2938 105.717 29.3652 105.363 29.5068C105.007 29.6484 104.7 29.8518 104.443 30.116C104.185 30.3801 103.981 30.6868 103.834 31.0382C103.685 31.3886 103.611 31.7773 103.611 32.2022C103.611 32.6271 103.685 33.0062 103.834 33.3608C103.981 33.7155 104.185 34.0254 104.443 34.2895C104.7 34.5536 105.007 34.7559 105.363 34.8986C105.717 35.0403 106.102 35.1105 106.516 35.1105C106.93 35.1105 107.311 35.0403 107.659 34.8986C108.006 34.7559 108.309 34.5557 108.566 34.2948C108.825 34.0349 109.025 33.7272 109.17 33.3726C109.315 33.0179 109.386 32.6282 109.386 32.2022C109.386 31.7762 109.317 31.3864 109.176 31.0318ZM109.176 31.0318C109.035 30.6772 108.834 30.3694 108.573 30.1096C108.311 29.8497 108.006 29.6484 107.659 29.5068C107.311 29.3652 106.93 29.2938 106.516 29.2938C106.102 29.2938 105.717 29.3652 105.363 29.5068C105.007 29.6484 104.7 29.8518 104.443 30.116C104.185 30.3801 103.981 30.6868 103.834 31.0382C103.685 31.3886 103.611 31.7773 103.611 32.2022C103.611 32.6271 103.685 33.0062 103.834 33.3608C103.981 33.7155 104.185 34.0254 104.443 34.2895C104.7 34.5536 105.007 34.7559 105.363 34.8986C105.717 35.0403 106.102 35.1105 106.516 35.1105C106.93 35.1105 107.311 35.0403 107.659 34.8986C108.006 34.7559 108.309 34.5557 108.566 34.2948C108.825 34.0349 109.025 33.7272 109.17 33.3726C109.315 33.0179 109.386 32.6282 109.386 32.2022C109.386 31.7762 109.317 31.3864 109.176 31.0318ZM109.176 31.0318C109.035 30.6772 108.834 30.3694 108.573 30.1096C108.311 29.8497 108.006 29.6484 107.659 29.5068C107.311 29.3652 106.93 29.2938 106.516 29.2938C106.102 29.2938 105.717 29.3652 105.363 29.5068C105.007 29.6484 104.7 29.8518 104.443 30.116C104.185 30.3801 103.981 30.6868 103.834 31.0382C103.685 31.3886 103.611 31.7773 103.611 32.2022C103.611 32.6271 103.685 33.0062 103.834 33.3608C103.981 33.7155 104.185 34.0254 104.443 34.2895C104.7 34.5536 105.007 34.7559 105.363 34.8986C105.717 35.0403 106.102 35.1105 106.516 35.1105C106.93 35.1105 107.311 35.0403 107.659 34.8986C108.006 34.7559 108.309 34.5557 108.566 34.2948C108.825 34.0349 109.025 33.7272 109.17 33.3726C109.315 33.0179 109.386 32.6282 109.386 32.2022C109.386 31.7762 109.317 31.3864 109.176 31.0318ZM109.176 31.0318C109.035 30.6772 108.834 30.3694 108.573 30.1096C108.311 29.8497 108.006 29.6484 107.659 29.5068C107.311 29.3652 106.93 29.2938 106.516 29.2938C106.102 29.2938 105.717 29.3652 105.363 29.5068C105.007 29.6484 104.7 29.8518 104.443 30.116C104.185 30.3801 103.981 30.6868 103.834 31.0382C103.685 31.3886 103.611 31.7773 103.611 32.2022C103.611 32.6271 103.685 33.0062 103.834 33.3608C103.981 33.7155 104.185 34.0254 104.443 34.2895C104.7 34.5536 105.007 34.7559 105.363 34.8986C105.717 35.0403 106.102 35.1105 106.516 35.1105C106.93 35.1105 107.311 35.0403 107.659 34.8986C108.006 34.7559 108.309 34.5557 108.566 34.2948C108.825 34.0349 109.025 33.7272 109.17 33.3726C109.315 33.0179 109.386 32.6282 109.386 32.2022C109.386 31.7762 109.317 31.3864 109.176 31.0318ZM109.176 31.0318C109.035 30.6772 108.834 30.3694 108.573 30.1096C108.311 29.8497 108.006 29.6484 107.659 29.5068C107.311 29.3652 106.93 29.2938 106.516 29.2938C106.102 29.2938 105.717 29.3652 105.363 29.5068C105.007 29.6484 104.7 29.8518 104.443 30.116C104.185 30.3801 103.981 30.6868 103.834 31.0382C103.685 31.3886 103.611 31.7773 103.611 32.2022C103.611 32.6271 103.685 33.0062 103.834 33.3608C103.981 33.7155 104.185 34.0254 104.443 34.2895C104.7 34.5536 105.007 34.7559 105.363 34.8986C105.717 35.0403 106.102 35.1105 106.516 35.1105C106.93 35.1105 107.311 35.0403 107.659 34.8986C108.006 34.7559 108.309 34.5557 108.566 34.2948C108.825 34.0349 109.025 33.7272 109.17 33.3726C109.315 33.0179 109.386 32.6282 109.386 32.2022C109.386 31.7762 109.317 31.3864 109.176 31.0318ZM109.176 31.0318C109.035 30.6772 108.834 30.3694 108.573 30.1096C108.311 29.8497 108.006 29.6484 107.659 29.5068C107.311 29.3652 106.93 29.2938 106.516 29.2938C106.102 29.2938 105.717 29.3652 105.363 29.5068C105.007 29.6484 104.7 29.8518 104.443 30.116C104.185 30.3801 103.981 30.6868 103.834 31.0382C103.685 31.3886 103.611 31.7773 103.611 32.2022C103.611 32.6271 103.685 33.0062 103.834 33.3608C103.981 33.7155 104.185 34.0254 104.443 34.2895C104.7 34.5536 105.007 34.7559 105.363 34.8986C105.717 35.0403 106.102 35.1105 106.516 35.1105C106.93 35.1105 107.311 35.0403 107.659 34.8986C108.006 34.7559 108.309 34.5557 108.566 34.2948C108.825 34.0349 109.025 33.7272 109.17 33.3726C109.315 33.0179 109.386 32.6282 109.386 32.2022C109.386 31.7762 109.317 31.3864 109.176 31.0318Z" fill="url(#paint0_linear_240_2122)"/>
<path d="M106.516 27.9453C107.149 27.9453 107.735 28.0501 108.274 28.2588C108.812 28.4686 109.28 28.7632 109.674 29.1455C110.068 29.5278 110.375 29.9794 110.594 30.499C110.812 31.0198 110.922 31.5866 110.922 32.2021C110.922 32.8176 110.812 33.383 110.594 33.8984C110.375 34.4149 110.068 34.8664 109.674 35.2529C109.28 35.6384 108.812 35.9368 108.274 36.1455C107.735 36.3542 107.148 36.459 106.516 36.459C105.884 36.459 105.296 36.3517 104.753 36.1387C104.21 35.9268 103.739 35.6266 103.341 35.2412C102.943 34.8547 102.634 34.4031 102.416 33.8867C102.197 33.3713 102.088 32.8166 102.088 32.2021C102.088 31.5877 102.197 31.0223 102.416 30.5059C102.634 29.9894 102.943 29.5395 103.341 29.1572C103.739 28.7749 104.209 28.4776 104.748 28.2646C105.286 28.0517 105.883 27.9453 106.516 27.9453ZM96.2742 33.5479L99.4753 28.0635H100.729L100.753 36.3408H99.2878V30.8447L96.6042 35.4062H95.9128L93.2195 30.9297V36.3408H91.7664V28.0635H93.0203L96.2742 33.5479ZM118.033 33.6777V28.0635H119.533V36.3408H118.279L113.769 30.7285V36.3408H112.257V28.0635H113.511L118.033 33.6777ZM127.453 29.3652H122.989V31.5049H126.949V32.7695H122.989V35.04H127.617V36.3408H121.466V28.0635H127.453V29.3652ZM131.834 32.0928L134.248 28.0635H135.747L132.525 33.4336V36.3408H131.014V33.416L127.793 28.0635H129.41L131.834 32.0928ZM106.516 29.2939C106.103 29.2939 105.718 29.3652 105.363 29.5068C105.007 29.6485 104.701 29.8521 104.443 30.1162C104.186 30.3803 103.981 30.6867 103.834 31.0381C103.685 31.3884 103.611 31.7836 103.611 32.2021C103.611 32.6205 103.685 33.0058 103.834 33.3604C103.981 33.715 104.186 34.025 104.443 34.2891C104.701 34.5531 105.007 34.7557 105.363 34.8984C105.718 35.04 106.103 35.1104 106.516 35.1104C106.93 35.1103 107.311 35.04 107.659 34.8984C108.006 34.7558 108.309 34.5557 108.566 34.2949C108.825 34.0351 109.025 33.7267 109.17 33.3721C109.314 33.0175 109.386 32.627 109.386 32.2021C109.386 31.7772 109.317 31.3859 109.177 31.0312C109.035 30.6768 108.835 30.3691 108.573 30.1094C108.311 29.8495 108.006 29.6485 107.659 29.5068C107.311 29.3652 106.93 29.294 106.516 29.2939Z" fill="white"/>
<path d="M102.629 45.6406C102.629 46.1656 102.744 46.5525 102.968 46.791C103.194 47.0285 103.518 47.1494 103.932 47.1494C104.346 47.1494 104.678 47.0285 104.903 46.791C105.129 46.5514 105.244 46.1646 105.244 45.6406V42.8896H105.983V45.6689C105.983 46.3736 105.799 46.9177 105.437 47.2861C105.074 47.6546 104.566 47.8418 103.925 47.8418C103.285 47.8417 102.783 47.6545 102.417 47.2861C102.053 46.9177 101.868 46.3737 101.868 45.6689V42.8896H102.629V45.6406ZM108.685 42.8359C108.965 42.836 109.246 42.8729 109.52 42.9463C109.795 43.0208 110.038 43.1301 110.241 43.2686L110.267 43.2871L110.011 43.9121L109.971 43.8857C109.77 43.7505 109.555 43.6514 109.334 43.5918C109.113 43.5312 108.894 43.5 108.685 43.5C108.422 43.5 108.204 43.5346 108.038 43.6006C107.874 43.6655 107.753 43.7528 107.677 43.8613C107.602 43.9689 107.565 44.0916 107.565 44.2236C107.565 44.3821 107.614 44.5091 107.712 44.6006C107.813 44.6964 107.949 44.7744 108.114 44.833C108.278 44.8916 108.461 44.9431 108.673 44.9932C108.895 45.0464 109.097 45.0999 109.292 45.1553C109.503 45.216 109.696 45.2967 109.867 45.3936C110.041 45.4915 110.184 45.626 110.292 45.792C110.4 45.958 110.456 46.1731 110.457 46.4316C110.457 46.6904 110.388 46.9166 110.252 47.1328C110.116 47.3468 109.905 47.5206 109.624 47.6494C109.347 47.7771 108.992 47.8418 108.569 47.8418C108.204 47.8418 107.849 47.7848 107.512 47.6719C107.177 47.5579 106.909 47.4077 106.714 47.2256L106.693 47.2051L106.979 46.5947L107.02 46.6289C107.198 46.7864 107.428 46.9193 107.703 47.0215C107.98 47.1257 108.271 47.1777 108.569 47.1777C108.841 47.1777 109.063 47.1457 109.23 47.083C109.395 47.0223 109.517 46.9375 109.593 46.832C109.67 46.7267 109.709 46.6066 109.709 46.4736C109.709 46.3192 109.66 46.1993 109.56 46.1045C109.46 46.0087 109.324 45.9288 109.159 45.8691C108.989 45.8074 108.801 45.7527 108.601 45.708C108.402 45.6633 108.193 45.6088 107.981 45.5449C107.771 45.4821 107.578 45.4016 107.408 45.3047C107.233 45.2067 107.09 45.0706 106.982 44.9023C106.873 44.733 106.818 44.5139 106.818 44.251C106.818 43.988 106.884 43.761 107.017 43.5459C107.15 43.3319 107.358 43.1573 107.634 43.0273C107.909 42.9006 108.263 42.8359 108.685 42.8359ZM124.482 42.8359C124.762 42.836 125.043 42.8729 125.317 42.9463C125.592 43.0208 125.835 43.1301 126.038 43.2686L126.064 43.2871L125.809 43.9121L125.769 43.8857C125.569 43.7505 125.354 43.6514 125.132 43.5918C124.91 43.5312 124.691 43.5 124.482 43.5C124.219 43.5 124.001 43.5346 123.834 43.6006C123.671 43.6655 123.55 43.7539 123.475 43.8613C123.4 43.9678 123.363 44.0905 123.363 44.2236C123.363 44.3843 123.41 44.508 123.509 44.6006C123.612 44.6975 123.748 44.7755 123.912 44.833C124.076 44.8916 124.258 44.9431 124.471 44.9932C124.694 45.0464 124.896 45.0999 125.088 45.1553C125.298 45.216 125.493 45.2956 125.664 45.3936C125.838 45.4915 125.981 45.626 126.089 45.792C126.198 45.957 126.253 46.172 126.253 46.4316C126.253 46.6915 126.184 46.9188 126.049 47.1328C125.913 47.3468 125.703 47.5206 125.422 47.6494C125.144 47.7771 124.789 47.8418 124.366 47.8418C124.001 47.8418 123.646 47.7848 123.31 47.6719C122.973 47.5579 122.704 47.4077 122.511 47.2256L122.491 47.2051L122.779 46.5947L122.818 46.6289C122.994 46.7854 123.224 46.9182 123.5 47.0215C123.778 47.1257 124.068 47.1777 124.366 47.1777C124.638 47.1777 124.86 47.1458 125.027 47.083C125.19 47.0223 125.313 46.9375 125.391 46.832C125.467 46.7267 125.506 46.6066 125.506 46.4736C125.506 46.3192 125.457 46.1982 125.357 46.1045C125.256 46.0076 125.121 45.9288 124.957 45.8691C124.787 45.8074 124.598 45.7527 124.398 45.708C124.199 45.6633 123.99 45.6088 123.778 45.5449C123.568 45.4821 123.374 45.4016 123.205 45.3047C123.029 45.2067 122.886 45.0706 122.779 44.9023C122.67 44.733 122.615 44.5139 122.615 44.251C122.615 43.988 122.682 43.7599 122.815 43.5459C122.947 43.3319 123.155 43.1583 123.431 43.0273C123.706 42.9006 124.06 42.8359 124.482 42.8359ZM128.551 42.8359C128.833 42.8359 129.114 42.8728 129.387 42.9463C129.663 43.0208 129.905 43.1301 130.108 43.2686L130.134 43.2871L129.879 43.9121L129.839 43.8857C129.639 43.7505 129.424 43.6514 129.203 43.5918C128.981 43.5311 128.761 43.5 128.551 43.5C128.289 43.5 128.071 43.5346 127.905 43.6006C127.741 43.6655 127.619 43.7538 127.544 43.8613C127.47 43.9688 127.433 44.0917 127.433 44.2236C127.433 44.3854 127.48 44.508 127.581 44.6006C127.682 44.6975 127.817 44.7755 127.982 44.833C128.146 44.8915 128.329 44.9432 128.541 44.9932C128.762 45.0464 128.966 45.0999 129.16 45.1553C129.368 45.216 129.562 45.2956 129.734 45.3936C129.91 45.4926 130.053 45.627 130.16 45.792C130.268 45.957 130.324 46.172 130.324 46.4316C130.324 46.6915 130.255 46.9188 130.12 47.1328C129.984 47.3469 129.773 47.5206 129.493 47.6494C129.214 47.7772 128.858 47.8418 128.435 47.8418C128.07 47.8418 127.716 47.7847 127.38 47.6719C127.045 47.5579 126.777 47.4077 126.583 47.2256L126.56 47.2051L126.847 46.5947L126.887 46.6289C127.063 46.7854 127.293 46.9182 127.57 47.0215C127.847 47.1258 128.138 47.1777 128.435 47.1777C128.707 47.1777 128.93 47.1458 129.097 47.083C129.261 47.0234 129.383 46.9375 129.461 46.832C129.537 46.7267 129.576 46.6066 129.576 46.4736C129.576 46.3193 129.527 46.1993 129.427 46.1045C129.326 46.0076 129.191 45.9288 129.025 45.8691C128.856 45.8074 128.669 45.7527 128.468 45.708C128.269 45.6633 128.06 45.6088 127.848 45.5449C127.64 45.4832 127.447 45.4026 127.275 45.3047C127.099 45.2056 126.956 45.0695 126.848 44.9023C126.74 44.7341 126.686 44.5148 126.686 44.251C126.686 43.9869 126.752 43.7589 126.885 43.5459C127.019 43.3308 127.226 43.1572 127.501 43.0273C127.777 42.9006 128.13 42.836 128.551 42.8359ZM99.0913 42.8896C99.6473 42.8896 100.082 43.0047 100.384 43.2314C100.498 43.3177 100.591 43.4176 100.664 43.5283C100.783 43.7115 100.843 43.9277 100.843 44.1758C100.843 44.444 100.782 44.6732 100.662 44.8584C100.558 45.018 100.422 45.1463 100.256 45.2432C100.306 45.2591 100.35 45.2769 100.39 45.2949C100.605 45.395 100.779 45.5428 100.904 45.7334C101.031 45.924 101.095 46.1641 101.095 46.4463C101.095 46.871 100.935 47.2043 100.619 47.4385C100.307 47.6695 99.8389 47.7871 99.228 47.7871H96.9116V42.8896H99.0913ZM111.969 47.7871H111.208V42.8896H111.969V47.7871ZM116.581 46.4053V42.8896H117.343V47.7871H116.724L113.919 44.2715V47.7871H113.159V42.8896H113.776L116.581 46.4053ZM121.978 43.5684H119.292V44.9688H121.685V45.6338H119.292V47.1084H122.074V47.7871H118.531V42.8896H121.978V43.5684ZM97.6724 47.1494H99.2007C99.5686 47.1494 99.8524 47.0872 100.045 46.9639C100.234 46.8414 100.328 46.6536 100.328 46.3906C100.328 46.1276 100.232 45.9328 100.045 45.8125C99.8513 45.689 99.5667 45.626 99.2007 45.626H97.6724V47.1494ZM97.6724 44.9893H99.0308C99.3671 44.9892 99.6295 44.9261 99.812 44.8027C99.985 44.6878 100.074 44.5207 100.082 44.292V44.2871C100.083 44.2777 100.083 44.2683 100.083 44.2578C100.083 44.0139 99.9935 43.8353 99.812 43.7139C99.81 43.7118 99.8072 43.7092 99.8052 43.709C99.629 43.5929 99.3805 43.5326 99.0649 43.5283H97.6724V44.9893Z" fill="black"/>
<path d="M2.21915 26.6159C3.44533 26.6159 4.4383 25.6106 4.4383 24.3699C4.4383 23.1292 3.44533 22.125 2.21915 22.125C0.992973 22.125 0 23.1303 0 24.371C0 25.6116 0.992973 26.6169 2.21915 26.6169V26.6159Z" fill="#3C8404"/>
<path d="M8.92081 32.5544C10.147 32.5544 11.14 31.5491 11.14 30.3085C11.14 29.0678 10.147 28.0625 8.92081 28.0625C7.69463 28.0625 6.70166 29.0678 6.70166 30.3085C6.70166 31.5491 7.69463 32.5544 8.92081 32.5544Z" fill="#3C8404"/>
<path d="M51.1735 25.901C52.3997 25.901 53.3926 24.8957 53.3926 23.6551C53.3926 22.4144 52.3997 21.4102 51.1735 21.4102C49.9473 21.4102 48.9543 22.4155 48.9543 23.6561C48.9543 24.8968 49.9473 25.9021 51.1735 25.9021V25.901Z" fill="#3C8404"/>
<defs>
<linearGradient id="paint0_linear_240_2122" x1="83.032" y1="32.7985" x2="144" y2="32.7985" gradientUnits="userSpaceOnUse">
<stop/>
<stop offset="0.17" stop-color="#010400"/>
<stop offset="0.34" stop-color="#071000"/>
<stop offset="0.52" stop-color="#102501"/>
<stop offset="0.7" stop-color="#1E4202"/>
<stop offset="0.88" stop-color="#2F6703"/>
<stop offset="1" stop-color="#3C8404"/>
</linearGradient>
</defs>
</svg>
