<?xml version="1.0" encoding="UTF-8" standalone="no"?>
<svg
   id="Logo"
   viewBox="0 0 344.84 299.91"
   version="1.1"
   sodipodi:docname="Dirham Currency Symbol - Black.svg"
   inkscape:version="1.4 (86a8ad7, 2024-10-11)"
   xmlns:inkscape="http://www.inkscape.org/namespaces/inkscape"
   xmlns:sodipodi="http://sodipodi.sourceforge.net/DTD/sodipodi-0.dtd"
   xmlns="http://www.w3.org/2000/svg"
   xmlns:svg="http://www.w3.org/2000/svg">
  <defs
     id="defs1" />
  <sodipodi:namedview
     id="namedview1"
     pagecolor="#ffffff"
     bordercolor="#111111"
     borderopacity="1"
     inkscape:showpageshadow="0"
     inkscape:pageopacity="0"
     inkscape:pagecheckerboard="1"
     inkscape:deskcolor="#d1d1d1"
     inkscape:zoom="2.7108132"
     inkscape:cx="172.27303"
     inkscape:cy="179.46644"
     inkscape:window-width="1920"
     inkscape:window-height="1094"
     inkscape:window-x="-11"
     inkscape:window-y="-11"
     inkscape:window-maximized="1"
     inkscape:current-layer="Logo" />
  <path
     d="m 344.76072,295.60877 0.089,0.0687 v -0.2089 c 0,-0.46003 -0.3927,-0.83454 -0.87502,-0.83454 h -0.77124 c -0.53964,-1.84659 -2.37796,-2.83971 -5.11272,-2.83971 -1.74147,0 -1.96517,0 -3.61439,0 0,0 0.49516,0.34177 0.49516,1.41796 v 1.42283 h -0.91191 c -0.17725,0 -0.34362,-0.0563 -0.48133,-0.16263 l -0.089,-0.0687 v 0.2089 c 0,0.4603 0.3927,0.83454 0.87502,0.83454 h 0.6075 c 0,0 0,0.81154 0,0.81154 h -0.91191 c -0.17725,0 -0.34362,-0.056 -0.48133,-0.16263 l -0.089,-0.0687 v 0.20864 c 0,0.46002 0.3927,0.83399 0.87502,0.83399 h 0.6075 c 0,0 0,1.48534 0,1.48534 0,1.04588 -0.49516,1.35464 -0.49516,1.35464 h 3.61439 c 2.82074,0 4.60043,-1.00015 5.11898,-2.84079 h 1.06939 c 0.17725,0 0.34362,0.056 0.48133,0.16236 l 0.089,0.0687 v -0.20864 c 0,-0.46002 -0.3927,-0.83427 -0.87502,-0.83427 h -0.62266 c 0.0105,-0.13205 0.0161,-0.26708 0.0161,-0.4059 0,-0.13882 -0.006,-0.27358 -0.0168,-0.40563 h 0.92806 c 0.17692,0 0.34362,0.056 0.48133,0.16263 z m -8.30805,-3.40824 h 1.51085 c 2.0327,0 3.21016,0.73956 3.56135,2.4338 l -5.0722,5.2e-4 v -2.43434 z m 1.5237,7.30411 h -1.52403 v -2.43489 l 5.06923,-5.2e-4 c -0.32846,1.53324 -1.38599,2.39159 -3.5452,2.43543 z m 3.66117,-3.65233 c 0,0.13882 -0.004,0.27412 -0.0112,0.40564 l -5.17367,5.2e-4 v -0.81154 l 5.174,-5.2e-4 c 0.007,0.13097 0.0109,0.266 0.0109,0.4059 z"
     id="path1"
     style="stroke-width:0.029858" />
</svg>
